<svg id="visual" viewBox="0 0 1920 1080" width="1920" height="1080" xmlns="http://www.w3.org/2000/svg" xmlns:xlink="http://www.w3.org/1999/xlink" version="1.1"><rect x="0" y="0" width="1920" height="1080" fill="#000000"></rect><path d="M0 516L32 523.8C64 531.7 128 547.3 192 546.5C256 545.7 320 528.3 384 544C448 559.7 512 608.3 576 612.3C640 616.3 704 575.7 768 555.3C832 535 896 535 960 567C1024 599 1088 663 1152 656.8C1216 650.7 1280 574.3 1344 561.5C1408 548.7 1472 599.3 1536 603.2C1600 607 1664 564 1728 542.5C1792 521 1856 521 1888 521L1920 521L1920 1081L1888 1081C1856 1081 1792 1081 1728 1081C1664 1081 1600 1081 1536 1081C1472 1081 1408 1081 1344 1081C1280 1081 1216 1081 1152 1081C1088 1081 1024 1081 960 1081C896 1081 832 1081 768 1081C704 1081 640 1081 576 1081C512 1081 448 1081 384 1081C320 1081 256 1081 192 1081C128 1081 64 1081 32 1081L0 1081Z" fill="#171717"></path><path d="M0 906L32 892.2C64 878.3 128 850.7 192 851C256 851.3 320 879.7 384 890.7C448 901.7 512 895.3 576 885.8C640 876.3 704 863.7 768 848.2C832 832.7 896 814.3 960 825.2C1024 836 1088 876 1152 895.8C1216 915.7 1280 915.3 1344 908.3C1408 901.3 1472 887.7 1536 886.2C1600 884.7 1664 895.3 1728 881.7C1792 868 1856 830 1888 811L1920 792L1920 1081L1888 1081C1856 1081 1792 1081 1728 1081C1664 1081 1600 1081 1536 1081C1472 1081 1408 1081 1344 1081C1280 1081 1216 1081 1152 1081C1088 1081 1024 1081 960 1081C896 1081 832 1081 768 1081C704 1081 640 1081 576 1081C512 1081 448 1081 384 1081C320 1081 256 1081 192 1081C128 1081 64 1081 32 1081L0 1081Z" fill="#fcaf3c"></path></svg>