<svg id="visual" viewBox="0 0 1920 1080" width="1920" height="1080" xmlns="http://www.w3.org/2000/svg" xmlns:xlink="http://www.w3.org/1999/xlink" version="1.1"><rect width="1920" height="1080" fill="#161616"></rect><g><g transform="translate(345 336)"><path d="M0 -157L135.9 -78.5L135.9 78.5L0 157L-135.9 78.5L-135.9 -78.5Z" fill="none" stroke="#FCAF3C" stroke-width="5"></path></g><g transform="translate(1150 152)"><path d="M0 -95L82.3 -47.5L82.3 47.5L0 95L-82.3 47.5L-82.3 -47.5Z" fill="none" stroke="#FCAF3C" stroke-width="5"></path></g><g transform="translate(724 549)"><path d="M0 -118L102.2 -59L102.2 59L0 118L-102.2 59L-102.2 -59Z" stroke="#FCAF3C" fill="none" stroke-width="5"></path></g><g transform="translate(1680 569)"><path d="M0 -77L66.7 -38.5L66.7 38.5L0 77L-66.7 38.5L-66.7 -38.5Z" stroke="#FCAF3C" fill="none" stroke-width="5"></path></g><g transform="translate(1139 632)"><path d="M0 -126L109.1 -63L109.1 63L0 126L-109.1 63L-109.1 -63Z" stroke="#FCAF3C" fill="none" stroke-width="5"></path></g><g transform="translate(1330 978)"><path d="M0 -21L18.2 -10.5L18.2 10.5L0 21L-18.2 10.5L-18.2 -10.5Z" stroke="#FCAF3C" fill="none" stroke-width="5"></path></g><g transform="translate(49 226)"><path d="M0 -94L81.4 -47L81.4 47L0 94L-81.4 47L-81.4 -47Z" stroke="#FCAF3C" fill="none" stroke-width="5"></path></g><g transform="translate(142 949)"><path d="M0 -135L116.9 -67.5L116.9 67.5L0 135L-116.9 67.5L-116.9 -67.5Z" stroke="#FCAF3C" fill="none" stroke-width="5"></path></g><g transform="translate(380 685)"><path d="M0 -108L93.5 -54L93.5 54L0 108L-93.5 54L-93.5 -54Z" stroke="#FCAF3C" fill="none" stroke-width="5"></path></g><g transform="translate(1660 885)"><path d="M0 -143L123.8 -71.5L123.8 71.5L0 143L-123.8 71.5L-123.8 -71.5Z" stroke="#FCAF3C" fill="none" stroke-width="5"></path></g></g></svg>