<svg id="visual" viewBox="0 0 900 600" width="900" height="600" xmlns="http://www.w3.org/2000/svg" xmlns:xlink="http://www.w3.org/1999/xlink" version="1.1"><rect width="900" height="600" fill="#000000"></rect><g><g transform="translate(216 224)"><path d="M0 -13.1L11.4 -6.6L11.4 6.6L0 13.1L-11.4 6.6L-11.4 -6.6Z" fill="none" stroke="#ff341a" stroke-width="1"></path></g><g transform="translate(340 35)"><path d="M0 -10L8.7 -5L8.7 5L0 10L-8.7 5L-8.7 -5Z" fill="none" stroke="#ff341a" stroke-width="1"></path></g><g transform="translate(285 138)"><path d="M0 -9L7.8 -4.5L7.8 4.5L0 9L-7.8 4.5L-7.8 -4.5Z" fill="none" stroke="#ff341a" stroke-width="1"></path></g><g transform="translate(584 133)"><path d="M0 -8L6.9 -4L6.9 4L0 8L-6.9 4L-6.9 -4Z" stroke="#ff341a" fill="none" stroke-width="1"></path></g><g transform="translate(841 129)"><path d="M0 -4L3.5 -2L3.5 2L0 4L-3.5 2L-3.5 -2Z" stroke="#ff341a" fill="none" stroke-width="1"></path></g><g transform="translate(353 176)"><path d="M0 -12L10.4 -6L10.4 6L0 12L-10.4 6L-10.4 -6Z" stroke="#ff341a" fill="none" stroke-width="1"></path></g><g transform="translate(290 280)"><path d="M0 -9L7.8 -4.5L7.8 4.5L0 9L-7.8 4.5L-7.8 -4.5Z" stroke="#ff341a" fill="none" stroke-width="1"></path></g><g transform="translate(859 348)"><path d="M0 -6L5.2 -3L5.2 3L0 6L-5.2 3L-5.2 -3Z" stroke="#ff341a" fill="none" stroke-width="1"></path></g><g transform="translate(206 143)"><path d="M0 -8L6.9 -4L6.9 4L0 8L-6.9 4L-6.9 -4Z" stroke="#ff341a" fill="none" stroke-width="1"></path></g><g transform="translate(580 531)"><path d="M0 -6L5.2 -3L5.2 3L0 6L-5.2 3L-5.2 -3Z" stroke="#ff341a" fill="none" stroke-width="1"></path></g><g transform="translate(284 447)"><path d="M0 -11L9.5 -5.5L9.5 5.5L0 11L-9.5 5.5L-9.5 -5.5Z" stroke="#ff341a" fill="none" stroke-width="1"></path></g><g transform="translate(744 217)"><path d="M0 -12L10.4 -6L10.4 6L0 12L-10.4 6L-10.4 -6Z" stroke="#ff341a" fill="none" stroke-width="1"></path></g><g transform="translate(686 288)"><path d="M0 -5L4.3 -2.5L4.3 2.5L0 5L-4.3 2.5L-4.3 -2.5Z" stroke="#ff341a" fill="none" stroke-width="1"></path></g><g transform="translate(239 591)"><path d="M0 -1L0.9 -0.5L0.9 0.5L0 1L-0.9 0.5L-0.9 -0.5Z" stroke="#ff341a" fill="none" stroke-width="1"></path></g><g transform="translate(860 499)"><path d="M0 -8L6.9 -4L6.9 4L0 8L-6.9 4L-6.9 -4Z" stroke="#ff341a" fill="none" stroke-width="1"></path></g><g transform="translate(830 379)"><path d="M0 -5L4.3 -2.5L4.3 2.5L0 5L-4.3 2.5L-4.3 -2.5Z" stroke="#ff341a" fill="none" stroke-width="1"></path></g><g transform="translate(116 49)"><path d="M0 -9L7.8 -4.5L7.8 4.5L0 9L-7.8 4.5L-7.8 -4.5Z" stroke="#ff341a" fill="none" stroke-width="1"></path></g><g transform="translate(723 123)"><path d="M0 -11L9.5 -5.5L9.5 5.5L0 11L-9.5 5.5L-9.5 -5.5Z" stroke="#ff341a" fill="none" stroke-width="1"></path></g><g transform="translate(44 59)"><path d="M0 -9L7.8 -4.5L7.8 4.5L0 9L-7.8 4.5L-7.8 -4.5Z" stroke="#ff341a" fill="none" stroke-width="1"></path></g><g transform="translate(516 162)"><path d="M0 -8L6.9 -4L6.9 4L0 8L-6.9 4L-6.9 -4Z" stroke="#ff341a" fill="none" stroke-width="1"></path></g><g transform="translate(886 406)"><path d="M0 -11L9.5 -5.5L9.5 5.5L0 11L-9.5 5.5L-9.5 -5.5Z" stroke="#ff341a" fill="none" stroke-width="1"></path></g><g transform="translate(710 4)"><path d="M0 -1L0.9 -0.5L0.9 0.5L0 1L-0.9 0.5L-0.9 -0.5Z" stroke="#ff341a" fill="none" stroke-width="1"></path></g><g transform="translate(377 214)"><path d="M0 -11L9.5 -5.5L9.5 5.5L0 11L-9.5 5.5L-9.5 -5.5Z" stroke="#ff341a" fill="none" stroke-width="1"></path></g><g transform="translate(717 482)"><path d="M0 -7L6.1 -3.5L6.1 3.5L0 7L-6.1 3.5L-6.1 -3.5Z" stroke="#ff341a" fill="none" stroke-width="1"></path></g><g transform="translate(490 63)"><path d="M0 -11L9.5 -5.5L9.5 5.5L0 11L-9.5 5.5L-9.5 -5.5Z" stroke="#ff341a" fill="none" stroke-width="1"></path></g><g transform="translate(389 270)"><path d="M0 -1L0.9 -0.5L0.9 0.5L0 1L-0.9 0.5L-0.9 -0.5Z" stroke="#ff341a" fill="none" stroke-width="1"></path></g><g transform="translate(242 494)"><path d="M0 -11L9.5 -5.5L9.5 5.5L0 11L-9.5 5.5L-9.5 -5.5Z" stroke="#ff341a" fill="none" stroke-width="1"></path></g><g transform="translate(829 509)"><path d="M0 -11L9.5 -5.5L9.5 5.5L0 11L-9.5 5.5L-9.5 -5.5Z" stroke="#ff341a" fill="none" stroke-width="1"></path></g><g transform="translate(496 440)"><path d="M0 -6L5.2 -3L5.2 3L0 6L-5.2 3L-5.2 -3Z" stroke="#ff341a" fill="none" stroke-width="1"></path></g><g transform="translate(217 118)"><path d="M0 -3L2.6 -1.5L2.6 1.5L0 3L-2.6 1.5L-2.6 -1.5Z" stroke="#ff341a" fill="none" stroke-width="1"></path></g><g transform="translate(247 430)"><path d="M0 -2L1.7 -1L1.7 1L0 2L-1.7 1L-1.7 -1Z" stroke="#ff341a" fill="none" stroke-width="1"></path></g><g transform="translate(774 516)"><path d="M0 -11L9.5 -5.5L9.5 5.5L0 11L-9.5 5.5L-9.5 -5.5Z" stroke="#ff341a" fill="none" stroke-width="1"></path></g><g transform="translate(328 197)"><path d="M0 -7L6.1 -3.5L6.1 3.5L0 7L-6.1 3.5L-6.1 -3.5Z" stroke="#ff341a" fill="none" stroke-width="1"></path></g><g transform="translate(112 548)"><path d="M0 -2L1.7 -1L1.7 1L0 2L-1.7 1L-1.7 -1Z" stroke="#ff341a" fill="none" stroke-width="1"></path></g><g transform="translate(168 155)"><path d="M0 -11L9.5 -5.5L9.5 5.5L0 11L-9.5 5.5L-9.5 -5.5Z" stroke="#ff341a" fill="none" stroke-width="1"></path></g><g transform="translate(699 432)"><path d="M0 -10L8.7 -5L8.7 5L0 10L-8.7 5L-8.7 -5Z" stroke="#ff341a" fill="none" stroke-width="1"></path></g><g transform="translate(572 74)"><path d="M0 -12L10.4 -6L10.4 6L0 12L-10.4 6L-10.4 -6Z" stroke="#ff341a" fill="none" stroke-width="1"></path></g><g transform="translate(782 481)"><path d="M0 -5L4.3 -2.5L4.3 2.5L0 5L-4.3 2.5L-4.3 -2.5Z" stroke="#ff341a" fill="none" stroke-width="1"></path></g><g transform="translate(822 558)"><path d="M0 -9L7.8 -4.5L7.8 4.5L0 9L-7.8 4.5L-7.8 -4.5Z" stroke="#ff341a" fill="none" stroke-width="1"></path></g><g transform="translate(790 451)"><path d="M0 -11L9.5 -5.5L9.5 5.5L0 11L-9.5 5.5L-9.5 -5.5Z" stroke="#ff341a" fill="none" stroke-width="1"></path></g><g transform="translate(38 480)"><path d="M0 -11L9.5 -5.5L9.5 5.5L0 11L-9.5 5.5L-9.5 -5.5Z" stroke="#ff341a" fill="none" stroke-width="1"></path></g><g transform="translate(384 533)"><path d="M0 -3L2.6 -1.5L2.6 1.5L0 3L-2.6 1.5L-2.6 -1.5Z" stroke="#ff341a" fill="none" stroke-width="1"></path></g><g transform="translate(145 318)"><path d="M0 -9L7.8 -4.5L7.8 4.5L0 9L-7.8 4.5L-7.8 -4.5Z" stroke="#ff341a" fill="none" stroke-width="1"></path></g><g transform="translate(175 216)"><path d="M0 -9L7.8 -4.5L7.8 4.5L0 9L-7.8 4.5L-7.8 -4.5Z" stroke="#ff341a" fill="none" stroke-width="1"></path></g><g transform="translate(9 158)"><path d="M0 -12L10.4 -6L10.4 6L0 12L-10.4 6L-10.4 -6Z" stroke="#ff341a" fill="none" stroke-width="1"></path></g><g transform="translate(601 16)"><path d="M0 -2L1.7 -1L1.7 1L0 2L-1.7 1L-1.7 -1Z" stroke="#ff341a" fill="none" stroke-width="1"></path></g><g transform="translate(693 85)"><path d="M0 -6L5.2 -3L5.2 3L0 6L-5.2 3L-5.2 -3Z" stroke="#ff341a" fill="none" stroke-width="1"></path></g><g transform="translate(222 533)"><path d="M0 -6L5.2 -3L5.2 3L0 6L-5.2 3L-5.2 -3Z" stroke="#ff341a" fill="none" stroke-width="1"></path></g><g transform="translate(543 259)"><path d="M0 -1L0.9 -0.5L0.9 0.5L0 1L-0.9 0.5L-0.9 -0.5Z" stroke="#ff341a" fill="none" stroke-width="1"></path></g><g transform="translate(618 454)"><path d="M0 -2L1.7 -1L1.7 1L0 2L-1.7 1L-1.7 -1Z" stroke="#ff341a" fill="none" stroke-width="1"></path></g><g transform="translate(664 56)"><path d="M0 -9L7.8 -4.5L7.8 4.5L0 9L-7.8 4.5L-7.8 -4.5Z" stroke="#ff341a" fill="none" stroke-width="1"></path></g><g transform="translate(419 431)"><path d="M0 -5L4.3 -2.5L4.3 2.5L0 5L-4.3 2.5L-4.3 -2.5Z" stroke="#ff341a" fill="none" stroke-width="1"></path></g><g transform="translate(845 451)"><path d="M0 -7L6.1 -3.5L6.1 3.5L0 7L-6.1 3.5L-6.1 -3.5Z" stroke="#ff341a" fill="none" stroke-width="1"></path></g><g transform="translate(81 386)"><path d="M0 -10L8.7 -5L8.7 5L0 10L-8.7 5L-8.7 -5Z" stroke="#ff341a" fill="none" stroke-width="1"></path></g><g transform="translate(73 26)"><path d="M0 -1L0.9 -0.5L0.9 0.5L0 1L-0.9 0.5L-0.9 -0.5Z" stroke="#ff341a" fill="none" stroke-width="1"></path></g><g transform="translate(209 355)"><path d="M0 -2L1.7 -1L1.7 1L0 2L-1.7 1L-1.7 -1Z" stroke="#ff341a" fill="none" stroke-width="1"></path></g><g transform="translate(308 538)"><path d="M0 -12L10.4 -6L10.4 6L0 12L-10.4 6L-10.4 -6Z" stroke="#ff341a" fill="none" stroke-width="1"></path></g><g transform="translate(653 83)"><path d="M0 -9L7.8 -4.5L7.8 4.5L0 9L-7.8 4.5L-7.8 -4.5Z" stroke="#ff341a" fill="none" stroke-width="1"></path></g><g transform="translate(129 459)"><path d="M0 -12L10.4 -6L10.4 6L0 12L-10.4 6L-10.4 -6Z" stroke="#ff341a" fill="none" stroke-width="1"></path></g><g transform="translate(545 592)"><path d="M0 -1L0.9 -0.5L0.9 0.5L0 1L-0.9 0.5L-0.9 -0.5Z" stroke="#ff341a" fill="none" stroke-width="1"></path></g><g transform="translate(380 430)"><path d="M0 -10L8.7 -5L8.7 5L0 10L-8.7 5L-8.7 -5Z" stroke="#ff341a" fill="none" stroke-width="1"></path></g><g transform="translate(862 24)"><path d="M0 -7L6.1 -3.5L6.1 3.5L0 7L-6.1 3.5L-6.1 -3.5Z" stroke="#ff341a" fill="none" stroke-width="1"></path></g><g transform="translate(277 542)"><path d="M0 -6L5.2 -3L5.2 3L0 6L-5.2 3L-5.2 -3Z" stroke="#ff341a" fill="none" stroke-width="1"></path></g><g transform="translate(310 237)"><path d="M0 -1L0.9 -0.5L0.9 0.5L0 1L-0.9 0.5L-0.9 -0.5Z" stroke="#ff341a" fill="none" stroke-width="1"></path></g><g transform="translate(446 489)"><path d="M0 -12L10.4 -6L10.4 6L0 12L-10.4 6L-10.4 -6Z" stroke="#ff341a" fill="none" stroke-width="1"></path></g><g transform="translate(545 304)"><path d="M0 -6L5.2 -3L5.2 3L0 6L-5.2 3L-5.2 -3Z" stroke="#ff341a" fill="none" stroke-width="1"></path></g><g transform="translate(88 314)"><path d="M0 -10L8.7 -5L8.7 5L0 10L-8.7 5L-8.7 -5Z" stroke="#ff341a" fill="none" stroke-width="1"></path></g><g transform="translate(647 259)"><path d="M0 -3L2.6 -1.5L2.6 1.5L0 3L-2.6 1.5L-2.6 -1.5Z" stroke="#ff341a" fill="none" stroke-width="1"></path></g><g transform="translate(450 25)"><path d="M0 -6L5.2 -3L5.2 3L0 6L-5.2 3L-5.2 -3Z" stroke="#ff341a" fill="none" stroke-width="1"></path></g><g transform="translate(234 84)"><path d="M0 -2L1.7 -1L1.7 1L0 2L-1.7 1L-1.7 -1Z" stroke="#ff341a" fill="none" stroke-width="1"></path></g><g transform="translate(448 59)"><path d="M0 -3L2.6 -1.5L2.6 1.5L0 3L-2.6 1.5L-2.6 -1.5Z" stroke="#ff341a" fill="none" stroke-width="1"></path></g><g transform="translate(45 373)"><path d="M0 -9L7.8 -4.5L7.8 4.5L0 9L-7.8 4.5L-7.8 -4.5Z" stroke="#ff341a" fill="none" stroke-width="1"></path></g><g transform="translate(714 55)"><path d="M0 -5L4.3 -2.5L4.3 2.5L0 5L-4.3 2.5L-4.3 -2.5Z" stroke="#ff341a" fill="none" stroke-width="1"></path></g><g transform="translate(54 89)"><path d="M0 -7L6.1 -3.5L6.1 3.5L0 7L-6.1 3.5L-6.1 -3.5Z" stroke="#ff341a" fill="none" stroke-width="1"></path></g><g transform="translate(287 408)"><path d="M0 -5L4.3 -2.5L4.3 2.5L0 5L-4.3 2.5L-4.3 -2.5Z" stroke="#ff341a" fill="none" stroke-width="1"></path></g><g transform="translate(628 294)"><path d="M0 -3L2.6 -1.5L2.6 1.5L0 3L-2.6 1.5L-2.6 -1.5Z" stroke="#ff341a" fill="none" stroke-width="1"></path></g><g transform="translate(600 92)"><path d="M0 -1L0.9 -0.5L0.9 0.5L0 1L-0.9 0.5L-0.9 -0.5Z" stroke="#ff341a" fill="none" stroke-width="1"></path></g><g transform="translate(869 236)"><path d="M0 -3L2.6 -1.5L2.6 1.5L0 3L-2.6 1.5L-2.6 -1.5Z" stroke="#ff341a" fill="none" stroke-width="1"></path></g><g transform="translate(126 103)"><path d="M0 -7L6.1 -3.5L6.1 3.5L0 7L-6.1 3.5L-6.1 -3.5Z" stroke="#ff341a" fill="none" stroke-width="1"></path></g><g transform="translate(761 299)"><path d="M0 -5L4.3 -2.5L4.3 2.5L0 5L-4.3 2.5L-4.3 -2.5Z" stroke="#ff341a" fill="none" stroke-width="1"></path></g><g transform="translate(50 232)"><path d="M0 -6L5.2 -3L5.2 3L0 6L-5.2 3L-5.2 -3Z" stroke="#ff341a" fill="none" stroke-width="1"></path></g><g transform="translate(628 9)"><path d="M0 -4L3.5 -2L3.5 2L0 4L-3.5 2L-3.5 -2Z" stroke="#ff341a" fill="none" stroke-width="1"></path></g><g transform="translate(124 299)"><path d="M0 -4L3.5 -2L3.5 2L0 4L-3.5 2L-3.5 -2Z" stroke="#ff341a" fill="none" stroke-width="1"></path></g><g transform="translate(712 343)"><path d="M0 -8L6.9 -4L6.9 4L0 8L-6.9 4L-6.9 -4Z" stroke="#ff341a" fill="none" stroke-width="1"></path></g><g transform="translate(890 565)"><path d="M0 -10L8.7 -5L8.7 5L0 10L-8.7 5L-8.7 -5Z" stroke="#ff341a" fill="none" stroke-width="1"></path></g><g transform="translate(630 556)"><path d="M0 -11L9.5 -5.5L9.5 5.5L0 11L-9.5 5.5L-9.5 -5.5Z" stroke="#ff341a" fill="none" stroke-width="1"></path></g><g transform="translate(301 480)"><path d="M0 -6L5.2 -3L5.2 3L0 6L-5.2 3L-5.2 -3Z" stroke="#ff341a" fill="none" stroke-width="1"></path></g><g transform="translate(809 280)"><path d="M0 -9L7.8 -4.5L7.8 4.5L0 9L-7.8 4.5L-7.8 -4.5Z" stroke="#ff341a" fill="none" stroke-width="1"></path></g><g transform="translate(289 517)"><path d="M0 -7L6.1 -3.5L6.1 3.5L0 7L-6.1 3.5L-6.1 -3.5Z" stroke="#ff341a" fill="none" stroke-width="1"></path></g><g transform="translate(808 224)"><path d="M0 -12L10.4 -6L10.4 6L0 12L-10.4 6L-10.4 -6Z" stroke="#ff341a" fill="none" stroke-width="1"></path></g><g transform="translate(469 99)"><path d="M0 -5L4.3 -2.5L4.3 2.5L0 5L-4.3 2.5L-4.3 -2.5Z" stroke="#ff341a" fill="none" stroke-width="1"></path></g><g transform="translate(367 510)"><path d="M0 -5L4.3 -2.5L4.3 2.5L0 5L-4.3 2.5L-4.3 -2.5Z" stroke="#ff341a" fill="none" stroke-width="1"></path></g><g transform="translate(750 129)"><path d="M0 -9L7.8 -4.5L7.8 4.5L0 9L-7.8 4.5L-7.8 -4.5Z" stroke="#ff341a" fill="none" stroke-width="1"></path></g><g transform="translate(625 381)"><path d="M0 -10L8.7 -5L8.7 5L0 10L-8.7 5L-8.7 -5Z" stroke="#ff341a" fill="none" stroke-width="1"></path></g><g transform="translate(200 178)"><path d="M0 -7L6.1 -3.5L6.1 3.5L0 7L-6.1 3.5L-6.1 -3.5Z" stroke="#ff341a" fill="none" stroke-width="1"></path></g><g transform="translate(735 365)"><path d="M0 -11L9.5 -5.5L9.5 5.5L0 11L-9.5 5.5L-9.5 -5.5Z" stroke="#ff341a" fill="none" stroke-width="1"></path></g><g transform="translate(418 379)"><path d="M0 -8L6.9 -4L6.9 4L0 8L-6.9 4L-6.9 -4Z" stroke="#ff341a" fill="none" stroke-width="1"></path></g><g transform="translate(383 87)"><path d="M0 -10L8.7 -5L8.7 5L0 10L-8.7 5L-8.7 -5Z" stroke="#ff341a" fill="none" stroke-width="1"></path></g><g transform="translate(471 352)"><path d="M0 -3L2.6 -1.5L2.6 1.5L0 3L-2.6 1.5L-2.6 -1.5Z" stroke="#ff341a" fill="none" stroke-width="1"></path></g><g transform="translate(808 127)"><path d="M0 -2L1.7 -1L1.7 1L0 2L-1.7 1L-1.7 -1Z" stroke="#ff341a" fill="none" stroke-width="1"></path></g><g transform="translate(518 567)"><path d="M0 -2L1.7 -1L1.7 1L0 2L-1.7 1L-1.7 -1Z" stroke="#ff341a" fill="none" stroke-width="1"></path></g><g transform="translate(621 426)"><path d="M0 -11L9.5 -5.5L9.5 5.5L0 11L-9.5 5.5L-9.5 -5.5Z" stroke="#ff341a" fill="none" stroke-width="1"></path></g><g transform="translate(72 450)"><path d="M0 -1L0.9 -0.5L0.9 0.5L0 1L-0.9 0.5L-0.9 -0.5Z" stroke="#ff341a" fill="none" stroke-width="1"></path></g><g transform="translate(614 215)"><path d="M0 -6L5.2 -3L5.2 3L0 6L-5.2 3L-5.2 -3Z" stroke="#ff341a" fill="none" stroke-width="1"></path></g><g transform="translate(240 194)"><path d="M0 -5L4.3 -2.5L4.3 2.5L0 5L-4.3 2.5L-4.3 -2.5Z" stroke="#ff341a" fill="none" stroke-width="1"></path></g><g transform="translate(390 161)"><path d="M0 -9L7.8 -4.5L7.8 4.5L0 9L-7.8 4.5L-7.8 -4.5Z" stroke="#ff341a" fill="none" stroke-width="1"></path></g><g transform="translate(59 416)"><path d="M0 -6L5.2 -3L5.2 3L0 6L-5.2 3L-5.2 -3Z" stroke="#ff341a" fill="none" stroke-width="1"></path></g><g transform="translate(194 515)"><path d="M0 -11L9.5 -5.5L9.5 5.5L0 11L-9.5 5.5L-9.5 -5.5Z" stroke="#ff341a" fill="none" stroke-width="1"></path></g><g transform="translate(584 271)"><path d="M0 -4L3.5 -2L3.5 2L0 4L-3.5 2L-3.5 -2Z" stroke="#ff341a" fill="none" stroke-width="1"></path></g><g transform="translate(339 291)"><path d="M0 -7L6.1 -3.5L6.1 3.5L0 7L-6.1 3.5L-6.1 -3.5Z" stroke="#ff341a" fill="none" stroke-width="1"></path></g><g transform="translate(235 12)"><path d="M0 -2L1.7 -1L1.7 1L0 2L-1.7 1L-1.7 -1Z" stroke="#ff341a" fill="none" stroke-width="1"></path></g><g transform="translate(810 353)"><path d="M0 -9L7.8 -4.5L7.8 4.5L0 9L-7.8 4.5L-7.8 -4.5Z" stroke="#ff341a" fill="none" stroke-width="1"></path></g><g transform="translate(370 53)"><path d="M0 -5L4.3 -2.5L4.3 2.5L0 5L-4.3 2.5L-4.3 -2.5Z" stroke="#ff341a" fill="none" stroke-width="1"></path></g><g transform="translate(428 103)"><path d="M0 -9L7.8 -4.5L7.8 4.5L0 9L-7.8 4.5L-7.8 -4.5Z" stroke="#ff341a" fill="none" stroke-width="1"></path></g><g transform="translate(292 28)"><path d="M0 -2L1.7 -1L1.7 1L0 2L-1.7 1L-1.7 -1Z" stroke="#ff341a" fill="none" stroke-width="1"></path></g><g transform="translate(390 370)"><path d="M0 -7L6.1 -3.5L6.1 3.5L0 7L-6.1 3.5L-6.1 -3.5Z" stroke="#ff341a" fill="none" stroke-width="1"></path></g><g transform="translate(18 194)"><path d="M0 -11L9.5 -5.5L9.5 5.5L0 11L-9.5 5.5L-9.5 -5.5Z" stroke="#ff341a" fill="none" stroke-width="1"></path></g><g transform="translate(878 588)"><path d="M0 -7L6.1 -3.5L6.1 3.5L0 7L-6.1 3.5L-6.1 -3.5Z" stroke="#ff341a" fill="none" stroke-width="1"></path></g><g transform="translate(270 359)"><path d="M0 -5L4.3 -2.5L4.3 2.5L0 5L-4.3 2.5L-4.3 -2.5Z" stroke="#ff341a" fill="none" stroke-width="1"></path></g><g transform="translate(10 371)"><path d="M0 -11L9.5 -5.5L9.5 5.5L0 11L-9.5 5.5L-9.5 -5.5Z" stroke="#ff341a" fill="none" stroke-width="1"></path></g><g transform="translate(195 575)"><path d="M0 -11L9.5 -5.5L9.5 5.5L0 11L-9.5 5.5L-9.5 -5.5Z" stroke="#ff341a" fill="none" stroke-width="1"></path></g><g transform="translate(137 217)"><path d="M0 -11L9.5 -5.5L9.5 5.5L0 11L-9.5 5.5L-9.5 -5.5Z" stroke="#ff341a" fill="none" stroke-width="1"></path></g><g transform="translate(172 369)"><path d="M0 -5L4.3 -2.5L4.3 2.5L0 5L-4.3 2.5L-4.3 -2.5Z" stroke="#ff341a" fill="none" stroke-width="1"></path></g><g transform="translate(569 201)"><path d="M0 -1L0.9 -0.5L0.9 0.5L0 1L-0.9 0.5L-0.9 -0.5Z" stroke="#ff341a" fill="none" stroke-width="1"></path></g><g transform="translate(198 55)"><path d="M0 -3L2.6 -1.5L2.6 1.5L0 3L-2.6 1.5L-2.6 -1.5Z" stroke="#ff341a" fill="none" stroke-width="1"></path></g><g transform="translate(323 367)"><path d="M0 -2L1.7 -1L1.7 1L0 2L-1.7 1L-1.7 -1Z" stroke="#ff341a" fill="none" stroke-width="1"></path></g><g transform="translate(220 448)"><path d="M0 -9L7.8 -4.5L7.8 4.5L0 9L-7.8 4.5L-7.8 -4.5Z" stroke="#ff341a" fill="none" stroke-width="1"></path></g><g transform="translate(417 550)"><path d="M0 -4L3.5 -2L3.5 2L0 4L-3.5 2L-3.5 -2Z" stroke="#ff341a" fill="none" stroke-width="1"></path></g><g transform="translate(226 328)"><path d="M0 -11L9.5 -5.5L9.5 5.5L0 11L-9.5 5.5L-9.5 -5.5Z" stroke="#ff341a" fill="none" stroke-width="1"></path></g><g transform="translate(672 116)"><path d="M0 -11L9.5 -5.5L9.5 5.5L0 11L-9.5 5.5L-9.5 -5.5Z" stroke="#ff341a" fill="none" stroke-width="1"></path></g><g transform="translate(102 473)"><path d="M0 -7L6.1 -3.5L6.1 3.5L0 7L-6.1 3.5L-6.1 -3.5Z" stroke="#ff341a" fill="none" stroke-width="1"></path></g><g transform="translate(839 537)"><path d="M0 -3L2.6 -1.5L2.6 1.5L0 3L-2.6 1.5L-2.6 -1.5Z" stroke="#ff341a" fill="none" stroke-width="1"></path></g><g transform="translate(72 494)"><path d="M0 -2L1.7 -1L1.7 1L0 2L-1.7 1L-1.7 -1Z" stroke="#ff341a" fill="none" stroke-width="1"></path></g><g transform="translate(464 237)"><path d="M0 -9L7.8 -4.5L7.8 4.5L0 9L-7.8 4.5L-7.8 -4.5Z" stroke="#ff341a" fill="none" stroke-width="1"></path></g><g transform="translate(545 182)"><path d="M0 -3L2.6 -1.5L2.6 1.5L0 3L-2.6 1.5L-2.6 -1.5Z" stroke="#ff341a" fill="none" stroke-width="1"></path></g><g transform="translate(97 187)"><path d="M0 -5L4.3 -2.5L4.3 2.5L0 5L-4.3 2.5L-4.3 -2.5Z" stroke="#ff341a" fill="none" stroke-width="1"></path></g><g transform="translate(403 326)"><path d="M0 -6L5.2 -3L5.2 3L0 6L-5.2 3L-5.2 -3Z" stroke="#ff341a" fill="none" stroke-width="1"></path></g><g transform="translate(837 272)"><path d="M0 -6L5.2 -3L5.2 3L0 6L-5.2 3L-5.2 -3Z" stroke="#ff341a" fill="none" stroke-width="1"></path></g><g transform="translate(124 148)"><path d="M0 -2L1.7 -1L1.7 1L0 2L-1.7 1L-1.7 -1Z" stroke="#ff341a" fill="none" stroke-width="1"></path></g><g transform="translate(564 360)"><path d="M0 -8L6.9 -4L6.9 4L0 8L-6.9 4L-6.9 -4Z" stroke="#ff341a" fill="none" stroke-width="1"></path></g><g transform="translate(859 106)"><path d="M0 -8L6.9 -4L6.9 4L0 8L-6.9 4L-6.9 -4Z" stroke="#ff341a" fill="none" stroke-width="1"></path></g><g transform="translate(413 207)"><path d="M0 -9L7.8 -4.5L7.8 4.5L0 9L-7.8 4.5L-7.8 -4.5Z" stroke="#ff341a" fill="none" stroke-width="1"></path></g><g transform="translate(9 440)"><path d="M0 -6L5.2 -3L5.2 3L0 6L-5.2 3L-5.2 -3Z" stroke="#ff341a" fill="none" stroke-width="1"></path></g><g transform="translate(185 313)"><path d="M0 -10L8.7 -5L8.7 5L0 10L-8.7 5L-8.7 -5Z" stroke="#ff341a" fill="none" stroke-width="1"></path></g><g transform="translate(602 178)"><path d="M0 -6L5.2 -3L5.2 3L0 6L-5.2 3L-5.2 -3Z" stroke="#ff341a" fill="none" stroke-width="1"></path></g><g transform="translate(172 121)"><path d="M0 -3L2.6 -1.5L2.6 1.5L0 3L-2.6 1.5L-2.6 -1.5Z" stroke="#ff341a" fill="none" stroke-width="1"></path></g><g transform="translate(677 228)"><path d="M0 -2L1.7 -1L1.7 1L0 2L-1.7 1L-1.7 -1Z" stroke="#ff341a" fill="none" stroke-width="1"></path></g><g transform="translate(289 570)"><path d="M0 -12L10.4 -6L10.4 6L0 12L-10.4 6L-10.4 -6Z" stroke="#ff341a" fill="none" stroke-width="1"></path></g><g transform="translate(365 578)"><path d="M0 -6L5.2 -3L5.2 3L0 6L-5.2 3L-5.2 -3Z" stroke="#ff341a" fill="none" stroke-width="1"></path></g><g transform="translate(525 517)"><path d="M0 -3L2.6 -1.5L2.6 1.5L0 3L-2.6 1.5L-2.6 -1.5Z" stroke="#ff341a" fill="none" stroke-width="1"></path></g><g transform="translate(446 458)"><path d="M0 -9L7.8 -4.5L7.8 4.5L0 9L-7.8 4.5L-7.8 -4.5Z" stroke="#ff341a" fill="none" stroke-width="1"></path></g><g transform="translate(156 72)"><path d="M0 -1L0.9 -0.5L0.9 0.5L0 1L-0.9 0.5L-0.9 -0.5Z" stroke="#ff341a" fill="none" stroke-width="1"></path></g><g transform="translate(535 34)"><path d="M0 -12L10.4 -6L10.4 6L0 12L-10.4 6L-10.4 -6Z" stroke="#ff341a" fill="none" stroke-width="1"></path></g><g transform="translate(416 42)"><path d="M0 -4L3.5 -2L3.5 2L0 4L-3.5 2L-3.5 -2Z" stroke="#ff341a" fill="none" stroke-width="1"></path></g><g transform="translate(185 18)"><path d="M0 -6L5.2 -3L5.2 3L0 6L-5.2 3L-5.2 -3Z" stroke="#ff341a" fill="none" stroke-width="1"></path></g><g transform="translate(117 325)"><path d="M0 -12L10.4 -6L10.4 6L0 12L-10.4 6L-10.4 -6Z" stroke="#ff341a" fill="none" stroke-width="1"></path></g><g transform="translate(313 95)"><path d="M0 -2L1.7 -1L1.7 1L0 2L-1.7 1L-1.7 -1Z" stroke="#ff341a" fill="none" stroke-width="1"></path></g><g transform="translate(837 243)"><path d="M0 -10L8.7 -5L8.7 5L0 10L-8.7 5L-8.7 -5Z" stroke="#ff341a" fill="none" stroke-width="1"></path></g><g transform="translate(58 348)"><path d="M0 -5L4.3 -2.5L4.3 2.5L0 5L-4.3 2.5L-4.3 -2.5Z" stroke="#ff341a" fill="none" stroke-width="1"></path></g><g transform="translate(17 81)"><path d="M0 -7L6.1 -3.5L6.1 3.5L0 7L-6.1 3.5L-6.1 -3.5Z" stroke="#ff341a" fill="none" stroke-width="1"></path></g><g transform="translate(523 412)"><path d="M0 -10L8.7 -5L8.7 5L0 10L-8.7 5L-8.7 -5Z" stroke="#ff341a" fill="none" stroke-width="1"></path></g><g transform="translate(128 517)"><path d="M0 -2L1.7 -1L1.7 1L0 2L-1.7 1L-1.7 -1Z" stroke="#ff341a" fill="none" stroke-width="1"></path></g><g transform="translate(517 293)"><path d="M0 -11L9.5 -5.5L9.5 5.5L0 11L-9.5 5.5L-9.5 -5.5Z" stroke="#ff341a" fill="none" stroke-width="1"></path></g><g transform="translate(506 34)"><path d="M0 -3L2.6 -1.5L2.6 1.5L0 3L-2.6 1.5L-2.6 -1.5Z" stroke="#ff341a" fill="none" stroke-width="1"></path></g><g transform="translate(629 129)"><path d="M0 -12L10.4 -6L10.4 6L0 12L-10.4 6L-10.4 -6Z" stroke="#ff341a" fill="none" stroke-width="1"></path></g><g transform="translate(657 305)"><path d="M0 -2L1.7 -1L1.7 1L0 2L-1.7 1L-1.7 -1Z" stroke="#ff341a" fill="none" stroke-width="1"></path></g><g transform="translate(446 314)"><path d="M0 -2L1.7 -1L1.7 1L0 2L-1.7 1L-1.7 -1Z" stroke="#ff341a" fill="none" stroke-width="1"></path></g><g transform="translate(44 157)"><path d="M0 -6L5.2 -3L5.2 3L0 6L-5.2 3L-5.2 -3Z" stroke="#ff341a" fill="none" stroke-width="1"></path></g><g transform="translate(421 585)"><path d="M0 -8L6.9 -4L6.9 4L0 8L-6.9 4L-6.9 -4Z" stroke="#ff341a" fill="none" stroke-width="1"></path></g><g transform="translate(277 205)"><path d="M0 -10L8.7 -5L8.7 5L0 10L-8.7 5L-8.7 -5Z" stroke="#ff341a" fill="none" stroke-width="1"></path></g><g transform="translate(635 185)"><path d="M0 -5L4.3 -2.5L4.3 2.5L0 5L-4.3 2.5L-4.3 -2.5Z" stroke="#ff341a" fill="none" stroke-width="1"></path></g><g transform="translate(663 520)"><path d="M0 -3L2.6 -1.5L2.6 1.5L0 3L-2.6 1.5L-2.6 -1.5Z" stroke="#ff341a" fill="none" stroke-width="1"></path></g><g transform="translate(497 487)"><path d="M0 -5L4.3 -2.5L4.3 2.5L0 5L-4.3 2.5L-4.3 -2.5Z" stroke="#ff341a" fill="none" stroke-width="1"></path></g><g transform="translate(167 596)"><path d="M0 -9L7.8 -4.5L7.8 4.5L0 9L-7.8 4.5L-7.8 -4.5Z" stroke="#ff341a" fill="none" stroke-width="1"></path></g><g transform="translate(732 270)"><path d="M0 -10L8.7 -5L8.7 5L0 10L-8.7 5L-8.7 -5Z" stroke="#ff341a" fill="none" stroke-width="1"></path></g><g transform="translate(560 105)"><path d="M0 -11L9.5 -5.5L9.5 5.5L0 11L-9.5 5.5L-9.5 -5.5Z" stroke="#ff341a" fill="none" stroke-width="1"></path></g><g transform="translate(584 434)"><path d="M0 -9L7.8 -4.5L7.8 4.5L0 9L-7.8 4.5L-7.8 -4.5Z" stroke="#ff341a" fill="none" stroke-width="1"></path></g><g transform="translate(166 545)"><path d="M0 -9L7.8 -4.5L7.8 4.5L0 9L-7.8 4.5L-7.8 -4.5Z" stroke="#ff341a" fill="none" stroke-width="1"></path></g><g transform="translate(528 440)"><path d="M0 -1L0.9 -0.5L0.9 0.5L0 1L-0.9 0.5L-0.9 -0.5Z" stroke="#ff341a" fill="none" stroke-width="1"></path></g><g transform="translate(470 548)"><path d="M0 -9L7.8 -4.5L7.8 4.5L0 9L-7.8 4.5L-7.8 -4.5Z" stroke="#ff341a" fill="none" stroke-width="1"></path></g><g transform="translate(38 551)"><path d="M0 -5L4.3 -2.5L4.3 2.5L0 5L-4.3 2.5L-4.3 -2.5Z" stroke="#ff341a" fill="none" stroke-width="1"></path></g><g transform="translate(771 208)"><path d="M0 -9L7.8 -4.5L7.8 4.5L0 9L-7.8 4.5L-7.8 -4.5Z" stroke="#ff341a" fill="none" stroke-width="1"></path></g><g transform="translate(563 239)"><path d="M0 -9L7.8 -4.5L7.8 4.5L0 9L-7.8 4.5L-7.8 -4.5Z" stroke="#ff341a" fill="none" stroke-width="1"></path></g><g transform="translate(691 251)"><path d="M0 -11L9.5 -5.5L9.5 5.5L0 11L-9.5 5.5L-9.5 -5.5Z" stroke="#ff341a" fill="none" stroke-width="1"></path></g><g transform="translate(279 238)"><path d="M0 -11L9.5 -5.5L9.5 5.5L0 11L-9.5 5.5L-9.5 -5.5Z" stroke="#ff341a" fill="none" stroke-width="1"></path></g><g transform="translate(880 88)"><path d="M0 -5L4.3 -2.5L4.3 2.5L0 5L-4.3 2.5L-4.3 -2.5Z" stroke="#ff341a" fill="none" stroke-width="1"></path></g><g transform="translate(502 111)"><path d="M0 -11L9.5 -5.5L9.5 5.5L0 11L-9.5 5.5L-9.5 -5.5Z" stroke="#ff341a" fill="none" stroke-width="1"></path></g><g transform="translate(750 250)"><path d="M0 -6L5.2 -3L5.2 3L0 6L-5.2 3L-5.2 -3Z" stroke="#ff341a" fill="none" stroke-width="1"></path></g><g transform="translate(883 295)"><path d="M0 -4L3.5 -2L3.5 2L0 4L-3.5 2L-3.5 -2Z" stroke="#ff341a" fill="none" stroke-width="1"></path></g><g transform="translate(315 593)"><path d="M0 -8L6.9 -4L6.9 4L0 8L-6.9 4L-6.9 -4Z" stroke="#ff341a" fill="none" stroke-width="1"></path></g><g transform="translate(857 57)"><path d="M0 -3L2.6 -1.5L2.6 1.5L0 3L-2.6 1.5L-2.6 -1.5Z" stroke="#ff341a" fill="none" stroke-width="1"></path></g><g transform="translate(448 593)"><path d="M0 -3L2.6 -1.5L2.6 1.5L0 3L-2.6 1.5L-2.6 -1.5Z" stroke="#ff341a" fill="none" stroke-width="1"></path></g><g transform="translate(86 143)"><path d="M0 -7L6.1 -3.5L6.1 3.5L0 7L-6.1 3.5L-6.1 -3.5Z" stroke="#ff341a" fill="none" stroke-width="1"></path></g><g transform="translate(896 354)"><path d="M0 -9L7.8 -4.5L7.8 4.5L0 9L-7.8 4.5L-7.8 -4.5Z" stroke="#ff341a" fill="none" stroke-width="1"></path></g><g transform="translate(405 483)"><path d="M0 -5L4.3 -2.5L4.3 2.5L0 5L-4.3 2.5L-4.3 -2.5Z" stroke="#ff341a" fill="none" stroke-width="1"></path></g><g transform="translate(646 214)"><path d="M0 -11L9.5 -5.5L9.5 5.5L0 11L-9.5 5.5L-9.5 -5.5Z" stroke="#ff341a" fill="none" stroke-width="1"></path></g><g transform="translate(822 174)"><path d="M0 -1L0.9 -0.5L0.9 0.5L0 1L-0.9 0.5L-0.9 -0.5Z" stroke="#ff341a" fill="none" stroke-width="1"></path></g><g transform="translate(873 194)"><path d="M0 -12L10.4 -6L10.4 6L0 12L-10.4 6L-10.4 -6Z" stroke="#ff341a" fill="none" stroke-width="1"></path></g><g transform="translate(359 117)"><path d="M0 -11L9.5 -5.5L9.5 5.5L0 11L-9.5 5.5L-9.5 -5.5Z" stroke="#ff341a" fill="none" stroke-width="1"></path></g><g transform="translate(475 125)"><path d="M0 -5L4.3 -2.5L4.3 2.5L0 5L-4.3 2.5L-4.3 -2.5Z" stroke="#ff341a" fill="none" stroke-width="1"></path></g><g transform="translate(691 397)"><path d="M0 -6L5.2 -3L5.2 3L0 6L-5.2 3L-5.2 -3Z" stroke="#ff341a" fill="none" stroke-width="1"></path></g><g transform="translate(189 411)"><path d="M0 -4L3.5 -2L3.5 2L0 4L-3.5 2L-3.5 -2Z" stroke="#ff341a" fill="none" stroke-width="1"></path></g><g transform="translate(741 585)"><path d="M0 -9L7.8 -4.5L7.8 4.5L0 9L-7.8 4.5L-7.8 -4.5Z" stroke="#ff341a" fill="none" stroke-width="1"></path></g><g transform="translate(41 513)"><path d="M0 -5L4.3 -2.5L4.3 2.5L0 5L-4.3 2.5L-4.3 -2.5Z" stroke="#ff341a" fill="none" stroke-width="1"></path></g><g transform="translate(598 297)"><path d="M0 -12L10.4 -6L10.4 6L0 12L-10.4 6L-10.4 -6Z" stroke="#ff341a" fill="none" stroke-width="1"></path></g><g transform="translate(642 402)"><path d="M0 -9L7.8 -4.5L7.8 4.5L0 9L-7.8 4.5L-7.8 -4.5Z" stroke="#ff341a" fill="none" stroke-width="1"></path></g><g transform="translate(855 170)"><path d="M0 -12L10.4 -6L10.4 6L0 12L-10.4 6L-10.4 -6Z" stroke="#ff341a" fill="none" stroke-width="1"></path></g><g transform="translate(706 526)"><path d="M0 -8L6.9 -4L6.9 4L0 8L-6.9 4L-6.9 -4Z" stroke="#ff341a" fill="none" stroke-width="1"></path></g><g transform="translate(270 305)"><path d="M0 -10L8.7 -5L8.7 5L0 10L-8.7 5L-8.7 -5Z" stroke="#ff341a" fill="none" stroke-width="1"></path></g><g transform="translate(400 296)"><path d="M0 -4L3.5 -2L3.5 2L0 4L-3.5 2L-3.5 -2Z" stroke="#ff341a" fill="none" stroke-width="1"></path></g><g transform="translate(397 132)"><path d="M0 -4L3.5 -2L3.5 2L0 4L-3.5 2L-3.5 -2Z" stroke="#ff341a" fill="none" stroke-width="1"></path></g><g transform="translate(713 289)"><path d="M0 -7L6.1 -3.5L6.1 3.5L0 7L-6.1 3.5L-6.1 -3.5Z" stroke="#ff341a" fill="none" stroke-width="1"></path></g><g transform="translate(412 256)"><path d="M0 -7L6.1 -3.5L6.1 3.5L0 7L-6.1 3.5L-6.1 -3.5Z" stroke="#ff341a" fill="none" stroke-width="1"></path></g><g transform="translate(315 68)"><path d="M0 -1L0.9 -0.5L0.9 0.5L0 1L-0.9 0.5L-0.9 -0.5Z" stroke="#ff341a" fill="none" stroke-width="1"></path></g><g transform="translate(785 553)"><path d="M0 -7L6.1 -3.5L6.1 3.5L0 7L-6.1 3.5L-6.1 -3.5Z" stroke="#ff341a" fill="none" stroke-width="1"></path></g><g transform="translate(355 419)"><path d="M0 -1L0.9 -0.5L0.9 0.5L0 1L-0.9 0.5L-0.9 -0.5Z" stroke="#ff341a" fill="none" stroke-width="1"></path></g><g transform="translate(594 570)"><path d="M0 -6L5.2 -3L5.2 3L0 6L-5.2 3L-5.2 -3Z" stroke="#ff341a" fill="none" stroke-width="1"></path></g><g transform="translate(601 507)"><path d="M0 -5L4.3 -2.5L4.3 2.5L0 5L-4.3 2.5L-4.3 -2.5Z" stroke="#ff341a" fill="none" stroke-width="1"></path></g><g transform="translate(744 547)"><path d="M0 -8L6.9 -4L6.9 4L0 8L-6.9 4L-6.9 -4Z" stroke="#ff341a" fill="none" stroke-width="1"></path></g><g transform="translate(262 118)"><path d="M0 -11L9.5 -5.5L9.5 5.5L0 11L-9.5 5.5L-9.5 -5.5Z" stroke="#ff341a" fill="none" stroke-width="1"></path></g><g transform="translate(144 275)"><path d="M0 -4L3.5 -2L3.5 2L0 4L-3.5 2L-3.5 -2Z" stroke="#ff341a" fill="none" stroke-width="1"></path></g><g transform="translate(22 583)"><path d="M0 -7L6.1 -3.5L6.1 3.5L0 7L-6.1 3.5L-6.1 -3.5Z" stroke="#ff341a" fill="none" stroke-width="1"></path></g><g transform="translate(617 41)"><path d="M0 -11L9.5 -5.5L9.5 5.5L0 11L-9.5 5.5L-9.5 -5.5Z" stroke="#ff341a" fill="none" stroke-width="1"></path></g><g transform="translate(187 466)"><path d="M0 -3L2.6 -1.5L2.6 1.5L0 3L-2.6 1.5L-2.6 -1.5Z" stroke="#ff341a" fill="none" stroke-width="1"></path></g><g transform="translate(22 119)"><path d="M0 -6L5.2 -3L5.2 3L0 6L-5.2 3L-5.2 -3Z" stroke="#ff341a" fill="none" stroke-width="1"></path></g><g transform="translate(87 517)"><path d="M0 -1L0.9 -0.5L0.9 0.5L0 1L-0.9 0.5L-0.9 -0.5Z" stroke="#ff341a" fill="none" stroke-width="1"></path></g><g transform="translate(685 141)"><path d="M0 -3L2.6 -1.5L2.6 1.5L0 3L-2.6 1.5L-2.6 -1.5Z" stroke="#ff341a" fill="none" stroke-width="1"></path></g><g transform="translate(336 255)"><path d="M0 -1L0.9 -0.5L0.9 0.5L0 1L-0.9 0.5L-0.9 -0.5Z" stroke="#ff341a" fill="none" stroke-width="1"></path></g><g transform="translate(271 493)"><path d="M0 -8L6.9 -4L6.9 4L0 8L-6.9 4L-6.9 -4Z" stroke="#ff341a" fill="none" stroke-width="1"></path></g><g transform="translate(765 58)"><path d="M0 -1L0.9 -0.5L0.9 0.5L0 1L-0.9 0.5L-0.9 -0.5Z" stroke="#ff341a" fill="none" stroke-width="1"></path></g><g transform="translate(738 429)"><path d="M0 -8L6.9 -4L6.9 4L0 8L-6.9 4L-6.9 -4Z" stroke="#ff341a" fill="none" stroke-width="1"></path></g><g transform="translate(668 454)"><path d="M0 -4L3.5 -2L3.5 2L0 4L-3.5 2L-3.5 -2Z" stroke="#ff341a" fill="none" stroke-width="1"></path></g><g transform="translate(298 326)"><path d="M0 -8L6.9 -4L6.9 4L0 8L-6.9 4L-6.9 -4Z" stroke="#ff341a" fill="none" stroke-width="1"></path></g><g transform="translate(155 392)"><path d="M0 -4L3.5 -2L3.5 2L0 4L-3.5 2L-3.5 -2Z" stroke="#ff341a" fill="none" stroke-width="1"></path></g><g transform="translate(452 409)"><path d="M0 -11L9.5 -5.5L9.5 5.5L0 11L-9.5 5.5L-9.5 -5.5Z" stroke="#ff341a" fill="none" stroke-width="1"></path></g><g transform="translate(697 313)"><path d="M0 -11L9.5 -5.5L9.5 5.5L0 11L-9.5 5.5L-9.5 -5.5Z" stroke="#ff341a" fill="none" stroke-width="1"></path></g><g transform="translate(73 272)"><path d="M0 -11L9.5 -5.5L9.5 5.5L0 11L-9.5 5.5L-9.5 -5.5Z" stroke="#ff341a" fill="none" stroke-width="1"></path></g><g transform="translate(40 287)"><path d="M0 -5L4.3 -2.5L4.3 2.5L0 5L-4.3 2.5L-4.3 -2.5Z" stroke="#ff341a" fill="none" stroke-width="1"></path></g><g transform="translate(331 120)"><path d="M0 -7L6.1 -3.5L6.1 3.5L0 7L-6.1 3.5L-6.1 -3.5Z" stroke="#ff341a" fill="none" stroke-width="1"></path></g><g transform="translate(441 174)"><path d="M0 -7L6.1 -3.5L6.1 3.5L0 7L-6.1 3.5L-6.1 -3.5Z" stroke="#ff341a" fill="none" stroke-width="1"></path></g><g transform="translate(236 354)"><path d="M0 -9L7.8 -4.5L7.8 4.5L0 9L-7.8 4.5L-7.8 -4.5Z" stroke="#ff341a" fill="none" stroke-width="1"></path></g><g transform="translate(571 492)"><path d="M0 -4L3.5 -2L3.5 2L0 4L-3.5 2L-3.5 -2Z" stroke="#ff341a" fill="none" stroke-width="1"></path></g><g transform="translate(660 337)"><path d="M0 -6L5.2 -3L5.2 3L0 6L-5.2 3L-5.2 -3Z" stroke="#ff341a" fill="none" stroke-width="1"></path></g><g transform="translate(783 343)"><path d="M0 -3L2.6 -1.5L2.6 1.5L0 3L-2.6 1.5L-2.6 -1.5Z" stroke="#ff341a" fill="none" stroke-width="1"></path></g><g transform="translate(383 402)"><path d="M0 -3L2.6 -1.5L2.6 1.5L0 3L-2.6 1.5L-2.6 -1.5Z" stroke="#ff341a" fill="none" stroke-width="1"></path></g><g transform="translate(744 78)"><path d="M0 -4L3.5 -2L3.5 2L0 4L-3.5 2L-3.5 -2Z" stroke="#ff341a" fill="none" stroke-width="1"></path></g><g transform="translate(358 2)"><path d="M0 -2L1.7 -1L1.7 1L0 2L-1.7 1L-1.7 -1Z" stroke="#ff341a" fill="none" stroke-width="1"></path></g><g transform="translate(633 487)"><path d="M0 -12L10.4 -6L10.4 6L0 12L-10.4 6L-10.4 -6Z" stroke="#ff341a" fill="none" stroke-width="1"></path></g><g transform="translate(486 399)"><path d="M0 -6L5.2 -3L5.2 3L0 6L-5.2 3L-5.2 -3Z" stroke="#ff341a" fill="none" stroke-width="1"></path></g><g transform="translate(164 484)"><path d="M0 -5L4.3 -2.5L4.3 2.5L0 5L-4.3 2.5L-4.3 -2.5Z" stroke="#ff341a" fill="none" stroke-width="1"></path></g><g transform="translate(804 324)"><path d="M0 -7L6.1 -3.5L6.1 3.5L0 7L-6.1 3.5L-6.1 -3.5Z" stroke="#ff341a" fill="none" stroke-width="1"></path></g><g transform="translate(734 314)"><path d="M0 -11L9.5 -5.5L9.5 5.5L0 11L-9.5 5.5L-9.5 -5.5Z" stroke="#ff341a" fill="none" stroke-width="1"></path></g><g transform="translate(5 291)"><path d="M0 -5L4.3 -2.5L4.3 2.5L0 5L-4.3 2.5L-4.3 -2.5Z" stroke="#ff341a" fill="none" stroke-width="1"></path></g><g transform="translate(8 402)"><path d="M0 -1L0.9 -0.5L0.9 0.5L0 1L-0.9 0.5L-0.9 -0.5Z" stroke="#ff341a" fill="none" stroke-width="1"></path></g><g transform="translate(284 381)"><path d="M0 -10L8.7 -5L8.7 5L0 10L-8.7 5L-8.7 -5Z" stroke="#ff341a" fill="none" stroke-width="1"></path></g><g transform="translate(788 390)"><path d="M0 -1L0.9 -0.5L0.9 0.5L0 1L-0.9 0.5L-0.9 -0.5Z" stroke="#ff341a" fill="none" stroke-width="1"></path></g><g transform="translate(814 9)"><path d="M0 -2L1.7 -1L1.7 1L0 2L-1.7 1L-1.7 -1Z" stroke="#ff341a" fill="none" stroke-width="1"></path></g><g transform="translate(260 268)"><path d="M0 -10L8.7 -5L8.7 5L0 10L-8.7 5L-8.7 -5Z" stroke="#ff341a" fill="none" stroke-width="1"></path></g><g transform="translate(123 489)"><path d="M0 -6L5.2 -3L5.2 3L0 6L-5.2 3L-5.2 -3Z" stroke="#ff341a" fill="none" stroke-width="1"></path></g><g transform="translate(113 399)"><path d="M0 -12L10.4 -6L10.4 6L0 12L-10.4 6L-10.4 -6Z" stroke="#ff341a" fill="none" stroke-width="1"></path></g><g transform="translate(567 14)"><path d="M0 -2L1.7 -1L1.7 1L0 2L-1.7 1L-1.7 -1Z" stroke="#ff341a" fill="none" stroke-width="1"></path></g><g transform="translate(5 324)"><path d="M0 -3L2.6 -1.5L2.6 1.5L0 3L-2.6 1.5L-2.6 -1.5Z" stroke="#ff341a" fill="none" stroke-width="1"></path></g><g transform="translate(7 21)"><path d="M0 -10L8.7 -5L8.7 5L0 10L-8.7 5L-8.7 -5Z" stroke="#ff341a" fill="none" stroke-width="1"></path></g><g transform="translate(884 534)"><path d="M0 -5L4.3 -2.5L4.3 2.5L0 5L-4.3 2.5L-4.3 -2.5Z" stroke="#ff341a" fill="none" stroke-width="1"></path></g><g transform="translate(184 277)"><path d="M0 -4L3.5 -2L3.5 2L0 4L-3.5 2L-3.5 -2Z" stroke="#ff341a" fill="none" stroke-width="1"></path></g><g transform="translate(117 435)"><path d="M0 -4L3.5 -2L3.5 2L0 4L-3.5 2L-3.5 -2Z" stroke="#ff341a" fill="none" stroke-width="1"></path></g><g transform="translate(353 445)"><path d="M0 -12L10.4 -6L10.4 6L0 12L-10.4 6L-10.4 -6Z" stroke="#ff341a" fill="none" stroke-width="1"></path></g><g transform="translate(105 265)"><path d="M0 -7L6.1 -3.5L6.1 3.5L0 7L-6.1 3.5L-6.1 -3.5Z" stroke="#ff341a" fill="none" stroke-width="1"></path></g><g transform="translate(344 229)"><path d="M0 -1L0.9 -0.5L0.9 0.5L0 1L-0.9 0.5L-0.9 -0.5Z" stroke="#ff341a" fill="none" stroke-width="1"></path></g><g transform="translate(633 329)"><path d="M0 -1L0.9 -0.5L0.9 0.5L0 1L-0.9 0.5L-0.9 -0.5Z" stroke="#ff341a" fill="none" stroke-width="1"></path></g><g transform="translate(862 428)"><path d="M0 -9L7.8 -4.5L7.8 4.5L0 9L-7.8 4.5L-7.8 -4.5Z" stroke="#ff341a" fill="none" stroke-width="1"></path></g><g transform="translate(446 257)"><path d="M0 -1L0.9 -0.5L0.9 0.5L0 1L-0.9 0.5L-0.9 -0.5Z" stroke="#ff341a" fill="none" stroke-width="1"></path></g><g transform="translate(588 399)"><path d="M0 -8L6.9 -4L6.9 4L0 8L-6.9 4L-6.9 -4Z" stroke="#ff341a" fill="none" stroke-width="1"></path></g><g transform="translate(627 598)"><path d="M0 -3L2.6 -1.5L2.6 1.5L0 3L-2.6 1.5L-2.6 -1.5Z" stroke="#ff341a" fill="none" stroke-width="1"></path></g><g transform="translate(71 542)"><path d="M0 -7L6.1 -3.5L6.1 3.5L0 7L-6.1 3.5L-6.1 -3.5Z" stroke="#ff341a" fill="none" stroke-width="1"></path></g><g transform="translate(658 566)"><path d="M0 -6L5.2 -3L5.2 3L0 6L-5.2 3L-5.2 -3Z" stroke="#ff341a" fill="none" stroke-width="1"></path></g><g transform="translate(675 191)"><path d="M0 -2L1.7 -1L1.7 1L0 2L-1.7 1L-1.7 -1Z" stroke="#ff341a" fill="none" stroke-width="1"></path></g><g transform="translate(110 213)"><path d="M0 -9L7.8 -4.5L7.8 4.5L0 9L-7.8 4.5L-7.8 -4.5Z" stroke="#ff341a" fill="none" stroke-width="1"></path></g><g transform="translate(321 451)"><path d="M0 -1L0.9 -0.5L0.9 0.5L0 1L-0.9 0.5L-0.9 -0.5Z" stroke="#ff341a" fill="none" stroke-width="1"></path></g><g transform="translate(251 527)"><path d="M0 -7L6.1 -3.5L6.1 3.5L0 7L-6.1 3.5L-6.1 -3.5Z" stroke="#ff341a" fill="none" stroke-width="1"></path></g><g transform="translate(487 265)"><path d="M0 -6L5.2 -3L5.2 3L0 6L-5.2 3L-5.2 -3Z" stroke="#ff341a" fill="none" stroke-width="1"></path></g><g transform="translate(113 361)"><path d="M0 -2L1.7 -1L1.7 1L0 2L-1.7 1L-1.7 -1Z" stroke="#ff341a" fill="none" stroke-width="1"></path></g><g transform="translate(357 83)"><path d="M0 -2L1.7 -1L1.7 1L0 2L-1.7 1L-1.7 -1Z" stroke="#ff341a" fill="none" stroke-width="1"></path></g><g transform="translate(401 4)"><path d="M0 -2L1.7 -1L1.7 1L0 2L-1.7 1L-1.7 -1Z" stroke="#ff341a" fill="none" stroke-width="1"></path></g><g transform="translate(781 131)"><path d="M0 -7L6.1 -3.5L6.1 3.5L0 7L-6.1 3.5L-6.1 -3.5Z" stroke="#ff341a" fill="none" stroke-width="1"></path></g><g transform="translate(754 480)"><path d="M0 -12L10.4 -6L10.4 6L0 12L-10.4 6L-10.4 -6Z" stroke="#ff341a" fill="none" stroke-width="1"></path></g><g transform="translate(674 480)"><path d="M0 -3L2.6 -1.5L2.6 1.5L0 3L-2.6 1.5L-2.6 -1.5Z" stroke="#ff341a" fill="none" stroke-width="1"></path></g><g transform="translate(246 239)"><path d="M0 -3L2.6 -1.5L2.6 1.5L0 3L-2.6 1.5L-2.6 -1.5Z" stroke="#ff341a" fill="none" stroke-width="1"></path></g><g transform="translate(589 336)"><path d="M0 -7L6.1 -3.5L6.1 3.5L0 7L-6.1 3.5L-6.1 -3.5Z" stroke="#ff341a" fill="none" stroke-width="1"></path></g><g transform="translate(893 441)"><path d="M0 -7L6.1 -3.5L6.1 3.5L0 7L-6.1 3.5L-6.1 -3.5Z" stroke="#ff341a" fill="none" stroke-width="1"></path></g><g transform="translate(886 121)"><path d="M0 -3L2.6 -1.5L2.6 1.5L0 3L-2.6 1.5L-2.6 -1.5Z" stroke="#ff341a" fill="none" stroke-width="1"></path></g><g transform="translate(448 126)"><path d="M0 -6L5.2 -3L5.2 3L0 6L-5.2 3L-5.2 -3Z" stroke="#ff341a" fill="none" stroke-width="1"></path></g><g transform="translate(884 326)"><path d="M0 -1L0.9 -0.5L0.9 0.5L0 1L-0.9 0.5L-0.9 -0.5Z" stroke="#ff341a" fill="none" stroke-width="1"></path></g><g transform="translate(887 2)"><path d="M0 -12L10.4 -6L10.4 6L0 12L-10.4 6L-10.4 -6Z" stroke="#ff341a" fill="none" stroke-width="1"></path></g><g transform="translate(847 297)"><path d="M0 -9L7.8 -4.5L7.8 4.5L0 9L-7.8 4.5L-7.8 -4.5Z" stroke="#ff341a" fill="none" stroke-width="1"></path></g><g transform="translate(803 507)"><path d="M0 -2L1.7 -1L1.7 1L0 2L-1.7 1L-1.7 -1Z" stroke="#ff341a" fill="none" stroke-width="1"></path></g><g transform="translate(518 233)"><path d="M0 -10L8.7 -5L8.7 5L0 10L-8.7 5L-8.7 -5Z" stroke="#ff341a" fill="none" stroke-width="1"></path></g><g transform="translate(138 183)"><path d="M0 -3L2.6 -1.5L2.6 1.5L0 3L-2.6 1.5L-2.6 -1.5Z" stroke="#ff341a" fill="none" stroke-width="1"></path></g><g transform="translate(107 585)"><path d="M0 -3L2.6 -1.5L2.6 1.5L0 3L-2.6 1.5L-2.6 -1.5Z" stroke="#ff341a" fill="none" stroke-width="1"></path></g><g transform="translate(867 142)"><path d="M0 -10L8.7 -5L8.7 5L0 10L-8.7 5L-8.7 -5Z" stroke="#ff341a" fill="none" stroke-width="1"></path></g><g transform="translate(749 1)"><path d="M0 -2L1.7 -1L1.7 1L0 2L-1.7 1L-1.7 -1Z" stroke="#ff341a" fill="none" stroke-width="1"></path></g><g transform="translate(616 254)"><path d="M0 -8L6.9 -4L6.9 4L0 8L-6.9 4L-6.9 -4Z" stroke="#ff341a" fill="none" stroke-width="1"></path></g><g transform="translate(265 179)"><path d="M0 -5L4.3 -2.5L4.3 2.5L0 5L-4.3 2.5L-4.3 -2.5Z" stroke="#ff341a" fill="none" stroke-width="1"></path></g><g transform="translate(776 269)"><path d="M0 -2L1.7 -1L1.7 1L0 2L-1.7 1L-1.7 -1Z" stroke="#ff341a" fill="none" stroke-width="1"></path></g><g transform="translate(864 269)"><path d="M0 -6L5.2 -3L5.2 3L0 6L-5.2 3L-5.2 -3Z" stroke="#ff341a" fill="none" stroke-width="1"></path></g><g transform="translate(885 51)"><path d="M0 -11L9.5 -5.5L9.5 5.5L0 11L-9.5 5.5L-9.5 -5.5Z" stroke="#ff341a" fill="none" stroke-width="1"></path></g><g transform="translate(840 479)"><path d="M0 -10L8.7 -5L8.7 5L0 10L-8.7 5L-8.7 -5Z" stroke="#ff341a" fill="none" stroke-width="1"></path></g><g transform="translate(232 49)"><path d="M0 -5L4.3 -2.5L4.3 2.5L0 5L-4.3 2.5L-4.3 -2.5Z" stroke="#ff341a" fill="none" stroke-width="1"></path></g><g transform="translate(205 256)"><path d="M0 -6L5.2 -3L5.2 3L0 6L-5.2 3L-5.2 -3Z" stroke="#ff341a" fill="none" stroke-width="1"></path></g><g transform="translate(125 245)"><path d="M0 -3L2.6 -1.5L2.6 1.5L0 3L-2.6 1.5L-2.6 -1.5Z" stroke="#ff341a" fill="none" stroke-width="1"></path></g><g transform="translate(822 406)"><path d="M0 -4L3.5 -2L3.5 2L0 4L-3.5 2L-3.5 -2Z" stroke="#ff341a" fill="none" stroke-width="1"></path></g><g transform="translate(715 227)"><path d="M0 -3L2.6 -1.5L2.6 1.5L0 3L-2.6 1.5L-2.6 -1.5Z" stroke="#ff341a" fill="none" stroke-width="1"></path></g><g transform="translate(529 117)"><path d="M0 -7L6.1 -3.5L6.1 3.5L0 7L-6.1 3.5L-6.1 -3.5Z" stroke="#ff341a" fill="none" stroke-width="1"></path></g><g transform="translate(16 249)"><path d="M0 -12L10.4 -6L10.4 6L0 12L-10.4 6L-10.4 -6Z" stroke="#ff341a" fill="none" stroke-width="1"></path></g><g transform="translate(474 464)"><path d="M0 -12L10.4 -6L10.4 6L0 12L-10.4 6L-10.4 -6Z" stroke="#ff341a" fill="none" stroke-width="1"></path></g><g transform="translate(438 358)"><path d="M0 -9L7.8 -4.5L7.8 4.5L0 9L-7.8 4.5L-7.8 -4.5Z" stroke="#ff341a" fill="none" stroke-width="1"></path></g><g transform="translate(781 84)"><path d="M0 -11L9.5 -5.5L9.5 5.5L0 11L-9.5 5.5L-9.5 -5.5Z" stroke="#ff341a" fill="none" stroke-width="1"></path></g><g transform="translate(167 339)"><path d="M0 -7L6.1 -3.5L6.1 3.5L0 7L-6.1 3.5L-6.1 -3.5Z" stroke="#ff341a" fill="none" stroke-width="1"></path></g><g transform="translate(164 424)"><path d="M0 -3L2.6 -1.5L2.6 1.5L0 3L-2.6 1.5L-2.6 -1.5Z" stroke="#ff341a" fill="none" stroke-width="1"></path></g><g transform="translate(848 573)"><path d="M0 -6L5.2 -3L5.2 3L0 6L-5.2 3L-5.2 -3Z" stroke="#ff341a" fill="none" stroke-width="1"></path></g><g transform="translate(552 465)"><path d="M0 -1L0.9 -0.5L0.9 0.5L0 1L-0.9 0.5L-0.9 -0.5Z" stroke="#ff341a" fill="none" stroke-width="1"></path></g><g transform="translate(211 390)"><path d="M0 -12L10.4 -6L10.4 6L0 12L-10.4 6L-10.4 -6Z" stroke="#ff341a" fill="none" stroke-width="1"></path></g><g transform="translate(553 406)"><path d="M0 -10L8.7 -5L8.7 5L0 10L-8.7 5L-8.7 -5Z" stroke="#ff341a" fill="none" stroke-width="1"></path></g><g transform="translate(443 218)"><path d="M0 -9L7.8 -4.5L7.8 4.5L0 9L-7.8 4.5L-7.8 -4.5Z" stroke="#ff341a" fill="none" stroke-width="1"></path></g><g transform="translate(74 580)"><path d="M0 -6L5.2 -3L5.2 3L0 6L-5.2 3L-5.2 -3Z" stroke="#ff341a" fill="none" stroke-width="1"></path></g><g transform="translate(894 468)"><path d="M0 -9L7.8 -4.5L7.8 4.5L0 9L-7.8 4.5L-7.8 -4.5Z" stroke="#ff341a" fill="none" stroke-width="1"></path></g><g transform="translate(378 335)"><path d="M0 -4L3.5 -2L3.5 2L0 4L-3.5 2L-3.5 -2Z" stroke="#ff341a" fill="none" stroke-width="1"></path></g><g transform="translate(483 201)"><path d="M0 -12L10.4 -6L10.4 6L0 12L-10.4 6L-10.4 -6Z" stroke="#ff341a" fill="none" stroke-width="1"></path></g><g transform="translate(92 97)"><path d="M0 -9L7.8 -4.5L7.8 4.5L0 9L-7.8 4.5L-7.8 -4.5Z" stroke="#ff341a" fill="none" stroke-width="1"></path></g><g transform="translate(439 566)"><path d="M0 -5L4.3 -2.5L4.3 2.5L0 5L-4.3 2.5L-4.3 -2.5Z" stroke="#ff341a" fill="none" stroke-width="1"></path></g><g transform="translate(61 177)"><path d="M0 -5L4.3 -2.5L4.3 2.5L0 5L-4.3 2.5L-4.3 -2.5Z" stroke="#ff341a" fill="none" stroke-width="1"></path></g><g transform="translate(712 582)"><path d="M0 -3L2.6 -1.5L2.6 1.5L0 3L-2.6 1.5L-2.6 -1.5Z" stroke="#ff341a" fill="none" stroke-width="1"></path></g><g transform="translate(526 1)"><path d="M0 -7L6.1 -3.5L6.1 3.5L0 7L-6.1 3.5L-6.1 -3.5Z" stroke="#ff341a" fill="none" stroke-width="1"></path></g><g transform="translate(798 36)"><path d="M0 -8L6.9 -4L6.9 4L0 8L-6.9 4L-6.9 -4Z" stroke="#ff341a" fill="none" stroke-width="1"></path></g><g transform="translate(138 583)"><path d="M0 -10L8.7 -5L8.7 5L0 10L-8.7 5L-8.7 -5Z" stroke="#ff341a" fill="none" stroke-width="1"></path></g><g transform="translate(887 505)"><path d="M0 -2L1.7 -1L1.7 1L0 2L-1.7 1L-1.7 -1Z" stroke="#ff341a" fill="none" stroke-width="1"></path></g><g transform="translate(142 126)"><path d="M0 -9L7.8 -4.5L7.8 4.5L0 9L-7.8 4.5L-7.8 -4.5Z" stroke="#ff341a" fill="none" stroke-width="1"></path></g><g transform="translate(731 22)"><path d="M0 -7L6.1 -3.5L6.1 3.5L0 7L-6.1 3.5L-6.1 -3.5Z" stroke="#ff341a" fill="none" stroke-width="1"></path></g><g transform="translate(35 401)"><path d="M0 -4L3.5 -2L3.5 2L0 4L-3.5 2L-3.5 -2Z" stroke="#ff341a" fill="none" stroke-width="1"></path></g><g transform="translate(621 525)"><path d="M0 -6L5.2 -3L5.2 3L0 6L-5.2 3L-5.2 -3Z" stroke="#ff341a" fill="none" stroke-width="1"></path></g><g transform="translate(556 144)"><path d="M0 -4L3.5 -2L3.5 2L0 4L-3.5 2L-3.5 -2Z" stroke="#ff341a" fill="none" stroke-width="1"></path></g><g transform="translate(85 56)"><path d="M0 -2L1.7 -1L1.7 1L0 2L-1.7 1L-1.7 -1Z" stroke="#ff341a" fill="none" stroke-width="1"></path></g><g transform="translate(332 155)"><path d="M0 -11L9.5 -5.5L9.5 5.5L0 11L-9.5 5.5L-9.5 -5.5Z" stroke="#ff341a" fill="none" stroke-width="1"></path></g><g transform="translate(452 521)"><path d="M0 -2L1.7 -1L1.7 1L0 2L-1.7 1L-1.7 -1Z" stroke="#ff341a" fill="none" stroke-width="1"></path></g><g transform="translate(660 429)"><path d="M0 -11L9.5 -5.5L9.5 5.5L0 11L-9.5 5.5L-9.5 -5.5Z" stroke="#ff341a" fill="none" stroke-width="1"></path></g><g transform="translate(682 26)"><path d="M0 -11L9.5 -5.5L9.5 5.5L0 11L-9.5 5.5L-9.5 -5.5Z" stroke="#ff341a" fill="none" stroke-width="1"></path></g><g transform="translate(220 279)"><path d="M0 -2L1.7 -1L1.7 1L0 2L-1.7 1L-1.7 -1Z" stroke="#ff341a" fill="none" stroke-width="1"></path></g><g transform="translate(652 370)"><path d="M0 -10L8.7 -5L8.7 5L0 10L-8.7 5L-8.7 -5Z" stroke="#ff341a" fill="none" stroke-width="1"></path></g><g transform="translate(470 165)"><path d="M0 -6L5.2 -3L5.2 3L0 6L-5.2 3L-5.2 -3Z" stroke="#ff341a" fill="none" stroke-width="1"></path></g><g transform="translate(526 340)"><path d="M0 -5L4.3 -2.5L4.3 2.5L0 5L-4.3 2.5L-4.3 -2.5Z" stroke="#ff341a" fill="none" stroke-width="1"></path></g><g transform="translate(230 165)"><path d="M0 -7L6.1 -3.5L6.1 3.5L0 7L-6.1 3.5L-6.1 -3.5Z" stroke="#ff341a" fill="none" stroke-width="1"></path></g><g transform="translate(529 203)"><path d="M0 -5L4.3 -2.5L4.3 2.5L0 5L-4.3 2.5L-4.3 -2.5Z" stroke="#ff341a" fill="none" stroke-width="1"></path></g><g transform="translate(751 174)"><path d="M0 -4L3.5 -2L3.5 2L0 4L-3.5 2L-3.5 -2Z" stroke="#ff341a" fill="none" stroke-width="1"></path></g><g transform="translate(257 569)"><path d="M0 -3L2.6 -1.5L2.6 1.5L0 3L-2.6 1.5L-2.6 -1.5Z" stroke="#ff341a" fill="none" stroke-width="1"></path></g><g transform="translate(243 402)"><path d="M0 -11L9.5 -5.5L9.5 5.5L0 11L-9.5 5.5L-9.5 -5.5Z" stroke="#ff341a" fill="none" stroke-width="1"></path></g><g transform="translate(714 554)"><path d="M0 -2L1.7 -1L1.7 1L0 2L-1.7 1L-1.7 -1Z" stroke="#ff341a" fill="none" stroke-width="1"></path></g><g transform="translate(776 236)"><path d="M0 -9L7.8 -4.5L7.8 4.5L0 9L-7.8 4.5L-7.8 -4.5Z" stroke="#ff341a" fill="none" stroke-width="1"></path></g><g transform="translate(48 205)"><path d="M0 -9L7.8 -4.5L7.8 4.5L0 9L-7.8 4.5L-7.8 -4.5Z" stroke="#ff341a" fill="none" stroke-width="1"></path></g><g transform="translate(818 460)"><path d="M0 -5L4.3 -2.5L4.3 2.5L0 5L-4.3 2.5L-4.3 -2.5Z" stroke="#ff341a" fill="none" stroke-width="1"></path></g><g transform="translate(497 4)"><path d="M0 -9L7.8 -4.5L7.8 4.5L0 9L-7.8 4.5L-7.8 -4.5Z" stroke="#ff341a" fill="none" stroke-width="1"></path></g><g transform="translate(481 321)"><path d="M0 -5L4.3 -2.5L4.3 2.5L0 5L-4.3 2.5L-4.3 -2.5Z" stroke="#ff341a" fill="none" stroke-width="1"></path></g><g transform="translate(227 563)"><path d="M0 -6L5.2 -3L5.2 3L0 6L-5.2 3L-5.2 -3Z" stroke="#ff341a" fill="none" stroke-width="1"></path></g><g transform="translate(724 195)"><path d="M0 -7L6.1 -3.5L6.1 3.5L0 7L-6.1 3.5L-6.1 -3.5Z" stroke="#ff341a" fill="none" stroke-width="1"></path></g><g transform="translate(413 70)"><path d="M0 -5L4.3 -2.5L4.3 2.5L0 5L-4.3 2.5L-4.3 -2.5Z" stroke="#ff341a" fill="none" stroke-width="1"></path></g><g transform="translate(338 532)"><path d="M0 -10L8.7 -5L8.7 5L0 10L-8.7 5L-8.7 -5Z" stroke="#ff341a" fill="none" stroke-width="1"></path></g><g transform="translate(832 337)"><path d="M0 -12L10.4 -6L10.4 6L0 12L-10.4 6L-10.4 -6Z" stroke="#ff341a" fill="none" stroke-width="1"></path></g><g transform="translate(803 197)"><path d="M0 -1L0.9 -0.5L0.9 0.5L0 1L-0.9 0.5L-0.9 -0.5Z" stroke="#ff341a" fill="none" stroke-width="1"></path></g><g transform="translate(477 595)"><path d="M0 -10L8.7 -5L8.7 5L0 10L-8.7 5L-8.7 -5Z" stroke="#ff341a" fill="none" stroke-width="1"></path></g><g transform="translate(825 593)"><path d="M0 -1L0.9 -0.5L0.9 0.5L0 1L-0.9 0.5L-0.9 -0.5Z" stroke="#ff341a" fill="none" stroke-width="1"></path></g><g transform="translate(572 41)"><path d="M0 -3L2.6 -1.5L2.6 1.5L0 3L-2.6 1.5L-2.6 -1.5Z" stroke="#ff341a" fill="none" stroke-width="1"></path></g><g transform="translate(774 422)"><path d="M0 -4L3.5 -2L3.5 2L0 4L-3.5 2L-3.5 -2Z" stroke="#ff341a" fill="none" stroke-width="1"></path></g><g transform="translate(550 556)"><path d="M0 -8L6.9 -4L6.9 4L0 8L-6.9 4L-6.9 -4Z" stroke="#ff341a" fill="none" stroke-width="1"></path></g><g transform="translate(35 17)"><path d="M0 -10L8.7 -5L8.7 5L0 10L-8.7 5L-8.7 -5Z" stroke="#ff341a" fill="none" stroke-width="1"></path></g><g transform="translate(855 390)"><path d="M0 -7L6.1 -3.5L6.1 3.5L0 7L-6.1 3.5L-6.1 -3.5Z" stroke="#ff341a" fill="none" stroke-width="1"></path></g><g transform="translate(263 71)"><path d="M0 -12L10.4 -6L10.4 6L0 12L-10.4 6L-10.4 -6Z" stroke="#ff341a" fill="none" stroke-width="1"></path></g><g transform="translate(287 104)"><path d="M0 -6L5.2 -3L5.2 3L0 6L-5.2 3L-5.2 -3Z" stroke="#ff341a" fill="none" stroke-width="1"></path></g><g transform="translate(368 292)"><path d="M0 -9L7.8 -4.5L7.8 4.5L0 9L-7.8 4.5L-7.8 -4.5Z" stroke="#ff341a" fill="none" stroke-width="1"></path></g><g transform="translate(11 479)"><path d="M0 -10L8.7 -5L8.7 5L0 10L-8.7 5L-8.7 -5Z" stroke="#ff341a" fill="none" stroke-width="1"></path></g><g transform="translate(742 402)"><path d="M0 -7L6.1 -3.5L6.1 3.5L0 7L-6.1 3.5L-6.1 -3.5Z" stroke="#ff341a" fill="none" stroke-width="1"></path></g><g transform="translate(629 157)"><path d="M0 -5L4.3 -2.5L4.3 2.5L0 5L-4.3 2.5L-4.3 -2.5Z" stroke="#ff341a" fill="none" stroke-width="1"></path></g><g transform="translate(541 376)"><path d="M0 -1L0.9 -0.5L0.9 0.5L0 1L-0.9 0.5L-0.9 -0.5Z" stroke="#ff341a" fill="none" stroke-width="1"></path></g><g transform="translate(86 415)"><path d="M0 -10L8.7 -5L8.7 5L0 10L-8.7 5L-8.7 -5Z" stroke="#ff341a" fill="none" stroke-width="1"></path></g><g transform="translate(766 372)"><path d="M0 -7L6.1 -3.5L6.1 3.5L0 7L-6.1 3.5L-6.1 -3.5Z" stroke="#ff341a" fill="none" stroke-width="1"></path></g><g transform="translate(128 20)"><path d="M0 -1L0.9 -0.5L0.9 0.5L0 1L-0.9 0.5L-0.9 -0.5Z" stroke="#ff341a" fill="none" stroke-width="1"></path></g><g transform="translate(9 221)"><path d="M0 -3L2.6 -1.5L2.6 1.5L0 3L-2.6 1.5L-2.6 -1.5Z" stroke="#ff341a" fill="none" stroke-width="1"></path></g><g transform="translate(524 487)"><path d="M0 -8L6.9 -4L6.9 4L0 8L-6.9 4L-6.9 -4Z" stroke="#ff341a" fill="none" stroke-width="1"></path></g><g transform="translate(889 169)"><path d="M0 -8L6.9 -4L6.9 4L0 8L-6.9 4L-6.9 -4Z" stroke="#ff341a" fill="none" stroke-width="1"></path></g><g transform="translate(590 463)"><path d="M0 -1L0.9 -0.5L0.9 0.5L0 1L-0.9 0.5L-0.9 -0.5Z" stroke="#ff341a" fill="none" stroke-width="1"></path></g><g transform="translate(267 13)"><path d="M0 -3L2.6 -1.5L2.6 1.5L0 3L-2.6 1.5L-2.6 -1.5Z" stroke="#ff341a" fill="none" stroke-width="1"></path></g><g transform="translate(146 47)"><path d="M0 -10L8.7 -5L8.7 5L0 10L-8.7 5L-8.7 -5Z" stroke="#ff341a" fill="none" stroke-width="1"></path></g><g transform="translate(512 595)"><path d="M0 -11L9.5 -5.5L9.5 5.5L0 11L-9.5 5.5L-9.5 -5.5Z" stroke="#ff341a" fill="none" stroke-width="1"></path></g><g transform="translate(654 137)"><path d="M0 -7L6.1 -3.5L6.1 3.5L0 7L-6.1 3.5L-6.1 -3.5Z" stroke="#ff341a" fill="none" stroke-width="1"></path></g><g transform="translate(601 64)"><path d="M0 -1L0.9 -0.5L0.9 0.5L0 1L-0.9 0.5L-0.9 -0.5Z" stroke="#ff341a" fill="none" stroke-width="1"></path></g><g transform="translate(498 139)"><path d="M0 -3L2.6 -1.5L2.6 1.5L0 3L-2.6 1.5L-2.6 -1.5Z" stroke="#ff341a" fill="none" stroke-width="1"></path></g><g transform="translate(837 78)"><path d="M0 -7L6.1 -3.5L6.1 3.5L0 7L-6.1 3.5L-6.1 -3.5Z" stroke="#ff341a" fill="none" stroke-width="1"></path></g><g transform="translate(222 420)"><path d="M0 -9L7.8 -4.5L7.8 4.5L0 9L-7.8 4.5L-7.8 -4.5Z" stroke="#ff341a" fill="none" stroke-width="1"></path></g><g transform="translate(482 517)"><path d="M0 -3L2.6 -1.5L2.6 1.5L0 3L-2.6 1.5L-2.6 -1.5Z" stroke="#ff341a" fill="none" stroke-width="1"></path></g><g transform="translate(12 556)"><path d="M0 -12L10.4 -6L10.4 6L0 12L-10.4 6L-10.4 -6Z" stroke="#ff341a" fill="none" stroke-width="1"></path></g><g transform="translate(409 520)"><path d="M0 -5L4.3 -2.5L4.3 2.5L0 5L-4.3 2.5L-4.3 -2.5Z" stroke="#ff341a" fill="none" stroke-width="1"></path></g><g transform="translate(471 42)"><path d="M0 -7L6.1 -3.5L6.1 3.5L0 7L-6.1 3.5L-6.1 -3.5Z" stroke="#ff341a" fill="none" stroke-width="1"></path></g><g transform="translate(433 4)"><path d="M0 -4L3.5 -2L3.5 2L0 4L-3.5 2L-3.5 -2Z" stroke="#ff341a" fill="none" stroke-width="1"></path></g><g transform="translate(557 516)"><path d="M0 -2L1.7 -1L1.7 1L0 2L-1.7 1L-1.7 -1Z" stroke="#ff341a" fill="none" stroke-width="1"></path></g><g transform="translate(655 6)"><path d="M0 -10L8.7 -5L8.7 5L0 10L-8.7 5L-8.7 -5Z" stroke="#ff341a" fill="none" stroke-width="1"></path></g><g transform="translate(719 166)"><path d="M0 -8L6.9 -4L6.9 4L0 8L-6.9 4L-6.9 -4Z" stroke="#ff341a" fill="none" stroke-width="1"></path></g><g transform="translate(345 334)"><path d="M0 -5L4.3 -2.5L4.3 2.5L0 5L-4.3 2.5L-4.3 -2.5Z" stroke="#ff341a" fill="none" stroke-width="1"></path></g><g transform="translate(348 387)"><path d="M0 -10L8.7 -5L8.7 5L0 10L-8.7 5L-8.7 -5Z" stroke="#ff341a" fill="none" stroke-width="1"></path></g><g transform="translate(12 509)"><path d="M0 -9L7.8 -4.5L7.8 4.5L0 9L-7.8 4.5L-7.8 -4.5Z" stroke="#ff341a" fill="none" stroke-width="1"></path></g><g transform="translate(83 235)"><path d="M0 -4L3.5 -2L3.5 2L0 4L-3.5 2L-3.5 -2Z" stroke="#ff341a" fill="none" stroke-width="1"></path></g><g transform="translate(834 34)"><path d="M0 -3L2.6 -1.5L2.6 1.5L0 3L-2.6 1.5L-2.6 -1.5Z" stroke="#ff341a" fill="none" stroke-width="1"></path></g><g transform="translate(747 341)"><path d="M0 -9L7.8 -4.5L7.8 4.5L0 9L-7.8 4.5L-7.8 -4.5Z" stroke="#ff341a" fill="none" stroke-width="1"></path></g><g transform="translate(48 591)"><path d="M0 -2L1.7 -1L1.7 1L0 2L-1.7 1L-1.7 -1Z" stroke="#ff341a" fill="none" stroke-width="1"></path></g><g transform="translate(535 86)"><path d="M0 -2L1.7 -1L1.7 1L0 2L-1.7 1L-1.7 -1Z" stroke="#ff341a" fill="none" stroke-width="1"></path></g><g transform="translate(329 566)"><path d="M0 -1L0.9 -0.5L0.9 0.5L0 1L-0.9 0.5L-0.9 -0.5Z" stroke="#ff341a" fill="none" stroke-width="1"></path></g><g transform="translate(39 437)"><path d="M0 -9L7.8 -4.5L7.8 4.5L0 9L-7.8 4.5L-7.8 -4.5Z" stroke="#ff341a" fill="none" stroke-width="1"></path></g><g transform="translate(681 357)"><path d="M0 -2L1.7 -1L1.7 1L0 2L-1.7 1L-1.7 -1Z" stroke="#ff341a" fill="none" stroke-width="1"></path></g><g transform="translate(33 331)"><path d="M0 -1L0.9 -0.5L0.9 0.5L0 1L-0.9 0.5L-0.9 -0.5Z" stroke="#ff341a" fill="none" stroke-width="1"></path></g><g transform="translate(603 365)"><path d="M0 -12L10.4 -6L10.4 6L0 12L-10.4 6L-10.4 -6Z" stroke="#ff341a" fill="none" stroke-width="1"></path></g><g transform="translate(820 101)"><path d="M0 -11L9.5 -5.5L9.5 5.5L0 11L-9.5 5.5L-9.5 -5.5Z" stroke="#ff341a" fill="none" stroke-width="1"></path></g><g transform="translate(899 231)"><path d="M0 -5L4.3 -2.5L4.3 2.5L0 5L-4.3 2.5L-4.3 -2.5Z" stroke="#ff341a" fill="none" stroke-width="1"></path></g><g transform="translate(192 543)"><path d="M0 -8L6.9 -4L6.9 4L0 8L-6.9 4L-6.9 -4Z" stroke="#ff341a" fill="none" stroke-width="1"></path></g><g transform="translate(251 142)"><path d="M0 -8L6.9 -4L6.9 4L0 8L-6.9 4L-6.9 -4Z" stroke="#ff341a" fill="none" stroke-width="1"></path></g><g transform="translate(211 31)"><path d="M0 -2L1.7 -1L1.7 1L0 2L-1.7 1L-1.7 -1Z" stroke="#ff341a" fill="none" stroke-width="1"></path></g><g transform="translate(210 4)"><path d="M0 -1L0.9 -0.5L0.9 0.5L0 1L-0.9 0.5L-0.9 -0.5Z" stroke="#ff341a" fill="none" stroke-width="1"></path></g><g transform="translate(302 193)"><path d="M0 -7L6.1 -3.5L6.1 3.5L0 7L-6.1 3.5L-6.1 -3.5Z" stroke="#ff341a" fill="none" stroke-width="1"></path></g><g transform="translate(559 333)"><path d="M0 -6L5.2 -3L5.2 3L0 6L-5.2 3L-5.2 -3Z" stroke="#ff341a" fill="none" stroke-width="1"></path></g><g transform="translate(712 379)"><path d="M0 -10L8.7 -5L8.7 5L0 10L-8.7 5L-8.7 -5Z" stroke="#ff341a" fill="none" stroke-width="1"></path></g><g transform="translate(810 72)"><path d="M0 -7L6.1 -3.5L6.1 3.5L0 7L-6.1 3.5L-6.1 -3.5Z" stroke="#ff341a" fill="none" stroke-width="1"></path></g><g transform="translate(843 216)"><path d="M0 -2L1.7 -1L1.7 1L0 2L-1.7 1L-1.7 -1Z" stroke="#ff341a" fill="none" stroke-width="1"></path></g><g transform="translate(141 353)"><path d="M0 -9L7.8 -4.5L7.8 4.5L0 9L-7.8 4.5L-7.8 -4.5Z" stroke="#ff341a" fill="none" stroke-width="1"></path></g><g transform="translate(894 271)"><path d="M0 -3L2.6 -1.5L2.6 1.5L0 3L-2.6 1.5L-2.6 -1.5Z" stroke="#ff341a" fill="none" stroke-width="1"></path></g><g transform="translate(8 48)"><path d="M0 -11L9.5 -5.5L9.5 5.5L0 11L-9.5 5.5L-9.5 -5.5Z" stroke="#ff341a" fill="none" stroke-width="1"></path></g><g transform="translate(94 8)"><path d="M0 -9L7.8 -4.5L7.8 4.5L0 9L-7.8 4.5L-7.8 -4.5Z" stroke="#ff341a" fill="none" stroke-width="1"></path></g><g transform="translate(286 54)"><path d="M0 -10L8.7 -5L8.7 5L0 10L-8.7 5L-8.7 -5Z" stroke="#ff341a" fill="none" stroke-width="1"></path></g><g transform="translate(339 503)"><path d="M0 -8L6.9 -4L6.9 4L0 8L-6.9 4L-6.9 -4Z" stroke="#ff341a" fill="none" stroke-width="1"></path></g><g transform="translate(735 519)"><path d="M0 -5L4.3 -2.5L4.3 2.5L0 5L-4.3 2.5L-4.3 -2.5Z" stroke="#ff341a" fill="none" stroke-width="1"></path></g><g transform="translate(193 104)"><path d="M0 -3L2.6 -1.5L2.6 1.5L0 3L-2.6 1.5L-2.6 -1.5Z" stroke="#ff341a" fill="none" stroke-width="1"></path></g><g transform="translate(793 598)"><path d="M0 -12L10.4 -6L10.4 6L0 12L-10.4 6L-10.4 -6Z" stroke="#ff341a" fill="none" stroke-width="1"></path></g><g transform="translate(363 365)"><path d="M0 -12L10.4 -6L10.4 6L0 12L-10.4 6L-10.4 -6Z" stroke="#ff341a" fill="none" stroke-width="1"></path></g><g transform="translate(380 459)"><path d="M0 -3L2.6 -1.5L2.6 1.5L0 3L-2.6 1.5L-2.6 -1.5Z" stroke="#ff341a" fill="none" stroke-width="1"></path></g><g transform="translate(318 423)"><path d="M0 -8L6.9 -4L6.9 4L0 8L-6.9 4L-6.9 -4Z" stroke="#ff341a" fill="none" stroke-width="1"></path></g><g transform="translate(56 124)"><path d="M0 -8L6.9 -4L6.9 4L0 8L-6.9 4L-6.9 -4Z" stroke="#ff341a" fill="none" stroke-width="1"></path></g><g transform="translate(161 251)"><path d="M0 -12L10.4 -6L10.4 6L0 12L-10.4 6L-10.4 -6Z" stroke="#ff341a" fill="none" stroke-width="1"></path></g><g transform="translate(295 164)"><path d="M0 -1L0.9 -0.5L0.9 0.5L0 1L-0.9 0.5L-0.9 -0.5Z" stroke="#ff341a" fill="none" stroke-width="1"></path></g><g transform="translate(499 344)"><path d="M0 -12L10.4 -6L10.4 6L0 12L-10.4 6L-10.4 -6Z" stroke="#ff341a" fill="none" stroke-width="1"></path></g><g transform="translate(428 148)"><path d="M0 -6L5.2 -3L5.2 3L0 6L-5.2 3L-5.2 -3Z" stroke="#ff341a" fill="none" stroke-width="1"></path></g><g transform="translate(458 383)"><path d="M0 -10L8.7 -5L8.7 5L0 10L-8.7 5L-8.7 -5Z" stroke="#ff341a" fill="none" stroke-width="1"></path></g><g transform="translate(696 499)"><path d="M0 -10L8.7 -5L8.7 5L0 10L-8.7 5L-8.7 -5Z" stroke="#ff341a" fill="none" stroke-width="1"></path></g><g transform="translate(256 329)"><path d="M0 -9L7.8 -4.5L7.8 4.5L0 9L-7.8 4.5L-7.8 -4.5Z" stroke="#ff341a" fill="none" stroke-width="1"></path></g><g transform="translate(589 226)"><path d="M0 -5L4.3 -2.5L4.3 2.5L0 5L-4.3 2.5L-4.3 -2.5Z" stroke="#ff341a" fill="none" stroke-width="1"></path></g><g transform="translate(584 595)"><path d="M0 -10L8.7 -5L8.7 5L0 10L-8.7 5L-8.7 -5Z" stroke="#ff341a" fill="none" stroke-width="1"></path></g><g transform="translate(55 316)"><path d="M0 -12L10.4 -6L10.4 6L0 12L-10.4 6L-10.4 -6Z" stroke="#ff341a" fill="none" stroke-width="1"></path></g><g transform="translate(792 165)"><path d="M0 -4L3.5 -2L3.5 2L0 4L-3.5 2L-3.5 -2Z" stroke="#ff341a" fill="none" stroke-width="1"></path></g><g transform="translate(775 20)"><path d="M0 -7L6.1 -3.5L6.1 3.5L0 7L-6.1 3.5L-6.1 -3.5Z" stroke="#ff341a" fill="none" stroke-width="1"></path></g><g transform="translate(770 577)"><path d="M0 -7L6.1 -3.5L6.1 3.5L0 7L-6.1 3.5L-6.1 -3.5Z" stroke="#ff341a" fill="none" stroke-width="1"></path></g><g transform="translate(666 163)"><path d="M0 -2L1.7 -1L1.7 1L0 2L-1.7 1L-1.7 -1Z" stroke="#ff341a" fill="none" stroke-width="1"></path></g><g transform="translate(44 259)"><path d="M0 -11L9.5 -5.5L9.5 5.5L0 11L-9.5 5.5L-9.5 -5.5Z" stroke="#ff341a" fill="none" stroke-width="1"></path></g><g transform="translate(213 475)"><path d="M0 -3L2.6 -1.5L2.6 1.5L0 3L-2.6 1.5L-2.6 -1.5Z" stroke="#ff341a" fill="none" stroke-width="1"></path></g><g transform="translate(355 472)"><path d="M0 -7L6.1 -3.5L6.1 3.5L0 7L-6.1 3.5L-6.1 -3.5Z" stroke="#ff341a" fill="none" stroke-width="1"></path></g><g transform="translate(326 10)"><path d="M0 -4L3.5 -2L3.5 2L0 4L-3.5 2L-3.5 -2Z" stroke="#ff341a" fill="none" stroke-width="1"></path></g><g transform="translate(756 453)"><path d="M0 -7L6.1 -3.5L6.1 3.5L0 7L-6.1 3.5L-6.1 -3.5Z" stroke="#ff341a" fill="none" stroke-width="1"></path></g><g transform="translate(259 466)"><path d="M0 -4L3.5 -2L3.5 2L0 4L-3.5 2L-3.5 -2Z" stroke="#ff341a" fill="none" stroke-width="1"></path></g><g transform="translate(726 453)"><path d="M0 -2L1.7 -1L1.7 1L0 2L-1.7 1L-1.7 -1Z" stroke="#ff341a" fill="none" stroke-width="1"></path></g><g transform="translate(464 434)"><path d="M0 -8L6.9 -4L6.9 4L0 8L-6.9 4L-6.9 -4Z" stroke="#ff341a" fill="none" stroke-width="1"></path></g><g transform="translate(576 171)"><path d="M0 -4L3.5 -2L3.5 2L0 4L-3.5 2L-3.5 -2Z" stroke="#ff341a" fill="none" stroke-width="1"></path></g><g transform="translate(357 553)"><path d="M0 -6L5.2 -3L5.2 3L0 6L-5.2 3L-5.2 -3Z" stroke="#ff341a" fill="none" stroke-width="1"></path></g><g transform="translate(154 99)"><path d="M0 -11L9.5 -5.5L9.5 5.5L0 11L-9.5 5.5L-9.5 -5.5Z" stroke="#ff341a" fill="none" stroke-width="1"></path></g><g transform="translate(498 549)"><path d="M0 -11L9.5 -5.5L9.5 5.5L0 11L-9.5 5.5L-9.5 -5.5Z" stroke="#ff341a" fill="none" stroke-width="1"></path></g><g transform="translate(270 596)"><path d="M0 -11L9.5 -5.5L9.5 5.5L0 11L-9.5 5.5L-9.5 -5.5Z" stroke="#ff341a" fill="none" stroke-width="1"></path></g><g transform="translate(164 454)"><path d="M0 -6L5.2 -3L5.2 3L0 6L-5.2 3L-5.2 -3Z" stroke="#ff341a" fill="none" stroke-width="1"></path></g><g transform="translate(687 550)"><path d="M0 -8L6.9 -4L6.9 4L0 8L-6.9 4L-6.9 -4Z" stroke="#ff341a" fill="none" stroke-width="1"></path></g><g transform="translate(643 35)"><path d="M0 -9L7.8 -4.5L7.8 4.5L0 9L-7.8 4.5L-7.8 -4.5Z" stroke="#ff341a" fill="none" stroke-width="1"></path></g><g transform="translate(343 597)"><path d="M0 -5L4.3 -2.5L4.3 2.5L0 5L-4.3 2.5L-4.3 -2.5Z" stroke="#ff341a" fill="none" stroke-width="1"></path></g><g transform="translate(700 110)"><path d="M0 -7L6.1 -3.5L6.1 3.5L0 7L-6.1 3.5L-6.1 -3.5Z" stroke="#ff341a" fill="none" stroke-width="1"></path></g><g transform="translate(369 239)"><path d="M0 -5L4.3 -2.5L4.3 2.5L0 5L-4.3 2.5L-4.3 -2.5Z" stroke="#ff341a" fill="none" stroke-width="1"></path></g><g transform="translate(867 470)"><path d="M0 -3L2.6 -1.5L2.6 1.5L0 3L-2.6 1.5L-2.6 -1.5Z" stroke="#ff341a" fill="none" stroke-width="1"></path></g><g transform="translate(440 284)"><path d="M0 -5L4.3 -2.5L4.3 2.5L0 5L-4.3 2.5L-4.3 -2.5Z" stroke="#ff341a" fill="none" stroke-width="1"></path></g><g transform="translate(381 23)"><path d="M0 -12L10.4 -6L10.4 6L0 12L-10.4 6L-10.4 -6Z" stroke="#ff341a" fill="none" stroke-width="1"></path></g><g transform="translate(157 14)"><path d="M0 -4L3.5 -2L3.5 2L0 4L-3.5 2L-3.5 -2Z" stroke="#ff341a" fill="none" stroke-width="1"></path></g><g transform="translate(313 302)"><path d="M0 -11L9.5 -5.5L9.5 5.5L0 11L-9.5 5.5L-9.5 -5.5Z" stroke="#ff341a" fill="none" stroke-width="1"></path></g><g transform="translate(467 289)"><path d="M0 -10L8.7 -5L8.7 5L0 10L-8.7 5L-8.7 -5Z" stroke="#ff341a" fill="none" stroke-width="1"></path></g><g transform="translate(313 505)"><path d="M0 -10L8.7 -5L8.7 5L0 10L-8.7 5L-8.7 -5Z" stroke="#ff341a" fill="none" stroke-width="1"></path></g><g transform="translate(667 594)"><path d="M0 -4L3.5 -2L3.5 2L0 4L-3.5 2L-3.5 -2Z" stroke="#ff341a" fill="none" stroke-width="1"></path></g><g transform="translate(788 302)"><path d="M0 -4L3.5 -2L3.5 2L0 4L-3.5 2L-3.5 -2Z" stroke="#ff341a" fill="none" stroke-width="1"></path></g><g transform="translate(75 207)"><path d="M0 -2L1.7 -1L1.7 1L0 2L-1.7 1L-1.7 -1Z" stroke="#ff341a" fill="none" stroke-width="1"></path></g><g transform="translate(238 304)"><path d="M0 -7L6.1 -3.5L6.1 3.5L0 7L-6.1 3.5L-6.1 -3.5Z" stroke="#ff341a" fill="none" stroke-width="1"></path></g><g transform="translate(164 186)"><path d="M0 -2L1.7 -1L1.7 1L0 2L-1.7 1L-1.7 -1Z" stroke="#ff341a" fill="none" stroke-width="1"></path></g><g transform="translate(840 2)"><path d="M0 -9L7.8 -4.5L7.8 4.5L0 9L-7.8 4.5L-7.8 -4.5Z" stroke="#ff341a" fill="none" stroke-width="1"></path></g><g transform="translate(817 433)"><path d="M0 -12L10.4 -6L10.4 6L0 12L-10.4 6L-10.4 -6Z" stroke="#ff341a" fill="none" stroke-width="1"></path></g><g transform="translate(802 252)"><path d="M0 -11L9.5 -5.5L9.5 5.5L0 11L-9.5 5.5L-9.5 -5.5Z" stroke="#ff341a" fill="none" stroke-width="1"></path></g><g transform="translate(766 106)"><path d="M0 -6L5.2 -3L5.2 3L0 6L-5.2 3L-5.2 -3Z" stroke="#ff341a" fill="none" stroke-width="1"></path></g><g transform="translate(371 142)"><path d="M0 -10L8.7 -5L8.7 5L0 10L-8.7 5L-8.7 -5Z" stroke="#ff341a" fill="none" stroke-width="1"></path></g><g transform="translate(697 206)"><path d="M0 -10L8.7 -5L8.7 5L0 10L-8.7 5L-8.7 -5Z" stroke="#ff341a" fill="none" stroke-width="1"></path></g><g transform="translate(881 379)"><path d="M0 -3L2.6 -1.5L2.6 1.5L0 3L-2.6 1.5L-2.6 -1.5Z" stroke="#ff341a" fill="none" stroke-width="1"></path></g><g transform="translate(160 519)"><path d="M0 -12L10.4 -6L10.4 6L0 12L-10.4 6L-10.4 -6Z" stroke="#ff341a" fill="none" stroke-width="1"></path></g><g transform="translate(626 79)"><path d="M0 -10L8.7 -5L8.7 5L0 10L-8.7 5L-8.7 -5Z" stroke="#ff341a" fill="none" stroke-width="1"></path></g><g transform="translate(138 416)"><path d="M0 -12L10.4 -6L10.4 6L0 12L-10.4 6L-10.4 -6Z" stroke="#ff341a" fill="none" stroke-width="1"></path></g><g transform="translate(390 595)"><path d="M0 -4L3.5 -2L3.5 2L0 4L-3.5 2L-3.5 -2Z" stroke="#ff341a" fill="none" stroke-width="1"></path></g><g transform="translate(510 380)"><path d="M0 -11L9.5 -5.5L9.5 5.5L0 11L-9.5 5.5L-9.5 -5.5Z" stroke="#ff341a" fill="none" stroke-width="1"></path></g><g transform="translate(805 536)"><path d="M0 -11L9.5 -5.5L9.5 5.5L0 11L-9.5 5.5L-9.5 -5.5Z" stroke="#ff341a" fill="none" stroke-width="1"></path></g><g transform="translate(716 406)"><path d="M0 -1L0.9 -0.5L0.9 0.5L0 1L-0.9 0.5L-0.9 -0.5Z" stroke="#ff341a" fill="none" stroke-width="1"></path></g><g transform="translate(466 2)"><path d="M0 -1L0.9 -0.5L0.9 0.5L0 1L-0.9 0.5L-0.9 -0.5Z" stroke="#ff341a" fill="none" stroke-width="1"></path></g><g transform="translate(524 61)"><path d="M0 -11L9.5 -5.5L9.5 5.5L0 11L-9.5 5.5L-9.5 -5.5Z" stroke="#ff341a" fill="none" stroke-width="1"></path></g><g transform="translate(390 562)"><path d="M0 -10L8.7 -5L8.7 5L0 10L-8.7 5L-8.7 -5Z" stroke="#ff341a" fill="none" stroke-width="1"></path></g><g transform="translate(316 275)"><path d="M0 -4L3.5 -2L3.5 2L0 4L-3.5 2L-3.5 -2Z" stroke="#ff341a" fill="none" stroke-width="1"></path></g><g transform="translate(90 343)"><path d="M0 -2L1.7 -1L1.7 1L0 2L-1.7 1L-1.7 -1Z" stroke="#ff341a" fill="none" stroke-width="1"></path></g><g transform="translate(515 265)"><path d="M0 -9L7.8 -4.5L7.8 4.5L0 9L-7.8 4.5L-7.8 -4.5Z" stroke="#ff341a" fill="none" stroke-width="1"></path></g><g transform="translate(258 42)"><path d="M0 -11L9.5 -5.5L9.5 5.5L0 11L-9.5 5.5L-9.5 -5.5Z" stroke="#ff341a" fill="none" stroke-width="1"></path></g><g transform="translate(139 546)"><path d="M0 -5L4.3 -2.5L4.3 2.5L0 5L-4.3 2.5L-4.3 -2.5Z" stroke="#ff341a" fill="none" stroke-width="1"></path></g><g transform="translate(557 437)"><path d="M0 -12L10.4 -6L10.4 6L0 12L-10.4 6L-10.4 -6Z" stroke="#ff341a" fill="none" stroke-width="1"></path></g><g transform="translate(458 195)"><path d="M0 -2L1.7 -1L1.7 1L0 2L-1.7 1L-1.7 -1Z" stroke="#ff341a" fill="none" stroke-width="1"></path></g><g transform="translate(489 229)"><path d="M0 -7L6.1 -3.5L6.1 3.5L0 7L-6.1 3.5L-6.1 -3.5Z" stroke="#ff341a" fill="none" stroke-width="1"></path></g><g transform="translate(413 174)"><path d="M0 -2L1.7 -1L1.7 1L0 2L-1.7 1L-1.7 -1Z" stroke="#ff341a" fill="none" stroke-width="1"></path></g><g transform="translate(570 297)"><path d="M0 -1L0.9 -0.5L0.9 0.5L0 1L-0.9 0.5L-0.9 -0.5Z" stroke="#ff341a" fill="none" stroke-width="1"></path></g><g transform="translate(700 460)"><path d="M0 -6L5.2 -3L5.2 3L0 6L-5.2 3L-5.2 -3Z" stroke="#ff341a" fill="none" stroke-width="1"></path></g><g transform="translate(110 75)"><path d="M0 -8L6.9 -4L6.9 4L0 8L-6.9 4L-6.9 -4Z" stroke="#ff341a" fill="none" stroke-width="1"></path></g><g transform="translate(410 353)"><path d="M0 -6L5.2 -3L5.2 3L0 6L-5.2 3L-5.2 -3Z" stroke="#ff341a" fill="none" stroke-width="1"></path></g><g transform="translate(160 297)"><path d="M0 -9L7.8 -4.5L7.8 4.5L0 9L-7.8 4.5L-7.8 -4.5Z" stroke="#ff341a" fill="none" stroke-width="1"></path></g><g transform="translate(400 231)"><path d="M0 -4L3.5 -2L3.5 2L0 4L-3.5 2L-3.5 -2Z" stroke="#ff341a" fill="none" stroke-width="1"></path></g><g transform="translate(294 2)"><path d="M0 -11L9.5 -5.5L9.5 5.5L0 11L-9.5 5.5L-9.5 -5.5Z" stroke="#ff341a" fill="none" stroke-width="1"></path></g><g transform="translate(635 104)"><path d="M0 -3L2.6 -1.5L2.6 1.5L0 3L-2.6 1.5L-2.6 -1.5Z" stroke="#ff341a" fill="none" stroke-width="1"></path></g><g transform="translate(391 190)"><path d="M0 -5L4.3 -2.5L4.3 2.5L0 5L-4.3 2.5L-4.3 -2.5Z" stroke="#ff341a" fill="none" stroke-width="1"></path></g><g transform="translate(719 92)"><path d="M0 -4L3.5 -2L3.5 2L0 4L-3.5 2L-3.5 -2Z" stroke="#ff341a" fill="none" stroke-width="1"></path></g><g transform="translate(312 395)"><path d="M0 -8L6.9 -4L6.9 4L0 8L-6.9 4L-6.9 -4Z" stroke="#ff341a" fill="none" stroke-width="1"></path></g><g transform="translate(192 440)"><path d="M0 -12L10.4 -6L10.4 6L0 12L-10.4 6L-10.4 -6Z" stroke="#ff341a" fill="none" stroke-width="1"></path></g><g transform="translate(211 305)"><path d="M0 -3L2.6 -1.5L2.6 1.5L0 3L-2.6 1.5L-2.6 -1.5Z" stroke="#ff341a" fill="none" stroke-width="1"></path></g><g transform="translate(898 26)"><path d="M0 -10L8.7 -5L8.7 5L0 10L-8.7 5L-8.7 -5Z" stroke="#ff341a" fill="none" stroke-width="1"></path></g><g transform="translate(406 456)"><path d="M0 -12L10.4 -6L10.4 6L0 12L-10.4 6L-10.4 -6Z" stroke="#ff341a" fill="none" stroke-width="1"></path></g><g transform="translate(106 121)"><path d="M0 -9L7.8 -4.5L7.8 4.5L0 9L-7.8 4.5L-7.8 -4.5Z" stroke="#ff341a" fill="none" stroke-width="1"></path></g><g transform="translate(693 171)"><path d="M0 -10L8.7 -5L8.7 5L0 10L-8.7 5L-8.7 -5Z" stroke="#ff341a" fill="none" stroke-width="1"></path></g><g transform="translate(59 2)"><path d="M0 -10L8.7 -5L8.7 5L0 10L-8.7 5L-8.7 -5Z" stroke="#ff341a" fill="none" stroke-width="1"></path></g><g transform="translate(297 357)"><path d="M0 -11L9.5 -5.5L9.5 5.5L0 11L-9.5 5.5L-9.5 -5.5Z" stroke="#ff341a" fill="none" stroke-width="1"></path></g><g transform="translate(550 58)"><path d="M0 -8L6.9 -4L6.9 4L0 8L-6.9 4L-6.9 -4Z" stroke="#ff341a" fill="none" stroke-width="1"></path></g></g></svg>