<svg id="visual" viewBox="0 0 1920 1080" width="1920" height="1080" xmlns="http://www.w3.org/2000/svg" xmlns:xlink="http://www.w3.org/1999/xlink" version="1.1"><rect width="1920" height="1080" fill="#212529"></rect><g><g transform="translate(1108 221)"><path d="M0 -202.4L175.3 -101.2L175.3 101.2L0 202.4L-175.3 101.2L-175.3 -101.2Z" fill="none" stroke="#ff341a" stroke-width="5"></path></g><g transform="translate(834 829)"><path d="M0 -92L79.7 -46L79.7 46L0 92L-79.7 46L-79.7 -46Z" fill="none" stroke="#ff341a" stroke-width="5"></path></g><g transform="translate(292 102)"><path d="M0 -92L79.7 -46L79.7 46L0 92L-79.7 46L-79.7 -46Z" stroke="#ff341a" fill="none" stroke-width="5"></path></g><g transform="translate(1836 674)"><path d="M0 -92L79.7 -46L79.7 46L0 92L-79.7 46L-79.7 -46Z" stroke="#ff341a" fill="none" stroke-width="5"></path></g><g transform="translate(1506 404)"><path d="M0 -40L34.6 -20L34.6 20L0 40L-34.6 20L-34.6 -20Z" stroke="#ff341a" fill="none" stroke-width="5"></path></g><g transform="translate(483 1033)"><path d="M0 -55L47.6 -27.5L47.6 27.5L0 55L-47.6 27.5L-47.6 -27.5Z" stroke="#ff341a" fill="none" stroke-width="5"></path></g><g transform="translate(535 488)"><path d="M0 -135L116.9 -67.5L116.9 67.5L0 135L-116.9 67.5L-116.9 -67.5Z" stroke="#ff341a" fill="none" stroke-width="5"></path></g><g transform="translate(1315 817)"><path d="M0 -81L70.1 -40.5L70.1 40.5L0 81L-70.1 40.5L-70.1 -40.5Z" stroke="#ff341a" fill="none" stroke-width="5"></path></g><g transform="translate(12 946)"><path d="M0 -55L47.6 -27.5L47.6 27.5L0 55L-47.6 27.5L-47.6 -27.5Z" stroke="#ff341a" fill="none" stroke-width="5"></path></g><g transform="translate(1816 19)"><path d="M0 -149L129 -74.5L129 74.5L0 149L-129 74.5L-129 -74.5Z" stroke="#ff341a" fill="none" stroke-width="5"></path></g><g transform="translate(714 3)"><path d="M0 -163L141.2 -81.5L141.2 81.5L0 163L-141.2 81.5L-141.2 -81.5Z" stroke="#ff341a" fill="none" stroke-width="5"></path></g></g></svg>