<svg id="visual" viewBox="0 0 900 600" width="900" height="600" xmlns="http://www.w3.org/2000/svg" xmlns:xlink="http://www.w3.org/1999/xlink" version="1.1"><rect width="900" height="600" fill="#000000"></rect><g><g transform="translate(523 244)"><path d="M0 -13.1L11.4 -6.6L11.4 6.6L0 13.1L-11.4 6.6L-11.4 -6.6Z" fill="none" stroke="#185967" stroke-width="1"></path></g><g transform="translate(674 56)"><path d="M0 -10L8.7 -5L8.7 5L0 10L-8.7 5L-8.7 -5Z" fill="none" stroke="#185967" stroke-width="1"></path></g><g transform="translate(490 102)"><path d="M0 -1L0.9 -0.5L0.9 0.5L0 1L-0.9 0.5L-0.9 -0.5Z" fill="none" stroke="#185967" stroke-width="1"></path></g><g transform="translate(854 532)"><path d="M0 -2L1.7 -1L1.7 1L0 2L-1.7 1L-1.7 -1Z" stroke="#185967" fill="none" stroke-width="1"></path></g><g transform="translate(115 66)"><path d="M0 -2L1.7 -1L1.7 1L0 2L-1.7 1L-1.7 -1Z" stroke="#185967" fill="none" stroke-width="1"></path></g><g transform="translate(192 360)"><path d="M0 -1L0.9 -0.5L0.9 0.5L0 1L-0.9 0.5L-0.9 -0.5Z" stroke="#185967" fill="none" stroke-width="1"></path></g><g transform="translate(817 311)"><path d="M0 -4L3.5 -2L3.5 2L0 4L-3.5 2L-3.5 -2Z" stroke="#185967" fill="none" stroke-width="1"></path></g><g transform="translate(372 485)"><path d="M0 -6L5.2 -3L5.2 3L0 6L-5.2 3L-5.2 -3Z" stroke="#185967" fill="none" stroke-width="1"></path></g><g transform="translate(893 394)"><path d="M0 -7L6.1 -3.5L6.1 3.5L0 7L-6.1 3.5L-6.1 -3.5Z" stroke="#185967" fill="none" stroke-width="1"></path></g><g transform="translate(351 98)"><path d="M0 -1L0.9 -0.5L0.9 0.5L0 1L-0.9 0.5L-0.9 -0.5Z" stroke="#185967" fill="none" stroke-width="1"></path></g><g transform="translate(551 478)"><path d="M0 -8L6.9 -4L6.9 4L0 8L-6.9 4L-6.9 -4Z" stroke="#185967" fill="none" stroke-width="1"></path></g><g transform="translate(824 225)"><path d="M0 -2L1.7 -1L1.7 1L0 2L-1.7 1L-1.7 -1Z" stroke="#185967" fill="none" stroke-width="1"></path></g><g transform="translate(167 84)"><path d="M0 -1L0.9 -0.5L0.9 0.5L0 1L-0.9 0.5L-0.9 -0.5Z" stroke="#185967" fill="none" stroke-width="1"></path></g><g transform="translate(414 146)"><path d="M0 -2L1.7 -1L1.7 1L0 2L-1.7 1L-1.7 -1Z" stroke="#185967" fill="none" stroke-width="1"></path></g><g transform="translate(592 5)"><path d="M0 -5L4.3 -2.5L4.3 2.5L0 5L-4.3 2.5L-4.3 -2.5Z" stroke="#185967" fill="none" stroke-width="1"></path></g><g transform="translate(101 161)"><path d="M0 -10L8.7 -5L8.7 5L0 10L-8.7 5L-8.7 -5Z" stroke="#185967" fill="none" stroke-width="1"></path></g><g transform="translate(795 525)"><path d="M0 -4L3.5 -2L3.5 2L0 4L-3.5 2L-3.5 -2Z" stroke="#185967" fill="none" stroke-width="1"></path></g><g transform="translate(695 219)"><path d="M0 -6L5.2 -3L5.2 3L0 6L-5.2 3L-5.2 -3Z" stroke="#185967" fill="none" stroke-width="1"></path></g><g transform="translate(408 483)"><path d="M0 -7L6.1 -3.5L6.1 3.5L0 7L-6.1 3.5L-6.1 -3.5Z" stroke="#185967" fill="none" stroke-width="1"></path></g><g transform="translate(860 189)"><path d="M0 -6L5.2 -3L5.2 3L0 6L-5.2 3L-5.2 -3Z" stroke="#185967" fill="none" stroke-width="1"></path></g><g transform="translate(662 191)"><path d="M0 -8L6.9 -4L6.9 4L0 8L-6.9 4L-6.9 -4Z" stroke="#185967" fill="none" stroke-width="1"></path></g><g transform="translate(706 570)"><path d="M0 -11L9.5 -5.5L9.5 5.5L0 11L-9.5 5.5L-9.5 -5.5Z" stroke="#185967" fill="none" stroke-width="1"></path></g><g transform="translate(337 423)"><path d="M0 -2L1.7 -1L1.7 1L0 2L-1.7 1L-1.7 -1Z" stroke="#185967" fill="none" stroke-width="1"></path></g><g transform="translate(205 129)"><path d="M0 -5L4.3 -2.5L4.3 2.5L0 5L-4.3 2.5L-4.3 -2.5Z" stroke="#185967" fill="none" stroke-width="1"></path></g><g transform="translate(70 344)"><path d="M0 -11L9.5 -5.5L9.5 5.5L0 11L-9.5 5.5L-9.5 -5.5Z" stroke="#185967" fill="none" stroke-width="1"></path></g><g transform="translate(780 306)"><path d="M0 -7L6.1 -3.5L6.1 3.5L0 7L-6.1 3.5L-6.1 -3.5Z" stroke="#185967" fill="none" stroke-width="1"></path></g><g transform="translate(399 239)"><path d="M0 -3L2.6 -1.5L2.6 1.5L0 3L-2.6 1.5L-2.6 -1.5Z" stroke="#185967" fill="none" stroke-width="1"></path></g><g transform="translate(142 473)"><path d="M0 -11L9.5 -5.5L9.5 5.5L0 11L-9.5 5.5L-9.5 -5.5Z" stroke="#185967" fill="none" stroke-width="1"></path></g><g transform="translate(108 517)"><path d="M0 -7L6.1 -3.5L6.1 3.5L0 7L-6.1 3.5L-6.1 -3.5Z" stroke="#185967" fill="none" stroke-width="1"></path></g><g transform="translate(895 536)"><path d="M0 -2L1.7 -1L1.7 1L0 2L-1.7 1L-1.7 -1Z" stroke="#185967" fill="none" stroke-width="1"></path></g><g transform="translate(235 311)"><path d="M0 -9L7.8 -4.5L7.8 4.5L0 9L-7.8 4.5L-7.8 -4.5Z" stroke="#185967" fill="none" stroke-width="1"></path></g><g transform="translate(218 70)"><path d="M0 -3L2.6 -1.5L2.6 1.5L0 3L-2.6 1.5L-2.6 -1.5Z" stroke="#185967" fill="none" stroke-width="1"></path></g><g transform="translate(529 67)"><path d="M0 -12L10.4 -6L10.4 6L0 12L-10.4 6L-10.4 -6Z" stroke="#185967" fill="none" stroke-width="1"></path></g><g transform="translate(4 129)"><path d="M0 -4L3.5 -2L3.5 2L0 4L-3.5 2L-3.5 -2Z" stroke="#185967" fill="none" stroke-width="1"></path></g><g transform="translate(115 360)"><path d="M0 -1L0.9 -0.5L0.9 0.5L0 1L-0.9 0.5L-0.9 -0.5Z" stroke="#185967" fill="none" stroke-width="1"></path></g><g transform="translate(279 483)"><path d="M0 -2L1.7 -1L1.7 1L0 2L-1.7 1L-1.7 -1Z" stroke="#185967" fill="none" stroke-width="1"></path></g><g transform="translate(609 69)"><path d="M0 -7L6.1 -3.5L6.1 3.5L0 7L-6.1 3.5L-6.1 -3.5Z" stroke="#185967" fill="none" stroke-width="1"></path></g><g transform="translate(738 91)"><path d="M0 -12L10.4 -6L10.4 6L0 12L-10.4 6L-10.4 -6Z" stroke="#185967" fill="none" stroke-width="1"></path></g><g transform="translate(333 234)"><path d="M0 -1L0.9 -0.5L0.9 0.5L0 1L-0.9 0.5L-0.9 -0.5Z" stroke="#185967" fill="none" stroke-width="1"></path></g><g transform="translate(385 60)"><path d="M0 -5L4.3 -2.5L4.3 2.5L0 5L-4.3 2.5L-4.3 -2.5Z" stroke="#185967" fill="none" stroke-width="1"></path></g><g transform="translate(447 389)"><path d="M0 -6L5.2 -3L5.2 3L0 6L-5.2 3L-5.2 -3Z" stroke="#185967" fill="none" stroke-width="1"></path></g><g transform="translate(766 575)"><path d="M0 -7L6.1 -3.5L6.1 3.5L0 7L-6.1 3.5L-6.1 -3.5Z" stroke="#185967" fill="none" stroke-width="1"></path></g><g transform="translate(469 535)"><path d="M0 -6L5.2 -3L5.2 3L0 6L-5.2 3L-5.2 -3Z" stroke="#185967" fill="none" stroke-width="1"></path></g><g transform="translate(385 593)"><path d="M0 -11L9.5 -5.5L9.5 5.5L0 11L-9.5 5.5L-9.5 -5.5Z" stroke="#185967" fill="none" stroke-width="1"></path></g><g transform="translate(410 341)"><path d="M0 -10L8.7 -5L8.7 5L0 10L-8.7 5L-8.7 -5Z" stroke="#185967" fill="none" stroke-width="1"></path></g><g transform="translate(741 444)"><path d="M0 -10L8.7 -5L8.7 5L0 10L-8.7 5L-8.7 -5Z" stroke="#185967" fill="none" stroke-width="1"></path></g><g transform="translate(871 296)"><path d="M0 -9L7.8 -4.5L7.8 4.5L0 9L-7.8 4.5L-7.8 -4.5Z" stroke="#185967" fill="none" stroke-width="1"></path></g><g transform="translate(522 131)"><path d="M0 -12L10.4 -6L10.4 6L0 12L-10.4 6L-10.4 -6Z" stroke="#185967" fill="none" stroke-width="1"></path></g><g transform="translate(145 376)"><path d="M0 -6L5.2 -3L5.2 3L0 6L-5.2 3L-5.2 -3Z" stroke="#185967" fill="none" stroke-width="1"></path></g><g transform="translate(507 343)"><path d="M0 -1L0.9 -0.5L0.9 0.5L0 1L-0.9 0.5L-0.9 -0.5Z" stroke="#185967" fill="none" stroke-width="1"></path></g><g transform="translate(17 404)"><path d="M0 -8L6.9 -4L6.9 4L0 8L-6.9 4L-6.9 -4Z" stroke="#185967" fill="none" stroke-width="1"></path></g><g transform="translate(91 391)"><path d="M0 -3L2.6 -1.5L2.6 1.5L0 3L-2.6 1.5L-2.6 -1.5Z" stroke="#185967" fill="none" stroke-width="1"></path></g><g transform="translate(50 523)"><path d="M0 -7L6.1 -3.5L6.1 3.5L0 7L-6.1 3.5L-6.1 -3.5Z" stroke="#185967" fill="none" stroke-width="1"></path></g><g transform="translate(445 168)"><path d="M0 -5L4.3 -2.5L4.3 2.5L0 5L-4.3 2.5L-4.3 -2.5Z" stroke="#185967" fill="none" stroke-width="1"></path></g><g transform="translate(75 536)"><path d="M0 -10L8.7 -5L8.7 5L0 10L-8.7 5L-8.7 -5Z" stroke="#185967" fill="none" stroke-width="1"></path></g><g transform="translate(672 239)"><path d="M0 -4L3.5 -2L3.5 2L0 4L-3.5 2L-3.5 -2Z" stroke="#185967" fill="none" stroke-width="1"></path></g><g transform="translate(896 282)"><path d="M0 -1L0.9 -0.5L0.9 0.5L0 1L-0.9 0.5L-0.9 -0.5Z" stroke="#185967" fill="none" stroke-width="1"></path></g><g transform="translate(649 550)"><path d="M0 -8L6.9 -4L6.9 4L0 8L-6.9 4L-6.9 -4Z" stroke="#185967" fill="none" stroke-width="1"></path></g><g transform="translate(527 574)"><path d="M0 -12L10.4 -6L10.4 6L0 12L-10.4 6L-10.4 -6Z" stroke="#185967" fill="none" stroke-width="1"></path></g><g transform="translate(403 25)"><path d="M0 -10L8.7 -5L8.7 5L0 10L-8.7 5L-8.7 -5Z" stroke="#185967" fill="none" stroke-width="1"></path></g><g transform="translate(195 97)"><path d="M0 -7L6.1 -3.5L6.1 3.5L0 7L-6.1 3.5L-6.1 -3.5Z" stroke="#185967" fill="none" stroke-width="1"></path></g><g transform="translate(325 493)"><path d="M0 -6L5.2 -3L5.2 3L0 6L-5.2 3L-5.2 -3Z" stroke="#185967" fill="none" stroke-width="1"></path></g><g transform="translate(273 49)"><path d="M0 -1L0.9 -0.5L0.9 0.5L0 1L-0.9 0.5L-0.9 -0.5Z" stroke="#185967" fill="none" stroke-width="1"></path></g><g transform="translate(433 83)"><path d="M0 -10L8.7 -5L8.7 5L0 10L-8.7 5L-8.7 -5Z" stroke="#185967" fill="none" stroke-width="1"></path></g><g transform="translate(791 208)"><path d="M0 -10L8.7 -5L8.7 5L0 10L-8.7 5L-8.7 -5Z" stroke="#185967" fill="none" stroke-width="1"></path></g><g transform="translate(612 332)"><path d="M0 -1L0.9 -0.5L0.9 0.5L0 1L-0.9 0.5L-0.9 -0.5Z" stroke="#185967" fill="none" stroke-width="1"></path></g><g transform="translate(248 236)"><path d="M0 -3L2.6 -1.5L2.6 1.5L0 3L-2.6 1.5L-2.6 -1.5Z" stroke="#185967" fill="none" stroke-width="1"></path></g><g transform="translate(450 131)"><path d="M0 -5L4.3 -2.5L4.3 2.5L0 5L-4.3 2.5L-4.3 -2.5Z" stroke="#185967" fill="none" stroke-width="1"></path></g><g transform="translate(177 197)"><path d="M0 -11L9.5 -5.5L9.5 5.5L0 11L-9.5 5.5L-9.5 -5.5Z" stroke="#185967" fill="none" stroke-width="1"></path></g><g transform="translate(24 585)"><path d="M0 -9L7.8 -4.5L7.8 4.5L0 9L-7.8 4.5L-7.8 -4.5Z" stroke="#185967" fill="none" stroke-width="1"></path></g><g transform="translate(617 238)"><path d="M0 -8L6.9 -4L6.9 4L0 8L-6.9 4L-6.9 -4Z" stroke="#185967" fill="none" stroke-width="1"></path></g><g transform="translate(533 514)"><path d="M0 -1L0.9 -0.5L0.9 0.5L0 1L-0.9 0.5L-0.9 -0.5Z" stroke="#185967" fill="none" stroke-width="1"></path></g><g transform="translate(157 268)"><path d="M0 -6L5.2 -3L5.2 3L0 6L-5.2 3L-5.2 -3Z" stroke="#185967" fill="none" stroke-width="1"></path></g><g transform="translate(326 268)"><path d="M0 -3L2.6 -1.5L2.6 1.5L0 3L-2.6 1.5L-2.6 -1.5Z" stroke="#185967" fill="none" stroke-width="1"></path></g><g transform="translate(243 110)"><path d="M0 -8L6.9 -4L6.9 4L0 8L-6.9 4L-6.9 -4Z" stroke="#185967" fill="none" stroke-width="1"></path></g><g transform="translate(676 363)"><path d="M0 -7L6.1 -3.5L6.1 3.5L0 7L-6.1 3.5L-6.1 -3.5Z" stroke="#185967" fill="none" stroke-width="1"></path></g><g transform="translate(853 102)"><path d="M0 -2L1.7 -1L1.7 1L0 2L-1.7 1L-1.7 -1Z" stroke="#185967" fill="none" stroke-width="1"></path></g><g transform="translate(872 254)"><path d="M0 -2L1.7 -1L1.7 1L0 2L-1.7 1L-1.7 -1Z" stroke="#185967" fill="none" stroke-width="1"></path></g><g transform="translate(200 245)"><path d="M0 -6L5.2 -3L5.2 3L0 6L-5.2 3L-5.2 -3Z" stroke="#185967" fill="none" stroke-width="1"></path></g><g transform="translate(23 167)"><path d="M0 -10L8.7 -5L8.7 5L0 10L-8.7 5L-8.7 -5Z" stroke="#185967" fill="none" stroke-width="1"></path></g><g transform="translate(279 336)"><path d="M0 -7L6.1 -3.5L6.1 3.5L0 7L-6.1 3.5L-6.1 -3.5Z" stroke="#185967" fill="none" stroke-width="1"></path></g><g transform="translate(648 388)"><path d="M0 -5L4.3 -2.5L4.3 2.5L0 5L-4.3 2.5L-4.3 -2.5Z" stroke="#185967" fill="none" stroke-width="1"></path></g><g transform="translate(272 416)"><path d="M0 -4L3.5 -2L3.5 2L0 4L-3.5 2L-3.5 -2Z" stroke="#185967" fill="none" stroke-width="1"></path></g><g transform="translate(873 8)"><path d="M0 -6L5.2 -3L5.2 3L0 6L-5.2 3L-5.2 -3Z" stroke="#185967" fill="none" stroke-width="1"></path></g><g transform="translate(29 283)"><path d="M0 -7L6.1 -3.5L6.1 3.5L0 7L-6.1 3.5L-6.1 -3.5Z" stroke="#185967" fill="none" stroke-width="1"></path></g><g transform="translate(603 498)"><path d="M0 -9L7.8 -4.5L7.8 4.5L0 9L-7.8 4.5L-7.8 -4.5Z" stroke="#185967" fill="none" stroke-width="1"></path></g><g transform="translate(731 244)"><path d="M0 -3L2.6 -1.5L2.6 1.5L0 3L-2.6 1.5L-2.6 -1.5Z" stroke="#185967" fill="none" stroke-width="1"></path></g><g transform="translate(518 199)"><path d="M0 -3L2.6 -1.5L2.6 1.5L0 3L-2.6 1.5L-2.6 -1.5Z" stroke="#185967" fill="none" stroke-width="1"></path></g><g transform="translate(746 66)"><path d="M0 -5L4.3 -2.5L4.3 2.5L0 5L-4.3 2.5L-4.3 -2.5Z" stroke="#185967" fill="none" stroke-width="1"></path></g><g transform="translate(272 560)"><path d="M0 -8L6.9 -4L6.9 4L0 8L-6.9 4L-6.9 -4Z" stroke="#185967" fill="none" stroke-width="1"></path></g><g transform="translate(308 365)"><path d="M0 -12L10.4 -6L10.4 6L0 12L-10.4 6L-10.4 -6Z" stroke="#185967" fill="none" stroke-width="1"></path></g><g transform="translate(566 155)"><path d="M0 -1L0.9 -0.5L0.9 0.5L0 1L-0.9 0.5L-0.9 -0.5Z" stroke="#185967" fill="none" stroke-width="1"></path></g><g transform="translate(712 128)"><path d="M0 -11L9.5 -5.5L9.5 5.5L0 11L-9.5 5.5L-9.5 -5.5Z" stroke="#185967" fill="none" stroke-width="1"></path></g><g transform="translate(586 354)"><path d="M0 -9L7.8 -4.5L7.8 4.5L0 9L-7.8 4.5L-7.8 -4.5Z" stroke="#185967" fill="none" stroke-width="1"></path></g><g transform="translate(858 59)"><path d="M0 -3L2.6 -1.5L2.6 1.5L0 3L-2.6 1.5L-2.6 -1.5Z" stroke="#185967" fill="none" stroke-width="1"></path></g><g transform="translate(47 421)"><path d="M0 -8L6.9 -4L6.9 4L0 8L-6.9 4L-6.9 -4Z" stroke="#185967" fill="none" stroke-width="1"></path></g><g transform="translate(868 410)"><path d="M0 -6L5.2 -3L5.2 3L0 6L-5.2 3L-5.2 -3Z" stroke="#185967" fill="none" stroke-width="1"></path></g><g transform="translate(642 153)"><path d="M0 -12L10.4 -6L10.4 6L0 12L-10.4 6L-10.4 -6Z" stroke="#185967" fill="none" stroke-width="1"></path></g><g transform="translate(116 333)"><path d="M0 -7L6.1 -3.5L6.1 3.5L0 7L-6.1 3.5L-6.1 -3.5Z" stroke="#185967" fill="none" stroke-width="1"></path></g><g transform="translate(865 453)"><path d="M0 -4L3.5 -2L3.5 2L0 4L-3.5 2L-3.5 -2Z" stroke="#185967" fill="none" stroke-width="1"></path></g><g transform="translate(352 281)"><path d="M0 -6L5.2 -3L5.2 3L0 6L-5.2 3L-5.2 -3Z" stroke="#185967" fill="none" stroke-width="1"></path></g><g transform="translate(446 13)"><path d="M0 -2L1.7 -1L1.7 1L0 2L-1.7 1L-1.7 -1Z" stroke="#185967" fill="none" stroke-width="1"></path></g><g transform="translate(590 439)"><path d="M0 -1L0.9 -0.5L0.9 0.5L0 1L-0.9 0.5L-0.9 -0.5Z" stroke="#185967" fill="none" stroke-width="1"></path></g><g transform="translate(209 334)"><path d="M0 -1L0.9 -0.5L0.9 0.5L0 1L-0.9 0.5L-0.9 -0.5Z" stroke="#185967" fill="none" stroke-width="1"></path></g><g transform="translate(802 411)"><path d="M0 -2L1.7 -1L1.7 1L0 2L-1.7 1L-1.7 -1Z" stroke="#185967" fill="none" stroke-width="1"></path></g><g transform="translate(232 142)"><path d="M0 -6L5.2 -3L5.2 3L0 6L-5.2 3L-5.2 -3Z" stroke="#185967" fill="none" stroke-width="1"></path></g><g transform="translate(695 150)"><path d="M0 -3L2.6 -1.5L2.6 1.5L0 3L-2.6 1.5L-2.6 -1.5Z" stroke="#185967" fill="none" stroke-width="1"></path></g><g transform="translate(772 545)"><path d="M0 -7L6.1 -3.5L6.1 3.5L0 7L-6.1 3.5L-6.1 -3.5Z" stroke="#185967" fill="none" stroke-width="1"></path></g><g transform="translate(658 494)"><path d="M0 -7L6.1 -3.5L6.1 3.5L0 7L-6.1 3.5L-6.1 -3.5Z" stroke="#185967" fill="none" stroke-width="1"></path></g><g transform="translate(288 135)"><path d="M0 -6L5.2 -3L5.2 3L0 6L-5.2 3L-5.2 -3Z" stroke="#185967" fill="none" stroke-width="1"></path></g><g transform="translate(97 208)"><path d="M0 -3L2.6 -1.5L2.6 1.5L0 3L-2.6 1.5L-2.6 -1.5Z" stroke="#185967" fill="none" stroke-width="1"></path></g><g transform="translate(724 45)"><path d="M0 -6L5.2 -3L5.2 3L0 6L-5.2 3L-5.2 -3Z" stroke="#185967" fill="none" stroke-width="1"></path></g><g transform="translate(316 457)"><path d="M0 -8L6.9 -4L6.9 4L0 8L-6.9 4L-6.9 -4Z" stroke="#185967" fill="none" stroke-width="1"></path></g><g transform="translate(358 407)"><path d="M0 -2L1.7 -1L1.7 1L0 2L-1.7 1L-1.7 -1Z" stroke="#185967" fill="none" stroke-width="1"></path></g><g transform="translate(686 311)"><path d="M0 -8L6.9 -4L6.9 4L0 8L-6.9 4L-6.9 -4Z" stroke="#185967" fill="none" stroke-width="1"></path></g><g transform="translate(316 188)"><path d="M0 -9L7.8 -4.5L7.8 4.5L0 9L-7.8 4.5L-7.8 -4.5Z" stroke="#185967" fill="none" stroke-width="1"></path></g><g transform="translate(36 114)"><path d="M0 -5L4.3 -2.5L4.3 2.5L0 5L-4.3 2.5L-4.3 -2.5Z" stroke="#185967" fill="none" stroke-width="1"></path></g><g transform="translate(104 276)"><path d="M0 -6L5.2 -3L5.2 3L0 6L-5.2 3L-5.2 -3Z" stroke="#185967" fill="none" stroke-width="1"></path></g><g transform="translate(646 88)"><path d="M0 -12L10.4 -6L10.4 6L0 12L-10.4 6L-10.4 -6Z" stroke="#185967" fill="none" stroke-width="1"></path></g><g transform="translate(616 374)"><path d="M0 -6L5.2 -3L5.2 3L0 6L-5.2 3L-5.2 -3Z" stroke="#185967" fill="none" stroke-width="1"></path></g><g transform="translate(194 448)"><path d="M0 -1L0.9 -0.5L0.9 0.5L0 1L-0.9 0.5L-0.9 -0.5Z" stroke="#185967" fill="none" stroke-width="1"></path></g><g transform="translate(274 88)"><path d="M0 -12L10.4 -6L10.4 6L0 12L-10.4 6L-10.4 -6Z" stroke="#185967" fill="none" stroke-width="1"></path></g><g transform="translate(789 353)"><path d="M0 -10L8.7 -5L8.7 5L0 10L-8.7 5L-8.7 -5Z" stroke="#185967" fill="none" stroke-width="1"></path></g><g transform="translate(860 572)"><path d="M0 -7L6.1 -3.5L6.1 3.5L0 7L-6.1 3.5L-6.1 -3.5Z" stroke="#185967" fill="none" stroke-width="1"></path></g><g transform="translate(330 328)"><path d="M0 -7L6.1 -3.5L6.1 3.5L0 7L-6.1 3.5L-6.1 -3.5Z" stroke="#185967" fill="none" stroke-width="1"></path></g><g transform="translate(734 304)"><path d="M0 -5L4.3 -2.5L4.3 2.5L0 5L-4.3 2.5L-4.3 -2.5Z" stroke="#185967" fill="none" stroke-width="1"></path></g><g transform="translate(779 470)"><path d="M0 -12L10.4 -6L10.4 6L0 12L-10.4 6L-10.4 -6Z" stroke="#185967" fill="none" stroke-width="1"></path></g><g transform="translate(194 296)"><path d="M0 -5L4.3 -2.5L4.3 2.5L0 5L-4.3 2.5L-4.3 -2.5Z" stroke="#185967" fill="none" stroke-width="1"></path></g><g transform="translate(251 208)"><path d="M0 -8L6.9 -4L6.9 4L0 8L-6.9 4L-6.9 -4Z" stroke="#185967" fill="none" stroke-width="1"></path></g><g transform="translate(57 586)"><path d="M0 -10L8.7 -5L8.7 5L0 10L-8.7 5L-8.7 -5Z" stroke="#185967" fill="none" stroke-width="1"></path></g><g transform="translate(318 35)"><path d="M0 -1L0.9 -0.5L0.9 0.5L0 1L-0.9 0.5L-0.9 -0.5Z" stroke="#185967" fill="none" stroke-width="1"></path></g><g transform="translate(614 554)"><path d="M0 -3L2.6 -1.5L2.6 1.5L0 3L-2.6 1.5L-2.6 -1.5Z" stroke="#185967" fill="none" stroke-width="1"></path></g><g transform="translate(609 264)"><path d="M0 -2L1.7 -1L1.7 1L0 2L-1.7 1L-1.7 -1Z" stroke="#185967" fill="none" stroke-width="1"></path></g><g transform="translate(432 53)"><path d="M0 -6L5.2 -3L5.2 3L0 6L-5.2 3L-5.2 -3Z" stroke="#185967" fill="none" stroke-width="1"></path></g><g transform="translate(840 426)"><path d="M0 -5L4.3 -2.5L4.3 2.5L0 5L-4.3 2.5L-4.3 -2.5Z" stroke="#185967" fill="none" stroke-width="1"></path></g><g transform="translate(849 322)"><path d="M0 -12L10.4 -6L10.4 6L0 12L-10.4 6L-10.4 -6Z" stroke="#185967" fill="none" stroke-width="1"></path></g><g transform="translate(708 527)"><path d="M0 -10L8.7 -5L8.7 5L0 10L-8.7 5L-8.7 -5Z" stroke="#185967" fill="none" stroke-width="1"></path></g><g transform="translate(653 339)"><path d="M0 -5L4.3 -2.5L4.3 2.5L0 5L-4.3 2.5L-4.3 -2.5Z" stroke="#185967" fill="none" stroke-width="1"></path></g><g transform="translate(816 557)"><path d="M0 -3L2.6 -1.5L2.6 1.5L0 3L-2.6 1.5L-2.6 -1.5Z" stroke="#185967" fill="none" stroke-width="1"></path></g><g transform="translate(194 575)"><path d="M0 -6L5.2 -3L5.2 3L0 6L-5.2 3L-5.2 -3Z" stroke="#185967" fill="none" stroke-width="1"></path></g><g transform="translate(515 375)"><path d="M0 -3L2.6 -1.5L2.6 1.5L0 3L-2.6 1.5L-2.6 -1.5Z" stroke="#185967" fill="none" stroke-width="1"></path></g><g transform="translate(813 452)"><path d="M0 -11L9.5 -5.5L9.5 5.5L0 11L-9.5 5.5L-9.5 -5.5Z" stroke="#185967" fill="none" stroke-width="1"></path></g><g transform="translate(180 502)"><path d="M0 -8L6.9 -4L6.9 4L0 8L-6.9 4L-6.9 -4Z" stroke="#185967" fill="none" stroke-width="1"></path></g><g transform="translate(488 389)"><path d="M0 -4L3.5 -2L3.5 2L0 4L-3.5 2L-3.5 -2Z" stroke="#185967" fill="none" stroke-width="1"></path></g><g transform="translate(497 449)"><path d="M0 -11L9.5 -5.5L9.5 5.5L0 11L-9.5 5.5L-9.5 -5.5Z" stroke="#185967" fill="none" stroke-width="1"></path></g><g transform="translate(11 358)"><path d="M0 -5L4.3 -2.5L4.3 2.5L0 5L-4.3 2.5L-4.3 -2.5Z" stroke="#185967" fill="none" stroke-width="1"></path></g><g transform="translate(591 194)"><path d="M0 -3L2.6 -1.5L2.6 1.5L0 3L-2.6 1.5L-2.6 -1.5Z" stroke="#185967" fill="none" stroke-width="1"></path></g><g transform="translate(51 310)"><path d="M0 -2L1.7 -1L1.7 1L0 2L-1.7 1L-1.7 -1Z" stroke="#185967" fill="none" stroke-width="1"></path></g><g transform="translate(646 304)"><path d="M0 -1L0.9 -0.5L0.9 0.5L0 1L-0.9 0.5L-0.9 -0.5Z" stroke="#185967" fill="none" stroke-width="1"></path></g><g transform="translate(244 44)"><path d="M0 -3L2.6 -1.5L2.6 1.5L0 3L-2.6 1.5L-2.6 -1.5Z" stroke="#185967" fill="none" stroke-width="1"></path></g><g transform="translate(413 277)"><path d="M0 -3L2.6 -1.5L2.6 1.5L0 3L-2.6 1.5L-2.6 -1.5Z" stroke="#185967" fill="none" stroke-width="1"></path></g><g transform="translate(369 258)"><path d="M0 -11L9.5 -5.5L9.5 5.5L0 11L-9.5 5.5L-9.5 -5.5Z" stroke="#185967" fill="none" stroke-width="1"></path></g><g transform="translate(521 463)"><path d="M0 -8L6.9 -4L6.9 4L0 8L-6.9 4L-6.9 -4Z" stroke="#185967" fill="none" stroke-width="1"></path></g><g transform="translate(476 34)"><path d="M0 -11L9.5 -5.5L9.5 5.5L0 11L-9.5 5.5L-9.5 -5.5Z" stroke="#185967" fill="none" stroke-width="1"></path></g><g transform="translate(713 410)"><path d="M0 -7L6.1 -3.5L6.1 3.5L0 7L-6.1 3.5L-6.1 -3.5Z" stroke="#185967" fill="none" stroke-width="1"></path></g><g transform="translate(889 317)"><path d="M0 -4L3.5 -2L3.5 2L0 4L-3.5 2L-3.5 -2Z" stroke="#185967" fill="none" stroke-width="1"></path></g><g transform="translate(554 429)"><path d="M0 -2L1.7 -1L1.7 1L0 2L-1.7 1L-1.7 -1Z" stroke="#185967" fill="none" stroke-width="1"></path></g><g transform="translate(55 239)"><path d="M0 -4L3.5 -2L3.5 2L0 4L-3.5 2L-3.5 -2Z" stroke="#185967" fill="none" stroke-width="1"></path></g><g transform="translate(491 226)"><path d="M0 -3L2.6 -1.5L2.6 1.5L0 3L-2.6 1.5L-2.6 -1.5Z" stroke="#185967" fill="none" stroke-width="1"></path></g><g transform="translate(686 80)"><path d="M0 -4L3.5 -2L3.5 2L0 4L-3.5 2L-3.5 -2Z" stroke="#185967" fill="none" stroke-width="1"></path></g><g transform="translate(460 90)"><path d="M0 -10L8.7 -5L8.7 5L0 10L-8.7 5L-8.7 -5Z" stroke="#185967" fill="none" stroke-width="1"></path></g><g transform="translate(155 539)"><path d="M0 -9L7.8 -4.5L7.8 4.5L0 9L-7.8 4.5L-7.8 -4.5Z" stroke="#185967" fill="none" stroke-width="1"></path></g><g transform="translate(615 451)"><path d="M0 -2L1.7 -1L1.7 1L0 2L-1.7 1L-1.7 -1Z" stroke="#185967" fill="none" stroke-width="1"></path></g><g transform="translate(42 20)"><path d="M0 -6L5.2 -3L5.2 3L0 6L-5.2 3L-5.2 -3Z" stroke="#185967" fill="none" stroke-width="1"></path></g><g transform="translate(816 37)"><path d="M0 -12L10.4 -6L10.4 6L0 12L-10.4 6L-10.4 -6Z" stroke="#185967" fill="none" stroke-width="1"></path></g><g transform="translate(696 30)"><path d="M0 -12L10.4 -6L10.4 6L0 12L-10.4 6L-10.4 -6Z" stroke="#185967" fill="none" stroke-width="1"></path></g><g transform="translate(60 178)"><path d="M0 -1L0.9 -0.5L0.9 0.5L0 1L-0.9 0.5L-0.9 -0.5Z" stroke="#185967" fill="none" stroke-width="1"></path></g><g transform="translate(899 159)"><path d="M0 -1L0.9 -0.5L0.9 0.5L0 1L-0.9 0.5L-0.9 -0.5Z" stroke="#185967" fill="none" stroke-width="1"></path></g><g transform="translate(817 380)"><path d="M0 -10L8.7 -5L8.7 5L0 10L-8.7 5L-8.7 -5Z" stroke="#185967" fill="none" stroke-width="1"></path></g><g transform="translate(851 387)"><path d="M0 -8L6.9 -4L6.9 4L0 8L-6.9 4L-6.9 -4Z" stroke="#185967" fill="none" stroke-width="1"></path></g><g transform="translate(390 436)"><path d="M0 -2L1.7 -1L1.7 1L0 2L-1.7 1L-1.7 -1Z" stroke="#185967" fill="none" stroke-width="1"></path></g><g transform="translate(523 303)"><path d="M0 -3L2.6 -1.5L2.6 1.5L0 3L-2.6 1.5L-2.6 -1.5Z" stroke="#185967" fill="none" stroke-width="1"></path></g><g transform="translate(585 569)"><path d="M0 -5L4.3 -2.5L4.3 2.5L0 5L-4.3 2.5L-4.3 -2.5Z" stroke="#185967" fill="none" stroke-width="1"></path></g><g transform="translate(718 194)"><path d="M0 -3L2.6 -1.5L2.6 1.5L0 3L-2.6 1.5L-2.6 -1.5Z" stroke="#185967" fill="none" stroke-width="1"></path></g><g transform="translate(56 141)"><path d="M0 -5L4.3 -2.5L4.3 2.5L0 5L-4.3 2.5L-4.3 -2.5Z" stroke="#185967" fill="none" stroke-width="1"></path></g><g transform="translate(452 209)"><path d="M0 -7L6.1 -3.5L6.1 3.5L0 7L-6.1 3.5L-6.1 -3.5Z" stroke="#185967" fill="none" stroke-width="1"></path></g><g transform="translate(397 208)"><path d="M0 -8L6.9 -4L6.9 4L0 8L-6.9 4L-6.9 -4Z" stroke="#185967" fill="none" stroke-width="1"></path></g><g transform="translate(797 121)"><path d="M0 -10L8.7 -5L8.7 5L0 10L-8.7 5L-8.7 -5Z" stroke="#185967" fill="none" stroke-width="1"></path></g><g transform="translate(400 83)"><path d="M0 -6L5.2 -3L5.2 3L0 6L-5.2 3L-5.2 -3Z" stroke="#185967" fill="none" stroke-width="1"></path></g><g transform="translate(558 294)"><path d="M0 -7L6.1 -3.5L6.1 3.5L0 7L-6.1 3.5L-6.1 -3.5Z" stroke="#185967" fill="none" stroke-width="1"></path></g><g transform="translate(34 456)"><path d="M0 -12L10.4 -6L10.4 6L0 12L-10.4 6L-10.4 -6Z" stroke="#185967" fill="none" stroke-width="1"></path></g><g transform="translate(263 599)"><path d="M0 -2L1.7 -1L1.7 1L0 2L-1.7 1L-1.7 -1Z" stroke="#185967" fill="none" stroke-width="1"></path></g><g transform="translate(231 379)"><path d="M0 -3L2.6 -1.5L2.6 1.5L0 3L-2.6 1.5L-2.6 -1.5Z" stroke="#185967" fill="none" stroke-width="1"></path></g><g transform="translate(483 267)"><path d="M0 -1L0.9 -0.5L0.9 0.5L0 1L-0.9 0.5L-0.9 -0.5Z" stroke="#185967" fill="none" stroke-width="1"></path></g><g transform="translate(368 453)"><path d="M0 -2L1.7 -1L1.7 1L0 2L-1.7 1L-1.7 -1Z" stroke="#185967" fill="none" stroke-width="1"></path></g><g transform="translate(381 324)"><path d="M0 -5L4.3 -2.5L4.3 2.5L0 5L-4.3 2.5L-4.3 -2.5Z" stroke="#185967" fill="none" stroke-width="1"></path></g><g transform="translate(349 176)"><path d="M0 -4L3.5 -2L3.5 2L0 4L-3.5 2L-3.5 -2Z" stroke="#185967" fill="none" stroke-width="1"></path></g><g transform="translate(315 561)"><path d="M0 -9L7.8 -4.5L7.8 4.5L0 9L-7.8 4.5L-7.8 -4.5Z" stroke="#185967" fill="none" stroke-width="1"></path></g><g transform="translate(560 201)"><path d="M0 -12L10.4 -6L10.4 6L0 12L-10.4 6L-10.4 -6Z" stroke="#185967" fill="none" stroke-width="1"></path></g><g transform="translate(273 447)"><path d="M0 -3L2.6 -1.5L2.6 1.5L0 3L-2.6 1.5L-2.6 -1.5Z" stroke="#185967" fill="none" stroke-width="1"></path></g><g transform="translate(219 12)"><path d="M0 -3L2.6 -1.5L2.6 1.5L0 3L-2.6 1.5L-2.6 -1.5Z" stroke="#185967" fill="none" stroke-width="1"></path></g><g transform="translate(215 592)"><path d="M0 -6L5.2 -3L5.2 3L0 6L-5.2 3L-5.2 -3Z" stroke="#185967" fill="none" stroke-width="1"></path></g><g transform="translate(516 536)"><path d="M0 -1L0.9 -0.5L0.9 0.5L0 1L-0.9 0.5L-0.9 -0.5Z" stroke="#185967" fill="none" stroke-width="1"></path></g><g transform="translate(823 149)"><path d="M0 -6L5.2 -3L5.2 3L0 6L-5.2 3L-5.2 -3Z" stroke="#185967" fill="none" stroke-width="1"></path></g><g transform="translate(344 576)"><path d="M0 -10L8.7 -5L8.7 5L0 10L-8.7 5L-8.7 -5Z" stroke="#185967" fill="none" stroke-width="1"></path></g><g transform="translate(677 107)"><path d="M0 -10L8.7 -5L8.7 5L0 10L-8.7 5L-8.7 -5Z" stroke="#185967" fill="none" stroke-width="1"></path></g><g transform="translate(890 572)"><path d="M0 -8L6.9 -4L6.9 4L0 8L-6.9 4L-6.9 -4Z" stroke="#185967" fill="none" stroke-width="1"></path></g><g transform="translate(639 27)"><path d="M0 -1L0.9 -0.5L0.9 0.5L0 1L-0.9 0.5L-0.9 -0.5Z" stroke="#185967" fill="none" stroke-width="1"></path></g><g transform="translate(758 511)"><path d="M0 -11L9.5 -5.5L9.5 5.5L0 11L-9.5 5.5L-9.5 -5.5Z" stroke="#185967" fill="none" stroke-width="1"></path></g><g transform="translate(169 35)"><path d="M0 -12L10.4 -6L10.4 6L0 12L-10.4 6L-10.4 -6Z" stroke="#185967" fill="none" stroke-width="1"></path></g><g transform="translate(293 206)"><path d="M0 -10L8.7 -5L8.7 5L0 10L-8.7 5L-8.7 -5Z" stroke="#185967" fill="none" stroke-width="1"></path></g><g transform="translate(171 408)"><path d="M0 -3L2.6 -1.5L2.6 1.5L0 3L-2.6 1.5L-2.6 -1.5Z" stroke="#185967" fill="none" stroke-width="1"></path></g><g transform="translate(476 344)"><path d="M0 -1L0.9 -0.5L0.9 0.5L0 1L-0.9 0.5L-0.9 -0.5Z" stroke="#185967" fill="none" stroke-width="1"></path></g><g transform="translate(608 107)"><path d="M0 -11L9.5 -5.5L9.5 5.5L0 11L-9.5 5.5L-9.5 -5.5Z" stroke="#185967" fill="none" stroke-width="1"></path></g><g transform="translate(490 587)"><path d="M0 -5L4.3 -2.5L4.3 2.5L0 5L-4.3 2.5L-4.3 -2.5Z" stroke="#185967" fill="none" stroke-width="1"></path></g><g transform="translate(136 514)"><path d="M0 -1L0.9 -0.5L0.9 0.5L0 1L-0.9 0.5L-0.9 -0.5Z" stroke="#185967" fill="none" stroke-width="1"></path></g><g transform="translate(360 356)"><path d="M0 -7L6.1 -3.5L6.1 3.5L0 7L-6.1 3.5L-6.1 -3.5Z" stroke="#185967" fill="none" stroke-width="1"></path></g><g transform="translate(276 183)"><path d="M0 -6L5.2 -3L5.2 3L0 6L-5.2 3L-5.2 -3Z" stroke="#185967" fill="none" stroke-width="1"></path></g><g transform="translate(366 41)"><path d="M0 -12L10.4 -6L10.4 6L0 12L-10.4 6L-10.4 -6Z" stroke="#185967" fill="none" stroke-width="1"></path></g><g transform="translate(130 174)"><path d="M0 -10L8.7 -5L8.7 5L0 10L-8.7 5L-8.7 -5Z" stroke="#185967" fill="none" stroke-width="1"></path></g><g transform="translate(312 407)"><path d="M0 -10L8.7 -5L8.7 5L0 10L-8.7 5L-8.7 -5Z" stroke="#185967" fill="none" stroke-width="1"></path></g><g transform="translate(408 521)"><path d="M0 -9L7.8 -4.5L7.8 4.5L0 9L-7.8 4.5L-7.8 -4.5Z" stroke="#185967" fill="none" stroke-width="1"></path></g><g transform="translate(775 430)"><path d="M0 -10L8.7 -5L8.7 5L0 10L-8.7 5L-8.7 -5Z" stroke="#185967" fill="none" stroke-width="1"></path></g><g transform="translate(631 525)"><path d="M0 -11L9.5 -5.5L9.5 5.5L0 11L-9.5 5.5L-9.5 -5.5Z" stroke="#185967" fill="none" stroke-width="1"></path></g><g transform="translate(155 336)"><path d="M0 -3L2.6 -1.5L2.6 1.5L0 3L-2.6 1.5L-2.6 -1.5Z" stroke="#185967" fill="none" stroke-width="1"></path></g><g transform="translate(90 457)"><path d="M0 -12L10.4 -6L10.4 6L0 12L-10.4 6L-10.4 -6Z" stroke="#185967" fill="none" stroke-width="1"></path></g><g transform="translate(27 231)"><path d="M0 -7L6.1 -3.5L6.1 3.5L0 7L-6.1 3.5L-6.1 -3.5Z" stroke="#185967" fill="none" stroke-width="1"></path></g><g transform="translate(146 119)"><path d="M0 -4L3.5 -2L3.5 2L0 4L-3.5 2L-3.5 -2Z" stroke="#185967" fill="none" stroke-width="1"></path></g><g transform="translate(711 280)"><path d="M0 -5L4.3 -2.5L4.3 2.5L0 5L-4.3 2.5L-4.3 -2.5Z" stroke="#185967" fill="none" stroke-width="1"></path></g><g transform="translate(435 476)"><path d="M0 -6L5.2 -3L5.2 3L0 6L-5.2 3L-5.2 -3Z" stroke="#185967" fill="none" stroke-width="1"></path></g><g transform="translate(370 201)"><path d="M0 -4L3.5 -2L3.5 2L0 4L-3.5 2L-3.5 -2Z" stroke="#185967" fill="none" stroke-width="1"></path></g><g transform="translate(302 235)"><path d="M0 -5L4.3 -2.5L4.3 2.5L0 5L-4.3 2.5L-4.3 -2.5Z" stroke="#185967" fill="none" stroke-width="1"></path></g><g transform="translate(769 162)"><path d="M0 -5L4.3 -2.5L4.3 2.5L0 5L-4.3 2.5L-4.3 -2.5Z" stroke="#185967" fill="none" stroke-width="1"></path></g><g transform="translate(582 391)"><path d="M0 -5L4.3 -2.5L4.3 2.5L0 5L-4.3 2.5L-4.3 -2.5Z" stroke="#185967" fill="none" stroke-width="1"></path></g><g transform="translate(793 593)"><path d="M0 -8L6.9 -4L6.9 4L0 8L-6.9 4L-6.9 -4Z" stroke="#185967" fill="none" stroke-width="1"></path></g><g transform="translate(706 355)"><path d="M0 -5L4.3 -2.5L4.3 2.5L0 5L-4.3 2.5L-4.3 -2.5Z" stroke="#185967" fill="none" stroke-width="1"></path></g><g transform="translate(539 99)"><path d="M0 -11L9.5 -5.5L9.5 5.5L0 11L-9.5 5.5L-9.5 -5.5Z" stroke="#185967" fill="none" stroke-width="1"></path></g><g transform="translate(307 597)"><path d="M0 -11L9.5 -5.5L9.5 5.5L0 11L-9.5 5.5L-9.5 -5.5Z" stroke="#185967" fill="none" stroke-width="1"></path></g><g transform="translate(781 67)"><path d="M0 -4L3.5 -2L3.5 2L0 4L-3.5 2L-3.5 -2Z" stroke="#185967" fill="none" stroke-width="1"></path></g><g transform="translate(835 347)"><path d="M0 -7L6.1 -3.5L6.1 3.5L0 7L-6.1 3.5L-6.1 -3.5Z" stroke="#185967" fill="none" stroke-width="1"></path></g><g transform="translate(309 9)"><path d="M0 -10L8.7 -5L8.7 5L0 10L-8.7 5L-8.7 -5Z" stroke="#185967" fill="none" stroke-width="1"></path></g><g transform="translate(616 132)"><path d="M0 -2L1.7 -1L1.7 1L0 2L-1.7 1L-1.7 -1Z" stroke="#185967" fill="none" stroke-width="1"></path></g><g transform="translate(106 23)"><path d="M0 -11L9.5 -5.5L9.5 5.5L0 11L-9.5 5.5L-9.5 -5.5Z" stroke="#185967" fill="none" stroke-width="1"></path></g><g transform="translate(526 26)"><path d="M0 -6L5.2 -3L5.2 3L0 6L-5.2 3L-5.2 -3Z" stroke="#185967" fill="none" stroke-width="1"></path></g><g transform="translate(439 570)"><path d="M0 -2L1.7 -1L1.7 1L0 2L-1.7 1L-1.7 -1Z" stroke="#185967" fill="none" stroke-width="1"></path></g><g transform="translate(145 295)"><path d="M0 -9L7.8 -4.5L7.8 4.5L0 9L-7.8 4.5L-7.8 -4.5Z" stroke="#185967" fill="none" stroke-width="1"></path></g><g transform="translate(13 560)"><path d="M0 -6L5.2 -3L5.2 3L0 6L-5.2 3L-5.2 -3Z" stroke="#185967" fill="none" stroke-width="1"></path></g><g transform="translate(138 224)"><path d="M0 -12L10.4 -6L10.4 6L0 12L-10.4 6L-10.4 -6Z" stroke="#185967" fill="none" stroke-width="1"></path></g><g transform="translate(578 80)"><path d="M0 -11L9.5 -5.5L9.5 5.5L0 11L-9.5 5.5L-9.5 -5.5Z" stroke="#185967" fill="none" stroke-width="1"></path></g><g transform="translate(248 474)"><path d="M0 -2L1.7 -1L1.7 1L0 2L-1.7 1L-1.7 -1Z" stroke="#185967" fill="none" stroke-width="1"></path></g><g transform="translate(453 264)"><path d="M0 -7L6.1 -3.5L6.1 3.5L0 7L-6.1 3.5L-6.1 -3.5Z" stroke="#185967" fill="none" stroke-width="1"></path></g><g transform="translate(171 598)"><path d="M0 -2L1.7 -1L1.7 1L0 2L-1.7 1L-1.7 -1Z" stroke="#185967" fill="none" stroke-width="1"></path></g><g transform="translate(242 270)"><path d="M0 -4L3.5 -2L3.5 2L0 4L-3.5 2L-3.5 -2Z" stroke="#185967" fill="none" stroke-width="1"></path></g><g transform="translate(547 266)"><path d="M0 -5L4.3 -2.5L4.3 2.5L0 5L-4.3 2.5L-4.3 -2.5Z" stroke="#185967" fill="none" stroke-width="1"></path></g><g transform="translate(469 419)"><path d="M0 -6L5.2 -3L5.2 3L0 6L-5.2 3L-5.2 -3Z" stroke="#185967" fill="none" stroke-width="1"></path></g><g transform="translate(82 594)"><path d="M0 -3L2.6 -1.5L2.6 1.5L0 3L-2.6 1.5L-2.6 -1.5Z" stroke="#185967" fill="none" stroke-width="1"></path></g><g transform="translate(435 502)"><path d="M0 -4L3.5 -2L3.5 2L0 4L-3.5 2L-3.5 -2Z" stroke="#185967" fill="none" stroke-width="1"></path></g><g transform="translate(150 568)"><path d="M0 -2L1.7 -1L1.7 1L0 2L-1.7 1L-1.7 -1Z" stroke="#185967" fill="none" stroke-width="1"></path></g><g transform="translate(817 250)"><path d="M0 -6L5.2 -3L5.2 3L0 6L-5.2 3L-5.2 -3Z" stroke="#185967" fill="none" stroke-width="1"></path></g><g transform="translate(239 342)"><path d="M0 -8L6.9 -4L6.9 4L0 8L-6.9 4L-6.9 -4Z" stroke="#185967" fill="none" stroke-width="1"></path></g><g transform="translate(536 358)"><path d="M0 -2L1.7 -1L1.7 1L0 2L-1.7 1L-1.7 -1Z" stroke="#185967" fill="none" stroke-width="1"></path></g><g transform="translate(594 598)"><path d="M0 -4L3.5 -2L3.5 2L0 4L-3.5 2L-3.5 -2Z" stroke="#185967" fill="none" stroke-width="1"></path></g><g transform="translate(508 500)"><path d="M0 -2L1.7 -1L1.7 1L0 2L-1.7 1L-1.7 -1Z" stroke="#185967" fill="none" stroke-width="1"></path></g><g transform="translate(730 13)"><path d="M0 -1L0.9 -0.5L0.9 0.5L0 1L-0.9 0.5L-0.9 -0.5Z" stroke="#185967" fill="none" stroke-width="1"></path></g><g transform="translate(173 225)"><path d="M0 -4L3.5 -2L3.5 2L0 4L-3.5 2L-3.5 -2Z" stroke="#185967" fill="none" stroke-width="1"></path></g><g transform="translate(781 250)"><path d="M0 -7L6.1 -3.5L6.1 3.5L0 7L-6.1 3.5L-6.1 -3.5Z" stroke="#185967" fill="none" stroke-width="1"></path></g><g transform="translate(108 568)"><path d="M0 -9L7.8 -4.5L7.8 4.5L0 9L-7.8 4.5L-7.8 -4.5Z" stroke="#185967" fill="none" stroke-width="1"></path></g><g transform="translate(206 389)"><path d="M0 -5L4.3 -2.5L4.3 2.5L0 5L-4.3 2.5L-4.3 -2.5Z" stroke="#185967" fill="none" stroke-width="1"></path></g><g transform="translate(484 63)"><path d="M0 -9L7.8 -4.5L7.8 4.5L0 9L-7.8 4.5L-7.8 -4.5Z" stroke="#185967" fill="none" stroke-width="1"></path></g><g transform="translate(717 165)"><path d="M0 -8L6.9 -4L6.9 4L0 8L-6.9 4L-6.9 -4Z" stroke="#185967" fill="none" stroke-width="1"></path></g><g transform="translate(104 135)"><path d="M0 -12L10.4 -6L10.4 6L0 12L-10.4 6L-10.4 -6Z" stroke="#185967" fill="none" stroke-width="1"></path></g><g transform="translate(662 133)"><path d="M0 -2L1.7 -1L1.7 1L0 2L-1.7 1L-1.7 -1Z" stroke="#185967" fill="none" stroke-width="1"></path></g><g transform="translate(765 382)"><path d="M0 -10L8.7 -5L8.7 5L0 10L-8.7 5L-8.7 -5Z" stroke="#185967" fill="none" stroke-width="1"></path></g><g transform="translate(21 47)"><path d="M0 -6L5.2 -3L5.2 3L0 6L-5.2 3L-5.2 -3Z" stroke="#185967" fill="none" stroke-width="1"></path></g><g transform="translate(209 542)"><path d="M0 -1L0.9 -0.5L0.9 0.5L0 1L-0.9 0.5L-0.9 -0.5Z" stroke="#185967" fill="none" stroke-width="1"></path></g><g transform="translate(602 293)"><path d="M0 -6L5.2 -3L5.2 3L0 6L-5.2 3L-5.2 -3Z" stroke="#185967" fill="none" stroke-width="1"></path></g><g transform="translate(710 462)"><path d="M0 -9L7.8 -4.5L7.8 4.5L0 9L-7.8 4.5L-7.8 -4.5Z" stroke="#185967" fill="none" stroke-width="1"></path></g><g transform="translate(592 539)"><path d="M0 -11L9.5 -5.5L9.5 5.5L0 11L-9.5 5.5L-9.5 -5.5Z" stroke="#185967" fill="none" stroke-width="1"></path></g><g transform="translate(120 94)"><path d="M0 -10L8.7 -5L8.7 5L0 10L-8.7 5L-8.7 -5Z" stroke="#185967" fill="none" stroke-width="1"></path></g><g transform="translate(895 127)"><path d="M0 -1L0.9 -0.5L0.9 0.5L0 1L-0.9 0.5L-0.9 -0.5Z" stroke="#185967" fill="none" stroke-width="1"></path></g><g transform="translate(43 365)"><path d="M0 -2L1.7 -1L1.7 1L0 2L-1.7 1L-1.7 -1Z" stroke="#185967" fill="none" stroke-width="1"></path></g><g transform="translate(183 62)"><path d="M0 -8L6.9 -4L6.9 4L0 8L-6.9 4L-6.9 -4Z" stroke="#185967" fill="none" stroke-width="1"></path></g><g transform="translate(200 166)"><path d="M0 -2L1.7 -1L1.7 1L0 2L-1.7 1L-1.7 -1Z" stroke="#185967" fill="none" stroke-width="1"></path></g><g transform="translate(885 510)"><path d="M0 -6L5.2 -3L5.2 3L0 6L-5.2 3L-5.2 -3Z" stroke="#185967" fill="none" stroke-width="1"></path></g><g transform="translate(76 11)"><path d="M0 -2L1.7 -1L1.7 1L0 2L-1.7 1L-1.7 -1Z" stroke="#185967" fill="none" stroke-width="1"></path></g><g transform="translate(341 545)"><path d="M0 -7L6.1 -3.5L6.1 3.5L0 7L-6.1 3.5L-6.1 -3.5Z" stroke="#185967" fill="none" stroke-width="1"></path></g><g transform="translate(323 521)"><path d="M0 -10L8.7 -5L8.7 5L0 10L-8.7 5L-8.7 -5Z" stroke="#185967" fill="none" stroke-width="1"></path></g><g transform="translate(542 400)"><path d="M0 -6L5.2 -3L5.2 3L0 6L-5.2 3L-5.2 -3Z" stroke="#185967" fill="none" stroke-width="1"></path></g><g transform="translate(680 574)"><path d="M0 -7L6.1 -3.5L6.1 3.5L0 7L-6.1 3.5L-6.1 -3.5Z" stroke="#185967" fill="none" stroke-width="1"></path></g><g transform="translate(715 490)"><path d="M0 -1L0.9 -0.5L0.9 0.5L0 1L-0.9 0.5L-0.9 -0.5Z" stroke="#185967" fill="none" stroke-width="1"></path></g><g transform="translate(419 386)"><path d="M0 -9L7.8 -4.5L7.8 4.5L0 9L-7.8 4.5L-7.8 -4.5Z" stroke="#185967" fill="none" stroke-width="1"></path></g><g transform="translate(630 180)"><path d="M0 -7L6.1 -3.5L6.1 3.5L0 7L-6.1 3.5L-6.1 -3.5Z" stroke="#185967" fill="none" stroke-width="1"></path></g><g transform="translate(872 218)"><path d="M0 -7L6.1 -3.5L6.1 3.5L0 7L-6.1 3.5L-6.1 -3.5Z" stroke="#185967" fill="none" stroke-width="1"></path></g><g transform="translate(59 74)"><path d="M0 -4L3.5 -2L3.5 2L0 4L-3.5 2L-3.5 -2Z" stroke="#185967" fill="none" stroke-width="1"></path></g><g transform="translate(73 484)"><path d="M0 -7L6.1 -3.5L6.1 3.5L0 7L-6.1 3.5L-6.1 -3.5Z" stroke="#185967" fill="none" stroke-width="1"></path></g><g transform="translate(384 142)"><path d="M0 -10L8.7 -5L8.7 5L0 10L-8.7 5L-8.7 -5Z" stroke="#185967" fill="none" stroke-width="1"></path></g><g transform="translate(242 527)"><path d="M0 -12L10.4 -6L10.4 6L0 12L-10.4 6L-10.4 -6Z" stroke="#185967" fill="none" stroke-width="1"></path></g><g transform="translate(646 271)"><path d="M0 -6L5.2 -3L5.2 3L0 6L-5.2 3L-5.2 -3Z" stroke="#185967" fill="none" stroke-width="1"></path></g><g transform="translate(407 311)"><path d="M0 -10L8.7 -5L8.7 5L0 10L-8.7 5L-8.7 -5Z" stroke="#185967" fill="none" stroke-width="1"></path></g><g transform="translate(746 333)"><path d="M0 -8L6.9 -4L6.9 4L0 8L-6.9 4L-6.9 -4Z" stroke="#185967" fill="none" stroke-width="1"></path></g><g transform="translate(304 162)"><path d="M0 -4L3.5 -2L3.5 2L0 4L-3.5 2L-3.5 -2Z" stroke="#185967" fill="none" stroke-width="1"></path></g><g transform="translate(422 547)"><path d="M0 -1L0.9 -0.5L0.9 0.5L0 1L-0.9 0.5L-0.9 -0.5Z" stroke="#185967" fill="none" stroke-width="1"></path></g><g transform="translate(481 138)"><path d="M0 -9L7.8 -4.5L7.8 4.5L0 9L-7.8 4.5L-7.8 -4.5Z" stroke="#185967" fill="none" stroke-width="1"></path></g><g transform="translate(138 38)"><path d="M0 -9L7.8 -4.5L7.8 4.5L0 9L-7.8 4.5L-7.8 -4.5Z" stroke="#185967" fill="none" stroke-width="1"></path></g><g transform="translate(269 526)"><path d="M0 -9L7.8 -4.5L7.8 4.5L0 9L-7.8 4.5L-7.8 -4.5Z" stroke="#185967" fill="none" stroke-width="1"></path></g><g transform="translate(330 147)"><path d="M0 -3L2.6 -1.5L2.6 1.5L0 3L-2.6 1.5L-2.6 -1.5Z" stroke="#185967" fill="none" stroke-width="1"></path></g><g transform="translate(283 279)"><path d="M0 -2L1.7 -1L1.7 1L0 2L-1.7 1L-1.7 -1Z" stroke="#185967" fill="none" stroke-width="1"></path></g><g transform="translate(830 85)"><path d="M0 -10L8.7 -5L8.7 5L0 10L-8.7 5L-8.7 -5Z" stroke="#185967" fill="none" stroke-width="1"></path></g><g transform="translate(564 338)"><path d="M0 -8L6.9 -4L6.9 4L0 8L-6.9 4L-6.9 -4Z" stroke="#185967" fill="none" stroke-width="1"></path></g><g transform="translate(746 193)"><path d="M0 -8L6.9 -4L6.9 4L0 8L-6.9 4L-6.9 -4Z" stroke="#185967" fill="none" stroke-width="1"></path></g><g transform="translate(234 405)"><path d="M0 -12L10.4 -6L10.4 6L0 12L-10.4 6L-10.4 -6Z" stroke="#185967" fill="none" stroke-width="1"></path></g><g transform="translate(588 319)"><path d="M0 -11L9.5 -5.5L9.5 5.5L0 11L-9.5 5.5L-9.5 -5.5Z" stroke="#185967" fill="none" stroke-width="1"></path></g><g transform="translate(592 146)"><path d="M0 -6L5.2 -3L5.2 3L0 6L-5.2 3L-5.2 -3Z" stroke="#185967" fill="none" stroke-width="1"></path></g><g transform="translate(269 17)"><path d="M0 -12L10.4 -6L10.4 6L0 12L-10.4 6L-10.4 -6Z" stroke="#185967" fill="none" stroke-width="1"></path></g><g transform="translate(225 460)"><path d="M0 -6L5.2 -3L5.2 3L0 6L-5.2 3L-5.2 -3Z" stroke="#185967" fill="none" stroke-width="1"></path></g><g transform="translate(820 191)"><path d="M0 -5L4.3 -2.5L4.3 2.5L0 5L-4.3 2.5L-4.3 -2.5Z" stroke="#185967" fill="none" stroke-width="1"></path></g><g transform="translate(575 263)"><path d="M0 -3L2.6 -1.5L2.6 1.5L0 3L-2.6 1.5L-2.6 -1.5Z" stroke="#185967" fill="none" stroke-width="1"></path></g><g transform="translate(572 511)"><path d="M0 -7L6.1 -3.5L6.1 3.5L0 7L-6.1 3.5L-6.1 -3.5Z" stroke="#185967" fill="none" stroke-width="1"></path></g><g transform="translate(646 423)"><path d="M0 -1L0.9 -0.5L0.9 0.5L0 1L-0.9 0.5L-0.9 -0.5Z" stroke="#185967" fill="none" stroke-width="1"></path></g><g transform="translate(259 147)"><path d="M0 -6L5.2 -3L5.2 3L0 6L-5.2 3L-5.2 -3Z" stroke="#185967" fill="none" stroke-width="1"></path></g><g transform="translate(442 237)"><path d="M0 -6L5.2 -3L5.2 3L0 6L-5.2 3L-5.2 -3Z" stroke="#185967" fill="none" stroke-width="1"></path></g><g transform="translate(121 416)"><path d="M0 -3L2.6 -1.5L2.6 1.5L0 3L-2.6 1.5L-2.6 -1.5Z" stroke="#185967" fill="none" stroke-width="1"></path></g><g transform="translate(893 78)"><path d="M0 -9L7.8 -4.5L7.8 4.5L0 9L-7.8 4.5L-7.8 -4.5Z" stroke="#185967" fill="none" stroke-width="1"></path></g><g transform="translate(485 181)"><path d="M0 -11L9.5 -5.5L9.5 5.5L0 11L-9.5 5.5L-9.5 -5.5Z" stroke="#185967" fill="none" stroke-width="1"></path></g><g transform="translate(750 419)"><path d="M0 -10L8.7 -5L8.7 5L0 10L-8.7 5L-8.7 -5Z" stroke="#185967" fill="none" stroke-width="1"></path></g><g transform="translate(755 275)"><path d="M0 -1L0.9 -0.5L0.9 0.5L0 1L-0.9 0.5L-0.9 -0.5Z" stroke="#185967" fill="none" stroke-width="1"></path></g><g transform="translate(428 423)"><path d="M0 -10L8.7 -5L8.7 5L0 10L-8.7 5L-8.7 -5Z" stroke="#185967" fill="none" stroke-width="1"></path></g><g transform="translate(443 530)"><path d="M0 -2L1.7 -1L1.7 1L0 2L-1.7 1L-1.7 -1Z" stroke="#185967" fill="none" stroke-width="1"></path></g><g transform="translate(80 98)"><path d="M0 -3L2.6 -1.5L2.6 1.5L0 3L-2.6 1.5L-2.6 -1.5Z" stroke="#185967" fill="none" stroke-width="1"></path></g><g transform="translate(387 287)"><path d="M0 -9L7.8 -4.5L7.8 4.5L0 9L-7.8 4.5L-7.8 -4.5Z" stroke="#185967" fill="none" stroke-width="1"></path></g><g transform="translate(610 419)"><path d="M0 -11L9.5 -5.5L9.5 5.5L0 11L-9.5 5.5L-9.5 -5.5Z" stroke="#185967" fill="none" stroke-width="1"></path></g><g transform="translate(209 195)"><path d="M0 -7L6.1 -3.5L6.1 3.5L0 7L-6.1 3.5L-6.1 -3.5Z" stroke="#185967" fill="none" stroke-width="1"></path></g><g transform="translate(576 45)"><path d="M0 -11L9.5 -5.5L9.5 5.5L0 11L-9.5 5.5L-9.5 -5.5Z" stroke="#185967" fill="none" stroke-width="1"></path></g><g transform="translate(884 51)"><path d="M0 -8L6.9 -4L6.9 4L0 8L-6.9 4L-6.9 -4Z" stroke="#185967" fill="none" stroke-width="1"></path></g><g transform="translate(383 106)"><path d="M0 -4L3.5 -2L3.5 2L0 4L-3.5 2L-3.5 -2Z" stroke="#185967" fill="none" stroke-width="1"></path></g><g transform="translate(564 116)"><path d="M0 -11L9.5 -5.5L9.5 5.5L0 11L-9.5 5.5L-9.5 -5.5Z" stroke="#185967" fill="none" stroke-width="1"></path></g><g transform="translate(93 240)"><path d="M0 -1L0.9 -0.5L0.9 0.5L0 1L-0.9 0.5L-0.9 -0.5Z" stroke="#185967" fill="none" stroke-width="1"></path></g><g transform="translate(841 506)"><path d="M0 -5L4.3 -2.5L4.3 2.5L0 5L-4.3 2.5L-4.3 -2.5Z" stroke="#185967" fill="none" stroke-width="1"></path></g><g transform="translate(769 10)"><path d="M0 -9L7.8 -4.5L7.8 4.5L0 9L-7.8 4.5L-7.8 -4.5Z" stroke="#185967" fill="none" stroke-width="1"></path></g><g transform="translate(738 218)"><path d="M0 -12L10.4 -6L10.4 6L0 12L-10.4 6L-10.4 -6Z" stroke="#185967" fill="none" stroke-width="1"></path></g><g transform="translate(80 301)"><path d="M0 -11L9.5 -5.5L9.5 5.5L0 11L-9.5 5.5L-9.5 -5.5Z" stroke="#185967" fill="none" stroke-width="1"></path></g><g transform="translate(208 489)"><path d="M0 -3L2.6 -1.5L2.6 1.5L0 3L-2.6 1.5L-2.6 -1.5Z" stroke="#185967" fill="none" stroke-width="1"></path></g><g transform="translate(858 141)"><path d="M0 -6L5.2 -3L5.2 3L0 6L-5.2 3L-5.2 -3Z" stroke="#185967" fill="none" stroke-width="1"></path></g><g transform="translate(48 206)"><path d="M0 -11L9.5 -5.5L9.5 5.5L0 11L-9.5 5.5L-9.5 -5.5Z" stroke="#185967" fill="none" stroke-width="1"></path></g><g transform="translate(472 2)"><path d="M0 -6L5.2 -3L5.2 3L0 6L-5.2 3L-5.2 -3Z" stroke="#185967" fill="none" stroke-width="1"></path></g><g transform="translate(724 385)"><path d="M0 -7L6.1 -3.5L6.1 3.5L0 7L-6.1 3.5L-6.1 -3.5Z" stroke="#185967" fill="none" stroke-width="1"></path></g><g transform="translate(123 546)"><path d="M0 -6L5.2 -3L5.2 3L0 6L-5.2 3L-5.2 -3Z" stroke="#185967" fill="none" stroke-width="1"></path></g><g transform="translate(561 596)"><path d="M0 -4L3.5 -2L3.5 2L0 4L-3.5 2L-3.5 -2Z" stroke="#185967" fill="none" stroke-width="1"></path></g><g transform="translate(680 430)"><path d="M0 -10L8.7 -5L8.7 5L0 10L-8.7 5L-8.7 -5Z" stroke="#185967" fill="none" stroke-width="1"></path></g><g transform="translate(349 14)"><path d="M0 -7L6.1 -3.5L6.1 3.5L0 7L-6.1 3.5L-6.1 -3.5Z" stroke="#185967" fill="none" stroke-width="1"></path></g><g transform="translate(888 347)"><path d="M0 -8L6.9 -4L6.9 4L0 8L-6.9 4L-6.9 -4Z" stroke="#185967" fill="none" stroke-width="1"></path></g><g transform="translate(66 382)"><path d="M0 -7L6.1 -3.5L6.1 3.5L0 7L-6.1 3.5L-6.1 -3.5Z" stroke="#185967" fill="none" stroke-width="1"></path></g><g transform="translate(561 235)"><path d="M0 -4L3.5 -2L3.5 2L0 4L-3.5 2L-3.5 -2Z" stroke="#185967" fill="none" stroke-width="1"></path></g><g transform="translate(492 293)"><path d="M0 -11L9.5 -5.5L9.5 5.5L0 11L-9.5 5.5L-9.5 -5.5Z" stroke="#185967" fill="none" stroke-width="1"></path></g><g transform="translate(357 67)"><path d="M0 -7L6.1 -3.5L6.1 3.5L0 7L-6.1 3.5L-6.1 -3.5Z" stroke="#185967" fill="none" stroke-width="1"></path></g><g transform="translate(783 276)"><path d="M0 -11L9.5 -5.5L9.5 5.5L0 11L-9.5 5.5L-9.5 -5.5Z" stroke="#185967" fill="none" stroke-width="1"></path></g><g transform="translate(620 476)"><path d="M0 -10L8.7 -5L8.7 5L0 10L-8.7 5L-8.7 -5Z" stroke="#185967" fill="none" stroke-width="1"></path></g><g transform="translate(618 204)"><path d="M0 -2L1.7 -1L1.7 1L0 2L-1.7 1L-1.7 -1Z" stroke="#185967" fill="none" stroke-width="1"></path></g><g transform="translate(461 447)"><path d="M0 -1L0.9 -0.5L0.9 0.5L0 1L-0.9 0.5L-0.9 -0.5Z" stroke="#185967" fill="none" stroke-width="1"></path></g><g transform="translate(848 473)"><path d="M0 -5L4.3 -2.5L4.3 2.5L0 5L-4.3 2.5L-4.3 -2.5Z" stroke="#185967" fill="none" stroke-width="1"></path></g><g transform="translate(639 579)"><path d="M0 -10L8.7 -5L8.7 5L0 10L-8.7 5L-8.7 -5Z" stroke="#185967" fill="none" stroke-width="1"></path></g><g transform="translate(894 476)"><path d="M0 -1L0.9 -0.5L0.9 0.5L0 1L-0.9 0.5L-0.9 -0.5Z" stroke="#185967" fill="none" stroke-width="1"></path></g><g transform="translate(386 390)"><path d="M0 -6L5.2 -3L5.2 3L0 6L-5.2 3L-5.2 -3Z" stroke="#185967" fill="none" stroke-width="1"></path></g><g transform="translate(296 66)"><path d="M0 -12L10.4 -6L10.4 6L0 12L-10.4 6L-10.4 -6Z" stroke="#185967" fill="none" stroke-width="1"></path></g><g transform="translate(676 457)"><path d="M0 -4L3.5 -2L3.5 2L0 4L-3.5 2L-3.5 -2Z" stroke="#185967" fill="none" stroke-width="1"></path></g><g transform="translate(119 247)"><path d="M0 -10L8.7 -5L8.7 5L0 10L-8.7 5L-8.7 -5Z" stroke="#185967" fill="none" stroke-width="1"></path></g><g transform="translate(559 542)"><path d="M0 -3L2.6 -1.5L2.6 1.5L0 3L-2.6 1.5L-2.6 -1.5Z" stroke="#185967" fill="none" stroke-width="1"></path></g><g transform="translate(3 203)"><path d="M0 -6L5.2 -3L5.2 3L0 6L-5.2 3L-5.2 -3Z" stroke="#185967" fill="none" stroke-width="1"></path></g><g transform="translate(683 396)"><path d="M0 -1L0.9 -0.5L0.9 0.5L0 1L-0.9 0.5L-0.9 -0.5Z" stroke="#185967" fill="none" stroke-width="1"></path></g><g transform="translate(461 593)"><path d="M0 -4L3.5 -2L3.5 2L0 4L-3.5 2L-3.5 -2Z" stroke="#185967" fill="none" stroke-width="1"></path></g><g transform="translate(379 557)"><path d="M0 -8L6.9 -4L6.9 4L0 8L-6.9 4L-6.9 -4Z" stroke="#185967" fill="none" stroke-width="1"></path></g><g transform="translate(313 295)"><path d="M0 -9L7.8 -4.5L7.8 4.5L0 9L-7.8 4.5L-7.8 -4.5Z" stroke="#185967" fill="none" stroke-width="1"></path></g><g transform="translate(304 102)"><path d="M0 -8L6.9 -4L6.9 4L0 8L-6.9 4L-6.9 -4Z" stroke="#185967" fill="none" stroke-width="1"></path></g><g transform="translate(19 6)"><path d="M0 -5L4.3 -2.5L4.3 2.5L0 5L-4.3 2.5L-4.3 -2.5Z" stroke="#185967" fill="none" stroke-width="1"></path></g><g transform="translate(444 305)"><path d="M0 -1L0.9 -0.5L0.9 0.5L0 1L-0.9 0.5L-0.9 -0.5Z" stroke="#185967" fill="none" stroke-width="1"></path></g><g transform="translate(687 494)"><path d="M0 -4L3.5 -2L3.5 2L0 4L-3.5 2L-3.5 -2Z" stroke="#185967" fill="none" stroke-width="1"></path></g><g transform="translate(12 491)"><path d="M0 -1L0.9 -0.5L0.9 0.5L0 1L-0.9 0.5L-0.9 -0.5Z" stroke="#185967" fill="none" stroke-width="1"></path></g><g transform="translate(149 145)"><path d="M0 -3L2.6 -1.5L2.6 1.5L0 3L-2.6 1.5L-2.6 -1.5Z" stroke="#185967" fill="none" stroke-width="1"></path></g><g transform="translate(641 53)"><path d="M0 -4L3.5 -2L3.5 2L0 4L-3.5 2L-3.5 -2Z" stroke="#185967" fill="none" stroke-width="1"></path></g><g transform="translate(54 269)"><path d="M0 -1L0.9 -0.5L0.9 0.5L0 1L-0.9 0.5L-0.9 -0.5Z" stroke="#185967" fill="none" stroke-width="1"></path></g><g transform="translate(514 415)"><path d="M0 -6L5.2 -3L5.2 3L0 6L-5.2 3L-5.2 -3Z" stroke="#185967" fill="none" stroke-width="1"></path></g><g transform="translate(845 10)"><path d="M0 -11L9.5 -5.5L9.5 5.5L0 11L-9.5 5.5L-9.5 -5.5Z" stroke="#185967" fill="none" stroke-width="1"></path></g><g transform="translate(45 561)"><path d="M0 -7L6.1 -3.5L6.1 3.5L0 7L-6.1 3.5L-6.1 -3.5Z" stroke="#185967" fill="none" stroke-width="1"></path></g><g transform="translate(178 146)"><path d="M0 -8L6.9 -4L6.9 4L0 8L-6.9 4L-6.9 -4Z" stroke="#185967" fill="none" stroke-width="1"></path></g><g transform="translate(352 308)"><path d="M0 -8L6.9 -4L6.9 4L0 8L-6.9 4L-6.9 -4Z" stroke="#185967" fill="none" stroke-width="1"></path></g><g transform="translate(408 576)"><path d="M0 -5L4.3 -2.5L4.3 2.5L0 5L-4.3 2.5L-4.3 -2.5Z" stroke="#185967" fill="none" stroke-width="1"></path></g><g transform="translate(143 71)"><path d="M0 -5L4.3 -2.5L4.3 2.5L0 5L-4.3 2.5L-4.3 -2.5Z" stroke="#185967" fill="none" stroke-width="1"></path></g><g transform="translate(301 504)"><path d="M0 -7L6.1 -3.5L6.1 3.5L0 7L-6.1 3.5L-6.1 -3.5Z" stroke="#185967" fill="none" stroke-width="1"></path></g><g transform="translate(268 370)"><path d="M0 -2L1.7 -1L1.7 1L0 2L-1.7 1L-1.7 -1Z" stroke="#185967" fill="none" stroke-width="1"></path></g><g transform="translate(11 526)"><path d="M0 -1L0.9 -0.5L0.9 0.5L0 1L-0.9 0.5L-0.9 -0.5Z" stroke="#185967" fill="none" stroke-width="1"></path></g><g transform="translate(476 483)"><path d="M0 -7L6.1 -3.5L6.1 3.5L0 7L-6.1 3.5L-6.1 -3.5Z" stroke="#185967" fill="none" stroke-width="1"></path></g><g transform="translate(736 357)"><path d="M0 -7L6.1 -3.5L6.1 3.5L0 7L-6.1 3.5L-6.1 -3.5Z" stroke="#185967" fill="none" stroke-width="1"></path></g><g transform="translate(769 39)"><path d="M0 -11L9.5 -5.5L9.5 5.5L0 11L-9.5 5.5L-9.5 -5.5Z" stroke="#185967" fill="none" stroke-width="1"></path></g><g transform="translate(732 546)"><path d="M0 -5L4.3 -2.5L4.3 2.5L0 5L-4.3 2.5L-4.3 -2.5Z" stroke="#185967" fill="none" stroke-width="1"></path></g><g transform="translate(821 594)"><path d="M0 -4L3.5 -2L3.5 2L0 4L-3.5 2L-3.5 -2Z" stroke="#185967" fill="none" stroke-width="1"></path></g><g transform="translate(80 52)"><path d="M0 -5L4.3 -2.5L4.3 2.5L0 5L-4.3 2.5L-4.3 -2.5Z" stroke="#185967" fill="none" stroke-width="1"></path></g><g transform="translate(134 595)"><path d="M0 -2L1.7 -1L1.7 1L0 2L-1.7 1L-1.7 -1Z" stroke="#185967" fill="none" stroke-width="1"></path></g><g transform="translate(80 565)"><path d="M0 -6L5.2 -3L5.2 3L0 6L-5.2 3L-5.2 -3Z" stroke="#185967" fill="none" stroke-width="1"></path></g><g transform="translate(736 140)"><path d="M0 -4L3.5 -2L3.5 2L0 4L-3.5 2L-3.5 -2Z" stroke="#185967" fill="none" stroke-width="1"></path></g><g transform="translate(822 488)"><path d="M0 -3L2.6 -1.5L2.6 1.5L0 3L-2.6 1.5L-2.6 -1.5Z" stroke="#185967" fill="none" stroke-width="1"></path></g><g transform="translate(512 273)"><path d="M0 -6L5.2 -3L5.2 3L0 6L-5.2 3L-5.2 -3Z" stroke="#185967" fill="none" stroke-width="1"></path></g><g transform="translate(273 223)"><path d="M0 -8L6.9 -4L6.9 4L0 8L-6.9 4L-6.9 -4Z" stroke="#185967" fill="none" stroke-width="1"></path></g><g transform="translate(749 484)"><path d="M0 -7L6.1 -3.5L6.1 3.5L0 7L-6.1 3.5L-6.1 -3.5Z" stroke="#185967" fill="none" stroke-width="1"></path></g><g transform="translate(683 281)"><path d="M0 -7L6.1 -3.5L6.1 3.5L0 7L-6.1 3.5L-6.1 -3.5Z" stroke="#185967" fill="none" stroke-width="1"></path></g><g transform="translate(44 487)"><path d="M0 -8L6.9 -4L6.9 4L0 8L-6.9 4L-6.9 -4Z" stroke="#185967" fill="none" stroke-width="1"></path></g><g transform="translate(490 519)"><path d="M0 -11L9.5 -5.5L9.5 5.5L0 11L-9.5 5.5L-9.5 -5.5Z" stroke="#185967" fill="none" stroke-width="1"></path></g><g transform="translate(148 8)"><path d="M0 -6L5.2 -3L5.2 3L0 6L-5.2 3L-5.2 -3Z" stroke="#185967" fill="none" stroke-width="1"></path></g><g transform="translate(134 443)"><path d="M0 -3L2.6 -1.5L2.6 1.5L0 3L-2.6 1.5L-2.6 -1.5Z" stroke="#185967" fill="none" stroke-width="1"></path></g><g transform="translate(21 333)"><path d="M0 -8L6.9 -4L6.9 4L0 8L-6.9 4L-6.9 -4Z" stroke="#185967" fill="none" stroke-width="1"></path></g><g transform="translate(733 590)"><path d="M0 -8L6.9 -4L6.9 4L0 8L-6.9 4L-6.9 -4Z" stroke="#185967" fill="none" stroke-width="1"></path></g><g transform="translate(537 171)"><path d="M0 -11L9.5 -5.5L9.5 5.5L0 11L-9.5 5.5L-9.5 -5.5Z" stroke="#185967" fill="none" stroke-width="1"></path></g><g transform="translate(773 107)"><path d="M0 -9L7.8 -4.5L7.8 4.5L0 9L-7.8 4.5L-7.8 -4.5Z" stroke="#185967" fill="none" stroke-width="1"></path></g><g transform="translate(80 421)"><path d="M0 -7L6.1 -3.5L6.1 3.5L0 7L-6.1 3.5L-6.1 -3.5Z" stroke="#185967" fill="none" stroke-width="1"></path></g><g transform="translate(333 117)"><path d="M0 -11L9.5 -5.5L9.5 5.5L0 11L-9.5 5.5L-9.5 -5.5Z" stroke="#185967" fill="none" stroke-width="1"></path></g><g transform="translate(845 251)"><path d="M0 -11L9.5 -5.5L9.5 5.5L0 11L-9.5 5.5L-9.5 -5.5Z" stroke="#185967" fill="none" stroke-width="1"></path></g><g transform="translate(4 80)"><path d="M0 -4L3.5 -2L3.5 2L0 4L-3.5 2L-3.5 -2Z" stroke="#185967" fill="none" stroke-width="1"></path></g><g transform="translate(51 49)"><path d="M0 -1L0.9 -0.5L0.9 0.5L0 1L-0.9 0.5L-0.9 -0.5Z" stroke="#185967" fill="none" stroke-width="1"></path></g><g transform="translate(275 253)"><path d="M0 -9L7.8 -4.5L7.8 4.5L0 9L-7.8 4.5L-7.8 -4.5Z" stroke="#185967" fill="none" stroke-width="1"></path></g><g transform="translate(647 221)"><path d="M0 -7L6.1 -3.5L6.1 3.5L0 7L-6.1 3.5L-6.1 -3.5Z" stroke="#185967" fill="none" stroke-width="1"></path></g><g transform="translate(6 458)"><path d="M0 -3L2.6 -1.5L2.6 1.5L0 3L-2.6 1.5L-2.6 -1.5Z" stroke="#185967" fill="none" stroke-width="1"></path></g><g transform="translate(844 281)"><path d="M0 -8L6.9 -4L6.9 4L0 8L-6.9 4L-6.9 -4Z" stroke="#185967" fill="none" stroke-width="1"></path></g><g transform="translate(218 281)"><path d="M0 -12L10.4 -6L10.4 6L0 12L-10.4 6L-10.4 -6Z" stroke="#185967" fill="none" stroke-width="1"></path></g><g transform="translate(641 458)"><path d="M0 -12L10.4 -6L10.4 6L0 12L-10.4 6L-10.4 -6Z" stroke="#185967" fill="none" stroke-width="1"></path></g><g transform="translate(237 559)"><path d="M0 -2L1.7 -1L1.7 1L0 2L-1.7 1L-1.7 -1Z" stroke="#185967" fill="none" stroke-width="1"></path></g><g transform="translate(125 201)"><path d="M0 -8L6.9 -4L6.9 4L0 8L-6.9 4L-6.9 -4Z" stroke="#185967" fill="none" stroke-width="1"></path></g><g transform="translate(436 336)"><path d="M0 -2L1.7 -1L1.7 1L0 2L-1.7 1L-1.7 -1Z" stroke="#185967" fill="none" stroke-width="1"></path></g><g transform="translate(177 119)"><path d="M0 -9L7.8 -4.5L7.8 4.5L0 9L-7.8 4.5L-7.8 -4.5Z" stroke="#185967" fill="none" stroke-width="1"></path></g><g transform="translate(268 306)"><path d="M0 -12L10.4 -6L10.4 6L0 12L-10.4 6L-10.4 -6Z" stroke="#185967" fill="none" stroke-width="1"></path></g><g transform="translate(608 40)"><path d="M0 -4L3.5 -2L3.5 2L0 4L-3.5 2L-3.5 -2Z" stroke="#185967" fill="none" stroke-width="1"></path></g><g transform="translate(796 17)"><path d="M0 -2L1.7 -1L1.7 1L0 2L-1.7 1L-1.7 -1Z" stroke="#185967" fill="none" stroke-width="1"></path></g><g transform="translate(899 21)"><path d="M0 -5L4.3 -2.5L4.3 2.5L0 5L-4.3 2.5L-4.3 -2.5Z" stroke="#185967" fill="none" stroke-width="1"></path></g><g transform="translate(367 531)"><path d="M0 -9L7.8 -4.5L7.8 4.5L0 9L-7.8 4.5L-7.8 -4.5Z" stroke="#185967" fill="none" stroke-width="1"></path></g><g transform="translate(112 472)"><path d="M0 -12L10.4 -6L10.4 6L0 12L-10.4 6L-10.4 -6Z" stroke="#185967" fill="none" stroke-width="1"></path></g><g transform="translate(404 176)"><path d="M0 -11L9.5 -5.5L9.5 5.5L0 11L-9.5 5.5L-9.5 -5.5Z" stroke="#185967" fill="none" stroke-width="1"></path></g><g transform="translate(212 422)"><path d="M0 -8L6.9 -4L6.9 4L0 8L-6.9 4L-6.9 -4Z" stroke="#185967" fill="none" stroke-width="1"></path></g><g transform="translate(182 534)"><path d="M0 -6L5.2 -3L5.2 3L0 6L-5.2 3L-5.2 -3Z" stroke="#185967" fill="none" stroke-width="1"></path></g><g transform="translate(677 524)"><path d="M0 -6L5.2 -3L5.2 3L0 6L-5.2 3L-5.2 -3Z" stroke="#185967" fill="none" stroke-width="1"></path></g><g transform="translate(781 499)"><path d="M0 -11L9.5 -5.5L9.5 5.5L0 11L-9.5 5.5L-9.5 -5.5Z" stroke="#185967" fill="none" stroke-width="1"></path></g><g transform="translate(507 45)"><path d="M0 -4L3.5 -2L3.5 2L0 4L-3.5 2L-3.5 -2Z" stroke="#185967" fill="none" stroke-width="1"></path></g><g transform="translate(893 422)"><path d="M0 -7L6.1 -3.5L6.1 3.5L0 7L-6.1 3.5L-6.1 -3.5Z" stroke="#185967" fill="none" stroke-width="1"></path></g><g transform="translate(387 4)"><path d="M0 -12L10.4 -6L10.4 6L0 12L-10.4 6L-10.4 -6Z" stroke="#185967" fill="none" stroke-width="1"></path></g><g transform="translate(338 373)"><path d="M0 -4L3.5 -2L3.5 2L0 4L-3.5 2L-3.5 -2Z" stroke="#185967" fill="none" stroke-width="1"></path></g><g transform="translate(349 508)"><path d="M0 -8L6.9 -4L6.9 4L0 8L-6.9 4L-6.9 -4Z" stroke="#185967" fill="none" stroke-width="1"></path></g><g transform="translate(764 135)"><path d="M0 -12L10.4 -6L10.4 6L0 12L-10.4 6L-10.4 -6Z" stroke="#185967" fill="none" stroke-width="1"></path></g><g transform="translate(714 325)"><path d="M0 -7L6.1 -3.5L6.1 3.5L0 7L-6.1 3.5L-6.1 -3.5Z" stroke="#185967" fill="none" stroke-width="1"></path></g><g transform="translate(420 115)"><path d="M0 -3L2.6 -1.5L2.6 1.5L0 3L-2.6 1.5L-2.6 -1.5Z" stroke="#185967" fill="none" stroke-width="1"></path></g><g transform="translate(557 378)"><path d="M0 -7L6.1 -3.5L6.1 3.5L0 7L-6.1 3.5L-6.1 -3.5Z" stroke="#185967" fill="none" stroke-width="1"></path></g><g transform="translate(670 15)"><path d="M0 -2L1.7 -1L1.7 1L0 2L-1.7 1L-1.7 -1Z" stroke="#185967" fill="none" stroke-width="1"></path></g><g transform="translate(853 597)"><path d="M0 -9L7.8 -4.5L7.8 4.5L0 9L-7.8 4.5L-7.8 -4.5Z" stroke="#185967" fill="none" stroke-width="1"></path></g><g transform="translate(182 330)"><path d="M0 -7L6.1 -3.5L6.1 3.5L0 7L-6.1 3.5L-6.1 -3.5Z" stroke="#185967" fill="none" stroke-width="1"></path></g><g transform="translate(320 80)"><path d="M0 -6L5.2 -3L5.2 3L0 6L-5.2 3L-5.2 -3Z" stroke="#185967" fill="none" stroke-width="1"></path></g><g transform="translate(424 196)"><path d="M0 -1L0.9 -0.5L0.9 0.5L0 1L-0.9 0.5L-0.9 -0.5Z" stroke="#185967" fill="none" stroke-width="1"></path></g><g transform="translate(555 3)"><path d="M0 -11L9.5 -5.5L9.5 5.5L0 11L-9.5 5.5L-9.5 -5.5Z" stroke="#185967" fill="none" stroke-width="1"></path></g><g transform="translate(873 372)"><path d="M0 -3L2.6 -1.5L2.6 1.5L0 3L-2.6 1.5L-2.6 -1.5Z" stroke="#185967" fill="none" stroke-width="1"></path></g><g transform="translate(502 156)"><path d="M0 -8L6.9 -4L6.9 4L0 8L-6.9 4L-6.9 -4Z" stroke="#185967" fill="none" stroke-width="1"></path></g><g transform="translate(164 442)"><path d="M0 -5L4.3 -2.5L4.3 2.5L0 5L-4.3 2.5L-4.3 -2.5Z" stroke="#185967" fill="none" stroke-width="1"></path></g><g transform="translate(364 230)"><path d="M0 -12L10.4 -6L10.4 6L0 12L-10.4 6L-10.4 -6Z" stroke="#185967" fill="none" stroke-width="1"></path></g><g transform="translate(794 181)"><path d="M0 -7L6.1 -3.5L6.1 3.5L0 7L-6.1 3.5L-6.1 -3.5Z" stroke="#185967" fill="none" stroke-width="1"></path></g><g transform="translate(184 8)"><path d="M0 -12L10.4 -6L10.4 6L0 12L-10.4 6L-10.4 -6Z" stroke="#185967" fill="none" stroke-width="1"></path></g><g transform="translate(894 186)"><path d="M0 -1L0.9 -0.5L0.9 0.5L0 1L-0.9 0.5L-0.9 -0.5Z" stroke="#185967" fill="none" stroke-width="1"></path></g><g transform="translate(198 37)"><path d="M0 -6L5.2 -3L5.2 3L0 6L-5.2 3L-5.2 -3Z" stroke="#185967" fill="none" stroke-width="1"></path></g><g transform="translate(16 430)"><path d="M0 -3L2.6 -1.5L2.6 1.5L0 3L-2.6 1.5L-2.6 -1.5Z" stroke="#185967" fill="none" stroke-width="1"></path></g><g transform="translate(255 501)"><path d="M0 -6L5.2 -3L5.2 3L0 6L-5.2 3L-5.2 -3Z" stroke="#185967" fill="none" stroke-width="1"></path></g><g transform="translate(60 449)"><path d="M0 -3L2.6 -1.5L2.6 1.5L0 3L-2.6 1.5L-2.6 -1.5Z" stroke="#185967" fill="none" stroke-width="1"></path></g><g transform="translate(469 567)"><path d="M0 -9L7.8 -4.5L7.8 4.5L0 9L-7.8 4.5L-7.8 -4.5Z" stroke="#185967" fill="none" stroke-width="1"></path></g><g transform="translate(578 476)"><path d="M0 -11L9.5 -5.5L9.5 5.5L0 11L-9.5 5.5L-9.5 -5.5Z" stroke="#185967" fill="none" stroke-width="1"></path></g><g transform="translate(2 296)"><path d="M0 -9L7.8 -4.5L7.8 4.5L0 9L-7.8 4.5L-7.8 -4.5Z" stroke="#185967" fill="none" stroke-width="1"></path></g><g transform="translate(248 72)"><path d="M0 -9L7.8 -4.5L7.8 4.5L0 9L-7.8 4.5L-7.8 -4.5Z" stroke="#185967" fill="none" stroke-width="1"></path></g><g transform="translate(31 85)"><path d="M0 -4L3.5 -2L3.5 2L0 4L-3.5 2L-3.5 -2Z" stroke="#185967" fill="none" stroke-width="1"></path></g><g transform="translate(709 96)"><path d="M0 -4L3.5 -2L3.5 2L0 4L-3.5 2L-3.5 -2Z" stroke="#185967" fill="none" stroke-width="1"></path></g><g transform="translate(415 454)"><path d="M0 -4L3.5 -2L3.5 2L0 4L-3.5 2L-3.5 -2Z" stroke="#185967" fill="none" stroke-width="1"></path></g><g transform="translate(390 363)"><path d="M0 -7L6.1 -3.5L6.1 3.5L0 7L-6.1 3.5L-6.1 -3.5Z" stroke="#185967" fill="none" stroke-width="1"></path></g><g transform="translate(698 255)"><path d="M0 -1L0.9 -0.5L0.9 0.5L0 1L-0.9 0.5L-0.9 -0.5Z" stroke="#185967" fill="none" stroke-width="1"></path></g><g transform="translate(171 472)"><path d="M0 -8L6.9 -4L6.9 4L0 8L-6.9 4L-6.9 -4Z" stroke="#185967" fill="none" stroke-width="1"></path></g><g transform="translate(245 442)"><path d="M0 -6L5.2 -3L5.2 3L0 6L-5.2 3L-5.2 -3Z" stroke="#185967" fill="none" stroke-width="1"></path></g><g transform="translate(8 252)"><path d="M0 -3L2.6 -1.5L2.6 1.5L0 3L-2.6 1.5L-2.6 -1.5Z" stroke="#185967" fill="none" stroke-width="1"></path></g><g transform="translate(808 286)"><path d="M0 -10L8.7 -5L8.7 5L0 10L-8.7 5L-8.7 -5Z" stroke="#185967" fill="none" stroke-width="1"></path></g><g transform="translate(219 513)"><path d="M0 -11L9.5 -5.5L9.5 5.5L0 11L-9.5 5.5L-9.5 -5.5Z" stroke="#185967" fill="none" stroke-width="1"></path></g><g transform="translate(345 470)"><path d="M0 -3L2.6 -1.5L2.6 1.5L0 3L-2.6 1.5L-2.6 -1.5Z" stroke="#185967" fill="none" stroke-width="1"></path></g><g transform="translate(234 180)"><path d="M0 -12L10.4 -6L10.4 6L0 12L-10.4 6L-10.4 -6Z" stroke="#185967" fill="none" stroke-width="1"></path></g><g transform="translate(636 113)"><path d="M0 -11L9.5 -5.5L9.5 5.5L0 11L-9.5 5.5L-9.5 -5.5Z" stroke="#185967" fill="none" stroke-width="1"></path></g><g transform="translate(696 595)"><path d="M0 -5L4.3 -2.5L4.3 2.5L0 5L-4.3 2.5L-4.3 -2.5Z" stroke="#185967" fill="none" stroke-width="1"></path></g><g transform="translate(831 121)"><path d="M0 -12L10.4 -6L10.4 6L0 12L-10.4 6L-10.4 -6Z" stroke="#185967" fill="none" stroke-width="1"></path></g><g transform="translate(761 233)"><path d="M0 -11L9.5 -5.5L9.5 5.5L0 11L-9.5 5.5L-9.5 -5.5Z" stroke="#185967" fill="none" stroke-width="1"></path></g><g transform="translate(494 556)"><path d="M0 -6L5.2 -3L5.2 3L0 6L-5.2 3L-5.2 -3Z" stroke="#185967" fill="none" stroke-width="1"></path></g><g transform="translate(107 305)"><path d="M0 -4L3.5 -2L3.5 2L0 4L-3.5 2L-3.5 -2Z" stroke="#185967" fill="none" stroke-width="1"></path></g><g transform="translate(795 94)"><path d="M0 -3L2.6 -1.5L2.6 1.5L0 3L-2.6 1.5L-2.6 -1.5Z" stroke="#185967" fill="none" stroke-width="1"></path></g><g transform="translate(872 165)"><path d="M0 -8L6.9 -4L6.9 4L0 8L-6.9 4L-6.9 -4Z" stroke="#185967" fill="none" stroke-width="1"></path></g><g transform="translate(690 183)"><path d="M0 -3L2.6 -1.5L2.6 1.5L0 3L-2.6 1.5L-2.6 -1.5Z" stroke="#185967" fill="none" stroke-width="1"></path></g><g transform="translate(593 222)"><path d="M0 -6L5.2 -3L5.2 3L0 6L-5.2 3L-5.2 -3Z" stroke="#185967" fill="none" stroke-width="1"></path></g><g transform="translate(358 131)"><path d="M0 -7L6.1 -3.5L6.1 3.5L0 7L-6.1 3.5L-6.1 -3.5Z" stroke="#185967" fill="none" stroke-width="1"></path></g><g transform="translate(550 39)"><path d="M0 -11L9.5 -5.5L9.5 5.5L0 11L-9.5 5.5L-9.5 -5.5Z" stroke="#185967" fill="none" stroke-width="1"></path></g><g transform="translate(543 322)"><path d="M0 -12L10.4 -6L10.4 6L0 12L-10.4 6L-10.4 -6Z" stroke="#185967" fill="none" stroke-width="1"></path></g><g transform="translate(436 363)"><path d="M0 -12L10.4 -6L10.4 6L0 12L-10.4 6L-10.4 -6Z" stroke="#185967" fill="none" stroke-width="1"></path></g><g transform="translate(219 223)"><path d="M0 -1L0.9 -0.5L0.9 0.5L0 1L-0.9 0.5L-0.9 -0.5Z" stroke="#185967" fill="none" stroke-width="1"></path></g><g transform="translate(472 310)"><path d="M0 -8L6.9 -4L6.9 4L0 8L-6.9 4L-6.9 -4Z" stroke="#185967" fill="none" stroke-width="1"></path></g><g transform="translate(705 1)"><path d="M0 -3L2.6 -1.5L2.6 1.5L0 3L-2.6 1.5L-2.6 -1.5Z" stroke="#185967" fill="none" stroke-width="1"></path></g><g transform="translate(897 242)"><path d="M0 -12L10.4 -6L10.4 6L0 12L-10.4 6L-10.4 -6Z" stroke="#185967" fill="none" stroke-width="1"></path></g><g transform="translate(891 598)"><path d="M0 -10L8.7 -5L8.7 5L0 10L-8.7 5L-8.7 -5Z" stroke="#185967" fill="none" stroke-width="1"></path></g><g transform="translate(296 541)"><path d="M0 -5L4.3 -2.5L4.3 2.5L0 5L-4.3 2.5L-4.3 -2.5Z" stroke="#185967" fill="none" stroke-width="1"></path></g><g transform="translate(166 170)"><path d="M0 -9L7.8 -4.5L7.8 4.5L0 9L-7.8 4.5L-7.8 -4.5Z" stroke="#185967" fill="none" stroke-width="1"></path></g><g transform="translate(506 80)"><path d="M0 -8L6.9 -4L6.9 4L0 8L-6.9 4L-6.9 -4Z" stroke="#185967" fill="none" stroke-width="1"></path></g><g transform="translate(823 531)"><path d="M0 -2L1.7 -1L1.7 1L0 2L-1.7 1L-1.7 -1Z" stroke="#185967" fill="none" stroke-width="1"></path></g><g transform="translate(507 2)"><path d="M0 -9L7.8 -4.5L7.8 4.5L0 9L-7.8 4.5L-7.8 -4.5Z" stroke="#185967" fill="none" stroke-width="1"></path></g><g transform="translate(618 3)"><path d="M0 -9L7.8 -4.5L7.8 4.5L0 9L-7.8 4.5L-7.8 -4.5Z" stroke="#185967" fill="none" stroke-width="1"></path></g><g transform="translate(383 510)"><path d="M0 -6L5.2 -3L5.2 3L0 6L-5.2 3L-5.2 -3Z" stroke="#185967" fill="none" stroke-width="1"></path></g><g transform="translate(130 271)"><path d="M0 -1L0.9 -0.5L0.9 0.5L0 1L-0.9 0.5L-0.9 -0.5Z" stroke="#185967" fill="none" stroke-width="1"></path></g><g transform="translate(120 1)"><path d="M0 -2L1.7 -1L1.7 1L0 2L-1.7 1L-1.7 -1Z" stroke="#185967" fill="none" stroke-width="1"></path></g><g transform="translate(303 432)"><path d="M0 -3L2.6 -1.5L2.6 1.5L0 3L-2.6 1.5L-2.6 -1.5Z" stroke="#185967" fill="none" stroke-width="1"></path></g><g transform="translate(539 217)"><path d="M0 -11L9.5 -5.5L9.5 5.5L0 11L-9.5 5.5L-9.5 -5.5Z" stroke="#185967" fill="none" stroke-width="1"></path></g><g transform="translate(404 409)"><path d="M0 -6L5.2 -3L5.2 3L0 6L-5.2 3L-5.2 -3Z" stroke="#185967" fill="none" stroke-width="1"></path></g><g transform="translate(466 507)"><path d="M0 -2L1.7 -1L1.7 1L0 2L-1.7 1L-1.7 -1Z" stroke="#185967" fill="none" stroke-width="1"></path></g><g transform="translate(428 595)"><path d="M0 -8L6.9 -4L6.9 4L0 8L-6.9 4L-6.9 -4Z" stroke="#185967" fill="none" stroke-width="1"></path></g><g transform="translate(83 509)"><path d="M0 -8L6.9 -4L6.9 4L0 8L-6.9 4L-6.9 -4Z" stroke="#185967" fill="none" stroke-width="1"></path></g><g transform="translate(119 388)"><path d="M0 -9L7.8 -4.5L7.8 4.5L0 9L-7.8 4.5L-7.8 -4.5Z" stroke="#185967" fill="none" stroke-width="1"></path></g><g transform="translate(29 141)"><path d="M0 -11L9.5 -5.5L9.5 5.5L0 11L-9.5 5.5L-9.5 -5.5Z" stroke="#185967" fill="none" stroke-width="1"></path></g><g transform="translate(842 169)"><path d="M0 -5L4.3 -2.5L4.3 2.5L0 5L-4.3 2.5L-4.3 -2.5Z" stroke="#185967" fill="none" stroke-width="1"></path></g><g transform="translate(88 365)"><path d="M0 -1L0.9 -0.5L0.9 0.5L0 1L-0.9 0.5L-0.9 -0.5Z" stroke="#185967" fill="none" stroke-width="1"></path></g><g transform="translate(421 2)"><path d="M0 -11L9.5 -5.5L9.5 5.5L0 11L-9.5 5.5L-9.5 -5.5Z" stroke="#185967" fill="none" stroke-width="1"></path></g><g transform="translate(301 320)"><path d="M0 -1L0.9 -0.5L0.9 0.5L0 1L-0.9 0.5L-0.9 -0.5Z" stroke="#185967" fill="none" stroke-width="1"></path></g><g transform="translate(246 2)"><path d="M0 -5L4.3 -2.5L4.3 2.5L0 5L-4.3 2.5L-4.3 -2.5Z" stroke="#185967" fill="none" stroke-width="1"></path></g><g transform="translate(344 205)"><path d="M0 -8L6.9 -4L6.9 4L0 8L-6.9 4L-6.9 -4Z" stroke="#185967" fill="none" stroke-width="1"></path></g><g transform="translate(175 382)"><path d="M0 -12L10.4 -6L10.4 6L0 12L-10.4 6L-10.4 -6Z" stroke="#185967" fill="none" stroke-width="1"></path></g><g transform="translate(80 125)"><path d="M0 -2L1.7 -1L1.7 1L0 2L-1.7 1L-1.7 -1Z" stroke="#185967" fill="none" stroke-width="1"></path></g><g transform="translate(290 389)"><path d="M0 -12L10.4 -6L10.4 6L0 12L-10.4 6L-10.4 -6Z" stroke="#185967" fill="none" stroke-width="1"></path></g><g transform="translate(870 488)"><path d="M0 -11L9.5 -5.5L9.5 5.5L0 11L-9.5 5.5L-9.5 -5.5Z" stroke="#185967" fill="none" stroke-width="1"></path></g><g transform="translate(812 65)"><path d="M0 -9L7.8 -4.5L7.8 4.5L0 9L-7.8 4.5L-7.8 -4.5Z" stroke="#185967" fill="none" stroke-width="1"></path></g><g transform="translate(863 33)"><path d="M0 -11L9.5 -5.5L9.5 5.5L0 11L-9.5 5.5L-9.5 -5.5Z" stroke="#185967" fill="none" stroke-width="1"></path></g><g transform="translate(378 172)"><path d="M0 -2L1.7 -1L1.7 1L0 2L-1.7 1L-1.7 -1Z" stroke="#185967" fill="none" stroke-width="1"></path></g><g transform="translate(557 569)"><path d="M0 -10L8.7 -5L8.7 5L0 10L-8.7 5L-8.7 -5Z" stroke="#185967" fill="none" stroke-width="1"></path></g><g transform="translate(465 370)"><path d="M0 -8L6.9 -4L6.9 4L0 8L-6.9 4L-6.9 -4Z" stroke="#185967" fill="none" stroke-width="1"></path></g><g transform="translate(148 421)"><path d="M0 -7L6.1 -3.5L6.1 3.5L0 7L-6.1 3.5L-6.1 -3.5Z" stroke="#185967" fill="none" stroke-width="1"></path></g><g transform="translate(603 170)"><path d="M0 -4L3.5 -2L3.5 2L0 4L-3.5 2L-3.5 -2Z" stroke="#185967" fill="none" stroke-width="1"></path></g><g transform="translate(515 598)"><path d="M0 -10L8.7 -5L8.7 5L0 10L-8.7 5L-8.7 -5Z" stroke="#185967" fill="none" stroke-width="1"></path></g><g transform="translate(670 162)"><path d="M0 -1L0.9 -0.5L0.9 0.5L0 1L-0.9 0.5L-0.9 -0.5Z" stroke="#185967" fill="none" stroke-width="1"></path></g><g transform="translate(645 1)"><path d="M0 -3L2.6 -1.5L2.6 1.5L0 3L-2.6 1.5L-2.6 -1.5Z" stroke="#185967" fill="none" stroke-width="1"></path></g><g transform="translate(43 395)"><path d="M0 -4L3.5 -2L3.5 2L0 4L-3.5 2L-3.5 -2Z" stroke="#185967" fill="none" stroke-width="1"></path></g><g transform="translate(1 28)"><path d="M0 -6L5.2 -3L5.2 3L0 6L-5.2 3L-5.2 -3Z" stroke="#185967" fill="none" stroke-width="1"></path></g></g></svg>