<svg id="visual" viewBox="0 0 1920 1080" width="1920" height="1080" xmlns="http://www.w3.org/2000/svg" xmlns:xlink="http://www.w3.org/1999/xlink" version="1.1"><rect width="1920" height="1080" fill="#161616"></rect><g><g transform="translate(1468 446)"><path d="M0 -202.4L175.3 -101.2L175.3 101.2L0 202.4L-175.3 101.2L-175.3 -101.2Z" fill="none" stroke="#FCAF3C" stroke-width="5"></path></g><g transform="translate(759 637)"><path d="M0 -54L46.8 -27L46.8 27L0 54L-46.8 27L-46.8 -27Z" fill="none" stroke="#FCAF3C" stroke-width="5"></path></g><g transform="translate(84 203)"><path d="M0 -119L103.1 -59.5L103.1 59.5L0 119L-103.1 59.5L-103.1 -59.5Z" stroke="#FCAF3C" fill="none" stroke-width="5"></path></g><g transform="translate(1106 109)"><path d="M0 -180L155.9 -90L155.9 90L0 180L-155.9 90L-155.9 -90Z" stroke="#FCAF3C" fill="none" stroke-width="5"></path></g><g transform="translate(506 73)"><path d="M0 -100L86.6 -50L86.6 50L0 100L-86.6 50L-86.6 -50Z" stroke="#FCAF3C" fill="none" stroke-width="5"></path></g><g transform="translate(425 961)"><path d="M0 -40L34.6 -20L34.6 20L0 40L-34.6 20L-34.6 -20Z" stroke="#FCAF3C" fill="none" stroke-width="5"></path></g><g transform="translate(1862 913)"><path d="M0 -138L119.5 -69L119.5 69L0 138L-119.5 69L-119.5 -69Z" stroke="#FCAF3C" fill="none" stroke-width="5"></path></g><g transform="translate(1438 1071)"><path d="M0 -136L117.8 -68L117.8 68L0 136L-117.8 68L-117.8 -68Z" stroke="#FCAF3C" fill="none" stroke-width="5"></path></g><g transform="translate(159 627)"><path d="M0 -117L101.3 -58.5L101.3 58.5L0 117L-101.3 58.5L-101.3 -58.5Z" stroke="#FCAF3C" fill="none" stroke-width="5"></path></g><g transform="translate(1859 161)"><path d="M0 -144L124.7 -72L124.7 72L0 144L-124.7 72L-124.7 -72Z" stroke="#FCAF3C" fill="none" stroke-width="5"></path></g><g transform="translate(1002 1078)"><path d="M0 -119L103.1 -59.5L103.1 59.5L0 119L-103.1 59.5L-103.1 -59.5Z" stroke="#FCAF3C" fill="none" stroke-width="5"></path></g></g></svg>