<svg id="visual" viewBox="0 0 900 600" width="900" height="600" xmlns="http://www.w3.org/2000/svg" xmlns:xlink="http://www.w3.org/1999/xlink" version="1.1"><rect width="900" height="600" fill="#1e1e1e"></rect><g><g transform="translate(614 381)"><path d="M0 -147L127.3 -73.5L127.3 73.5L0 147L-127.3 73.5L-127.3 -73.5Z" fill="none" stroke="#4FACF7" stroke-width="2"></path></g><g transform="translate(202 233)"><path d="M0 -102L88.3 -51L88.3 51L0 102L-88.3 51L-88.3 -51Z" fill="none" stroke="#4FACF7" stroke-width="2"></path></g><g transform="translate(671 35)"><path d="M0 -108L93.5 -54L93.5 54L0 108L-93.5 54L-93.5 -54Z" fill="none" stroke="#4FACF7" stroke-width="2"></path></g><g transform="translate(329 521)"><path d="M0 -75L65 -37.5L65 37.5L0 75L-65 37.5L-65 -37.5Z" stroke="#4FACF7" fill="none" stroke-width="2"></path></g><g transform="translate(29 476)"><path d="M0 -95L82.3 -47.5L82.3 47.5L0 95L-82.3 47.5L-82.3 -47.5Z" stroke="#4FACF7" fill="none" stroke-width="2"></path></g></g></svg>