<svg id="visual" viewBox="0 0 1920 1080" width="1920" height="1080" xmlns="http://www.w3.org/2000/svg" xmlns:xlink="http://www.w3.org/1999/xlink" version="1.1"><rect width="1920" height="1080" fill="#212529"></rect><g><g transform="translate(242 422)"><path d="M0 -202.4L175.3 -101.2L175.3 101.2L0 202.4L-175.3 101.2L-175.3 -101.2Z" fill="none" stroke="#1F7A8C" stroke-width="5"></path></g><g transform="translate(1414 203)"><path d="M0 -152L131.6 -76L131.6 76L0 152L-131.6 76L-131.6 -76Z" fill="none" stroke="#1F7A8C" stroke-width="5"></path></g><g transform="translate(756 116)"><path d="M0 -134L116 -67L116 67L0 134L-116 67L-116 -67Z" stroke="#1F7A8C" fill="none" stroke-width="5"></path></g><g transform="translate(1763 933)"><path d="M0 -166L143.8 -83L143.8 83L0 166L-143.8 83L-143.8 -83Z" stroke="#1F7A8C" fill="none" stroke-width="5"></path></g><g transform="translate(1045 1047)"><path d="M0 -165L142.9 -82.5L142.9 82.5L0 165L-142.9 82.5L-142.9 -82.5Z" stroke="#1F7A8C" fill="none" stroke-width="5"></path></g><g transform="translate(1009 627)"><path d="M0 -124L107.4 -62L107.4 62L0 124L-107.4 62L-107.4 -62Z" stroke="#1F7A8C" fill="none" stroke-width="5"></path></g><g transform="translate(308 879)"><path d="M0 -118L102.2 -59L102.2 59L0 118L-102.2 59L-102.2 -59Z" stroke="#1F7A8C" fill="none" stroke-width="5"></path></g><g transform="translate(1818 410)"><path d="M0 -123L106.5 -61.5L106.5 61.5L0 123L-106.5 61.5L-106.5 -61.5Z" stroke="#1F7A8C" fill="none" stroke-width="5"></path></g><g transform="translate(132 16)"><path d="M0 -171L148.1 -85.5L148.1 85.5L0 171L-148.1 85.5L-148.1 -85.5Z" stroke="#1F7A8C" fill="none" stroke-width="5"></path></g><g transform="translate(1396 751)"><path d="M0 -153L132.5 -76.5L132.5 76.5L0 153L-132.5 76.5L-132.5 -76.5Z" stroke="#1F7A8C" fill="none" stroke-width="5"></path></g></g></svg>